<svg width="249" height="262" viewBox="0 0 249 262" fill="none" xmlns="http://www.w3.org/2000/svg">
<mask id="mask0" mask-type="alpha" maskUnits="userSpaceOnUse" x="0" y="0" width="249" height="262">
<rect x="0.422852" width="248.154" height="262" fill="#C4C4C4"/>
</mask>
<g mask="url(#mask0)">
<g opacity="0.7">
<path fill-rule="evenodd" clip-rule="evenodd" d="M0.955078 237.308V7.65162H1.34774V237.308H0.955078Z" fill="#434662"/>
<path fill-rule="evenodd" clip-rule="evenodd" d="M18.4287 237.308V7.65162H18.8213V237.308H18.4287Z" fill="#434662"/>
<path fill-rule="evenodd" clip-rule="evenodd" d="M36.0986 237.308V7.65162H36.4913V237.308H36.0986Z" fill="#434662"/>
<path fill-rule="evenodd" clip-rule="evenodd" d="M159.788 237.308V7.65162H160.181V237.308H159.788Z" fill="#434662"/>
<path fill-rule="evenodd" clip-rule="evenodd" d="M177.458 237.308V7.65162H177.851V237.308H177.458Z" fill="#434662"/>
<path fill-rule="evenodd" clip-rule="evenodd" d="M195.128 237.308V7.65162H195.521V237.308H195.128Z" fill="#434662"/>
<path fill-rule="evenodd" clip-rule="evenodd" d="M318.818 237.308V7.65162H319.21V237.308H318.818Z" fill="#434662"/>
<path fill-rule="evenodd" clip-rule="evenodd" d="M336.487 237.308V7.65162H336.88V237.308H336.487Z" fill="#434662"/>
<path fill-rule="evenodd" clip-rule="evenodd" d="M354.157 237.308V7.65162H354.55V237.308H354.157Z" fill="#434662"/>
<path fill-rule="evenodd" clip-rule="evenodd" d="M477.847 237.308V7.65162H478.24V237.308H477.847Z" fill="#434662"/>
<path fill-rule="evenodd" clip-rule="evenodd" d="M495.517 237.308V7.65162H495.909V237.308H495.517Z" fill="#434662"/>
<path fill-rule="evenodd" clip-rule="evenodd" d="M513.187 237.308V7.65162H513.579V237.308H513.187Z" fill="#434662"/>
<path fill-rule="evenodd" clip-rule="evenodd" d="M53.7685 237.308V7.65162H54.1612V237.308H53.7685Z" fill="#434662"/>
<path fill-rule="evenodd" clip-rule="evenodd" d="M71.4385 237.308V7.65162H71.8311V237.308H71.4385Z" fill="#434662"/>
<path fill-rule="evenodd" clip-rule="evenodd" d="M89.1084 237.308V7.65162H89.5011V237.308H89.1084Z" fill="#434662"/>
<path fill-rule="evenodd" clip-rule="evenodd" d="M212.798 237.308V7.65162H213.191V237.308H212.798Z" fill="#434662"/>
<path fill-rule="evenodd" clip-rule="evenodd" d="M230.468 237.308V7.65162H230.861V237.308H230.468Z" fill="#434662"/>
<path fill-rule="evenodd" clip-rule="evenodd" d="M248.138 237.308V7.65162H248.53V237.308H248.138Z" fill="#434662"/>
<path fill-rule="evenodd" clip-rule="evenodd" d="M371.827 237.308V7.65162H372.22V237.308H371.827Z" fill="#434662"/>
<path fill-rule="evenodd" clip-rule="evenodd" d="M389.497 237.308V7.65162H389.89V237.308H389.497Z" fill="#434662"/>
<path fill-rule="evenodd" clip-rule="evenodd" d="M407.167 237.308V7.65162H407.56V237.308H407.167Z" fill="#434662"/>
<path fill-rule="evenodd" clip-rule="evenodd" d="M530.857 237.308V7.65162H531.249V237.308H530.857Z" fill="#434662"/>
<path fill-rule="evenodd" clip-rule="evenodd" d="M548.527 237.308V7.65162H548.919V237.308H548.527Z" fill="#434662"/>
<path fill-rule="evenodd" clip-rule="evenodd" d="M566.197 237.308V7.65162H566.589V237.308H566.197Z" fill="#434662"/>
<path fill-rule="evenodd" clip-rule="evenodd" d="M636.876 237.308V7.65162H637.269V237.308H636.876Z" fill="#434662"/>
<path fill-rule="evenodd" clip-rule="evenodd" d="M654.546 237.308V7.65162H654.939V237.308H654.546Z" fill="#434662"/>
<path fill-rule="evenodd" clip-rule="evenodd" d="M672.216 237.308V7.65162H672.609V237.308H672.216Z" fill="#434662"/>
<path fill-rule="evenodd" clip-rule="evenodd" d="M106.778 237.308V7.65162H107.171V237.308H106.778Z" fill="#434662"/>
<path fill-rule="evenodd" clip-rule="evenodd" d="M124.448 237.308V7.65162H124.841V237.308H124.448Z" fill="#434662"/>
<path fill-rule="evenodd" clip-rule="evenodd" d="M142.118 237.308V7.65162H142.511V237.308H142.118Z" fill="#434662"/>
<path fill-rule="evenodd" clip-rule="evenodd" d="M265.808 237.308V7.65162H266.2V237.308H265.808Z" fill="#434662"/>
<path fill-rule="evenodd" clip-rule="evenodd" d="M283.478 237.308V7.65162H283.87V237.308H283.478Z" fill="#434662"/>
<path fill-rule="evenodd" clip-rule="evenodd" d="M301.148 237.308V7.65162H301.54V237.308H301.148Z" fill="#434662"/>
<path fill-rule="evenodd" clip-rule="evenodd" d="M424.837 237.308V7.65162H425.23V237.308H424.837Z" fill="#434662"/>
<path fill-rule="evenodd" clip-rule="evenodd" d="M442.507 237.308V7.65162H442.9V237.308H442.507Z" fill="#434662"/>
<path fill-rule="evenodd" clip-rule="evenodd" d="M460.177 237.308V7.65162H460.57V237.308H460.177Z" fill="#434662"/>
<path fill-rule="evenodd" clip-rule="evenodd" d="M583.866 237.308V7.65162H584.259V237.308H583.866Z" fill="#434662"/>
<path fill-rule="evenodd" clip-rule="evenodd" d="M601.536 237.308V7.65162H601.929V237.308H601.536Z" fill="#434662"/>
<path fill-rule="evenodd" clip-rule="evenodd" d="M619.206 237.308V7.65162H619.599V237.308H619.206Z" fill="#434662"/>
<path fill-rule="evenodd" clip-rule="evenodd" d="M689.886 237.308V7.65162H690.279V237.308H689.886Z" fill="#434662"/>
<path fill-rule="evenodd" clip-rule="evenodd" d="M707.556 237.308V7.65162H707.949V237.308H707.556Z" fill="#434662"/>
<path fill-rule="evenodd" clip-rule="evenodd" d="M725.226 237.308V7.65162H725.619V237.308H725.226Z" fill="#434662"/>
<path fill-rule="evenodd" clip-rule="evenodd" d="M742.896 237.308V7.65162H743.288V237.308H742.896Z" fill="#434662"/>
<path fill-rule="evenodd" clip-rule="evenodd" d="M743.288 184.507H1.15141L1.15141 184.114L743.288 184.114V184.507Z" fill="#434662"/>
<path fill-rule="evenodd" clip-rule="evenodd" d="M743.288 166.841L1.15141 166.841L1.15141 166.448H743.288V166.841Z" fill="#434662"/>
<path fill-rule="evenodd" clip-rule="evenodd" d="M743.288 149.175H1.15141L1.15141 148.782L743.288 148.782V149.175Z" fill="#434662"/>
<path fill-rule="evenodd" clip-rule="evenodd" d="M743.288 25.5138L1.15141 25.5138L1.15141 25.1212L743.288 25.1212V25.5138Z" fill="#434662"/>
<path fill-rule="evenodd" clip-rule="evenodd" d="M743.288 7.8479L1.15141 7.84791L1.15141 7.45534L743.288 7.45532V7.8479Z" fill="#434662"/>
<path fill-rule="evenodd" clip-rule="evenodd" d="M743.288 131.509L1.15141 131.509L1.15141 131.116L743.288 131.116V131.509Z" fill="#434662"/>
<path fill-rule="evenodd" clip-rule="evenodd" d="M743.288 113.843L1.15141 113.843L1.15141 113.451L743.288 113.45V113.843Z" fill="#434662"/>
<path fill-rule="evenodd" clip-rule="evenodd" d="M743.288 96.1772L1.15141 96.1772L1.15141 95.7846L743.288 95.7846V96.1772Z" fill="#434662"/>
<path fill-rule="evenodd" clip-rule="evenodd" d="M743.288 237.504L1.15141 237.504L1.15141 237.112L743.288 237.112V237.504Z" fill="#434662"/>
<path fill-rule="evenodd" clip-rule="evenodd" d="M743.288 219.838L1.15141 219.838L1.15141 219.446L743.288 219.446V219.838Z" fill="#434662"/>
<path fill-rule="evenodd" clip-rule="evenodd" d="M743.288 202.172L1.15141 202.172L1.15141 201.78H743.288V202.172Z" fill="#434662"/>
<path fill-rule="evenodd" clip-rule="evenodd" d="M743.288 78.5113L1.15141 78.5114L1.15141 78.1188L743.288 78.1188V78.5113Z" fill="#434662"/>
<path fill-rule="evenodd" clip-rule="evenodd" d="M743.288 60.8455L1.15141 60.8455L1.15141 60.4529L743.288 60.4529V60.8455Z" fill="#434662"/>
<path fill-rule="evenodd" clip-rule="evenodd" d="M743.288 43.1796L1.15141 43.1796L1.15141 42.7871L743.288 42.787V43.1796Z" fill="#434662"/>
</g>
</g>
</svg>
