<svg width="76" height="150" viewBox="0 0 76 150" fill="none" xmlns="http://www.w3.org/2000/svg">
<path d="M1 12C1 5.92487 5.92487 1 12 1H64C70.0751 1 75 5.92487 75 12V138C75 144.075 70.0751 149 64 149H12C5.92487 149 1 144.075 1 138V12Z" fill="#1D2835" stroke="#364657" stroke-width="2"/>
<path d="M53.5722 69.3805C53.1193 69.3805 52.7521 69.0134 52.7521 68.5605V63.0764C52.7521 62.422 52.2202 61.8901 51.5658 61.8901H46.0818C45.6289 61.8901 45.2617 61.5229 45.2617 61.0701C45.2617 60.6172 45.6289 60.25 46.0818 60.25H51.5658C53.1241 60.25 54.3923 61.5182 54.3923 63.0764V68.5605C54.3923 69.0134 54.0251 69.3805 53.5722 69.3805Z" fill="#445568" stroke="#1D2835" stroke-width="0.5"/>
<path d="M21.4705 69.3805C21.0175 69.3805 20.6504 69.0134 20.6504 68.5605V63.0764C20.6504 61.5182 21.9186 60.25 23.4768 60.25H28.9609C29.4138 60.25 29.7809 60.6172 29.7809 61.0701C29.7809 61.5229 29.4138 61.8901 28.9609 61.8901H23.4768C22.8224 61.8901 22.2905 62.422 22.2905 63.0764V68.5605C22.2905 69.0134 21.9234 69.3805 21.4705 69.3805Z" fill="#445568" stroke="#1D2835" stroke-width="0.5"/>
<path d="M28.9609 93.9919H23.4768C21.9186 93.9919 20.6504 92.7237 20.6504 91.1655V85.6814C20.6504 85.2285 21.0175 84.8613 21.4705 84.8613C21.9234 84.8613 22.2905 85.2285 22.2905 85.6814V91.1655C22.2905 91.8198 22.8224 92.3518 23.4768 92.3518H28.9609C29.4138 92.3518 29.7809 92.7189 29.7809 93.1718C29.7809 93.6247 29.4138 93.9919 28.9609 93.9919Z" fill="#445568" stroke="#1D2835" stroke-width="0.5"/>
<path d="M51.5658 93.9919H46.0818C45.6289 93.9919 45.2617 93.6247 45.2617 93.1718C45.2617 92.7189 45.6289 92.3518 46.0818 92.3518H51.5658C52.2202 92.3518 52.7521 91.8198 52.7521 91.1655V85.6814C52.7521 85.2285 53.1193 84.8613 53.5722 84.8613C54.0251 84.8613 54.3923 85.2285 54.3923 85.6814V91.1655C54.3923 92.7237 53.1241 93.9919 51.5658 93.9919Z" fill="#445568" stroke="#1D2835" stroke-width="0.5"/>
<path d="M33.3749 75.8009H27.7571C26.1988 75.8009 24.9307 74.5328 24.9307 72.9745V67.3567C24.9307 65.7985 26.1988 64.5303 27.7571 64.5303H33.3749C34.9332 64.5303 36.2013 65.7985 36.2013 67.3567V72.9745C36.2013 74.5328 34.9332 75.8009 33.3749 75.8009ZM27.7571 66.1704C27.1027 66.1704 26.5708 66.7023 26.5708 67.3567V72.9745C26.5708 73.6289 27.1027 74.1608 27.7571 74.1608H33.3749C34.0293 74.1608 34.5612 73.6289 34.5612 72.9745V67.3567C34.5612 66.7023 34.0293 66.1704 33.3749 66.1704H27.7571Z" fill="#445568" stroke="#1D2835" stroke-width="0.5"/>
<path d="M33.3749 89.7117H27.7571C26.1988 89.7117 24.9307 88.4435 24.9307 86.8853V81.2675C24.9307 79.7092 26.1988 78.441 27.7571 78.441H33.3749C34.9332 78.441 36.2013 79.7092 36.2013 81.2675V86.8853C36.2013 88.4435 34.9332 89.7117 33.3749 89.7117ZM27.7571 80.0812C27.1027 80.0812 26.5708 80.6131 26.5708 81.2675V86.8853C26.5708 87.5397 27.1027 88.0716 27.7571 88.0716H33.3749C34.0293 88.0716 34.5612 87.5397 34.5612 86.8853V81.2675C34.5612 80.6131 34.0293 80.0812 33.3749 80.0812H27.7571Z" fill="#445568" stroke="#1D2835" stroke-width="0.5"/>
<path d="M47.2856 75.8009H41.6677C40.1095 75.8009 38.8413 74.5328 38.8413 72.9745V67.3567C38.8413 65.7985 40.1095 64.5303 41.6677 64.5303H47.2856C48.8438 64.5303 50.112 65.7985 50.112 67.3567V72.9745C50.112 74.5328 48.8438 75.8009 47.2856 75.8009ZM41.6677 66.1704C41.0134 66.1704 40.4814 66.7023 40.4814 67.3567V72.9745C40.4814 73.6289 41.0134 74.1608 41.6677 74.1608H47.2856C47.9399 74.1608 48.4719 73.6289 48.4719 72.9745V67.3567C48.4719 66.7023 47.9399 66.1704 47.2856 66.1704H41.6677Z" fill="#445568" stroke="#1D2835" stroke-width="0.5"/>
<path d="M45.8317 83.5413V83.7913H46.0817H48.6231C49.4439 83.7913 50.112 84.4595 50.112 85.2802V88.2229C50.112 89.0436 49.4439 89.7117 48.6231 89.7117H45.6805C44.8597 89.7117 44.1916 89.0436 44.1916 88.2229V85.6815V85.4315H43.9416H40.3302C39.5094 85.4315 38.8413 84.7633 38.8413 83.9426V79.9299C38.8413 79.1092 39.5094 78.441 40.3302 78.441H44.3429C45.1637 78.441 45.8317 79.1092 45.8317 79.9299V83.5413ZM40.7314 80.0812H40.4814V80.3312V83.5413V83.7913H40.7314H43.9416H44.1916V83.5413V80.3312V80.0812H43.9416H40.7314ZM48.2219 88.0716H48.4719V87.8216V85.6815V85.4315H48.2219H46.0817H45.8317V85.6815V87.8216V88.0716H46.0817H48.2219Z" fill="#445568" stroke="#1D2835" stroke-width="0.5"/>
<path d="M31.1011 71.5207H30.031C29.5781 71.5207 29.2109 71.1535 29.2109 70.7007V69.6306C29.2109 69.1777 29.5781 68.8105 30.031 68.8105H31.1011C31.554 68.8105 31.9211 69.1777 31.9211 69.6306V70.7007C31.9211 71.1535 31.554 71.5207 31.1011 71.5207Z" fill="#445568" stroke="#1D2835" stroke-width="0.5"/>
<path d="M45.0117 71.5207H43.9416C43.4887 71.5207 43.1216 71.1535 43.1216 70.7007V69.6306C43.1216 69.1777 43.4887 68.8105 43.9416 68.8105H45.0117C45.4646 68.8105 45.8318 69.1777 45.8318 69.6306V70.7007C45.8318 71.1535 45.4646 71.5207 45.0117 71.5207Z" fill="#445568" stroke="#1D2835" stroke-width="0.5"/>
<path d="M31.1011 85.4315H30.031C29.5781 85.4315 29.2109 85.0643 29.2109 84.6114V83.5414C29.2109 83.0885 29.5781 82.7213 30.031 82.7213H31.1011C31.554 82.7213 31.9211 83.0885 31.9211 83.5414V84.6114C31.9211 85.0643 31.554 85.4315 31.1011 85.4315Z" fill="#445568" stroke="#1D2835" stroke-width="0.5"/>
<path d="M30.2399 18.0471C30.0985 18.0471 29.9468 18.0419 29.7845 18.0314C29.6275 18.0262 29.4652 18.0157 29.2977 18C29.1355 17.9791 28.981 17.9607 28.8345 17.945C28.6879 17.9241 28.5571 17.9006 28.4419 17.8744V17.1128C28.5885 17.1233 28.7586 17.1337 28.9523 17.1442C29.1512 17.1547 29.3579 17.1625 29.5725 17.1678C29.7871 17.173 29.9939 17.1756 30.1928 17.1756C30.4021 17.1756 30.5879 17.1573 30.7502 17.1207C30.9125 17.0788 31.0381 17.0081 31.1271 16.9087C31.216 16.8092 31.2605 16.6679 31.2605 16.4847V16.2099C31.2605 16.0058 31.203 15.8487 31.0878 15.7388C30.9727 15.6289 30.8025 15.574 30.5775 15.574H30.0357C29.5071 15.574 29.0988 15.4588 28.8109 15.2285C28.5283 14.9982 28.387 14.603 28.387 14.043V13.7446C28.387 13.1845 28.5414 12.7815 28.8502 12.5355C29.1642 12.2843 29.6118 12.1586 30.1928 12.1586C30.3917 12.1586 30.5958 12.1691 30.8052 12.1901C31.0198 12.2058 31.2239 12.2267 31.4176 12.2529C31.6112 12.279 31.7761 12.3078 31.9122 12.3392V13.1008C31.6819 13.0851 31.4176 13.0694 31.1192 13.0537C30.8261 13.038 30.5539 13.0301 30.3027 13.0301C30.1038 13.0301 29.9284 13.0511 29.7766 13.093C29.6249 13.1348 29.5097 13.2107 29.4312 13.3206C29.3527 13.4253 29.3134 13.5823 29.3134 13.7917V13.9801C29.3134 14.2262 29.3788 14.3989 29.5097 14.4983C29.6458 14.5978 29.8395 14.6475 30.0907 14.6475H30.6952C31.0355 14.6475 31.3155 14.7103 31.5353 14.8359C31.7552 14.9616 31.9174 15.1343 32.0221 15.3541C32.132 15.5687 32.187 15.8147 32.187 16.0921V16.4611C32.187 16.8904 32.1032 17.2201 31.9357 17.4504C31.7683 17.6807 31.5379 17.8377 31.2448 17.9215C30.9517 18.0052 30.6167 18.0471 30.2399 18.0471ZM33.0739 18V12.0173H34.0474V14.2314C34.2149 14.1058 34.4243 13.9906 34.6755 13.8859C34.932 13.776 35.1937 13.7211 35.4607 13.7211C35.7695 13.7211 36.0181 13.7839 36.2065 13.9095C36.4002 14.0351 36.5389 14.2104 36.6227 14.4355C36.7116 14.6554 36.7561 14.9066 36.7561 15.1892V18H35.7826V15.307C35.7826 15.1605 35.7538 15.0348 35.6962 14.9301C35.6386 14.8202 35.5575 14.7391 35.4528 14.6868C35.3481 14.6292 35.2251 14.6004 35.0838 14.6004C34.9477 14.6004 34.8221 14.6161 34.7069 14.6475C34.5918 14.6737 34.4793 14.7129 34.3693 14.7653C34.2647 14.8176 34.1574 14.8778 34.0474 14.9459V18H33.0739ZM39.4866 18.0393C39.1568 18.0393 38.8716 18.0052 38.6308 17.9372C38.39 17.8691 38.1937 17.754 38.042 17.5917C37.8902 17.4295 37.7776 17.2096 37.7044 16.9322C37.6311 16.6548 37.5944 16.3067 37.5944 15.888C37.5944 15.4536 37.6311 15.0976 37.7044 14.8202C37.7776 14.5376 37.8902 14.3178 38.042 14.1607C38.199 13.9985 38.3979 13.8885 38.6387 13.831C38.8794 13.7682 39.1621 13.7368 39.4866 13.7368C39.8216 13.7368 40.1095 13.7708 40.3502 13.8388C40.591 13.9016 40.7873 14.0116 40.9391 14.1686C41.0909 14.3256 41.2034 14.5454 41.2767 14.8281C41.35 15.1055 41.3866 15.4588 41.3866 15.888C41.3866 16.312 41.35 16.6653 41.2767 16.9479C41.2086 17.2253 41.0987 17.4452 40.9469 17.6074C40.7951 17.7645 40.5989 17.877 40.3581 17.945C40.1173 18.0079 39.8268 18.0393 39.4866 18.0393ZM39.4866 17.262C39.6489 17.262 39.7876 17.2489 39.9027 17.2227C40.0179 17.1913 40.1121 17.1311 40.1854 17.0421C40.2639 16.9479 40.3214 16.8092 40.3581 16.626C40.3947 16.4376 40.413 16.189 40.413 15.8802C40.413 15.5766 40.3947 15.3332 40.3581 15.15C40.3214 14.9668 40.2639 14.8307 40.1854 14.7417C40.1121 14.6475 40.0179 14.5873 39.9027 14.5611C39.7876 14.5297 39.6489 14.514 39.4866 14.514C39.3296 14.514 39.1935 14.5297 39.0783 14.5611C38.9632 14.5873 38.869 14.6475 38.7957 14.7417C38.7224 14.8307 38.6648 14.9668 38.623 15.15C38.5863 15.3332 38.568 15.5766 38.568 15.8802C38.568 16.189 38.5863 16.4376 38.623 16.626C38.6648 16.8092 38.7224 16.9479 38.7957 17.0421C38.869 17.1311 38.9632 17.1913 39.0783 17.2227C39.1935 17.2489 39.3296 17.262 39.4866 17.262ZM42.8912 18L41.7214 13.7917H42.7185L43.5115 17.0971L44.4222 13.7917H45.2388L46.1495 17.0971L46.8954 13.7917H47.8925L46.7384 18H45.6627L44.8148 15.15L43.9433 18H42.8912ZM18.2889 27C17.9854 27 17.7367 26.9555 17.5431 26.8665C17.3494 26.7723 17.2081 26.6179 17.1191 26.4033C17.0353 26.1887 16.9961 25.9061 17.0013 25.5554L17.0327 23.5768H16.3732V22.9487L17.0641 22.7917L17.2055 21.614H17.967V22.7917H19.0348V23.5768H17.967V25.5475C17.967 25.6836 17.9801 25.7961 18.0063 25.8851C18.0325 25.9689 18.0691 26.0369 18.1162 26.0893C18.1685 26.1364 18.2235 26.1704 18.2811 26.1913C18.3387 26.2123 18.3989 26.2253 18.4617 26.2306L18.9877 26.2855V27H18.2889ZM19.7482 27V21.0173H20.7217V23.2314C20.8892 23.1058 21.0986 22.9906 21.3498 22.8859C21.6063 22.776 21.868 22.7211 22.135 22.7211C22.4438 22.7211 22.6924 22.7839 22.8808 22.9095C23.0745 23.0351 23.2132 23.2104 23.2969 23.4355C23.3859 23.6554 23.4304 23.9066 23.4304 24.1892V27H22.4569V24.307C22.4569 24.1605 22.4281 24.0348 22.3705 23.9301C22.3129 23.8202 22.2318 23.7391 22.1271 23.6868C22.0224 23.6292 21.8994 23.6004 21.7581 23.6004C21.622 23.6004 21.4964 23.6161 21.3812 23.6475C21.2661 23.6737 21.1535 23.7129 21.0436 23.7653C20.9389 23.8176 20.8316 23.8778 20.7217 23.9459V27H19.7482ZM26.1216 27.0393C25.6663 27.0393 25.3025 26.9764 25.0303 26.8508C24.7634 26.7252 24.5697 26.508 24.4493 26.1992C24.3289 25.8851 24.2687 25.4507 24.2687 24.8959C24.2687 24.3306 24.3263 23.8935 24.4415 23.5847C24.5566 23.2706 24.7477 23.0508 25.0146 22.9252C25.2815 22.7996 25.6427 22.7368 26.0981 22.7368C26.5011 22.7368 26.823 22.7786 27.0638 22.8624C27.3098 22.9409 27.4878 23.0848 27.5977 23.2942C27.7128 23.4983 27.7704 23.7888 27.7704 24.1657C27.7704 24.4326 27.7181 24.6472 27.6134 24.8095C27.5087 24.9665 27.3569 25.0791 27.158 25.1471C26.9643 25.2151 26.734 25.2492 26.4671 25.2492H25.2344C25.2449 25.5109 25.2789 25.7202 25.3365 25.8773C25.3993 26.0291 25.5092 26.139 25.6663 26.207C25.8285 26.2751 26.0641 26.3091 26.3729 26.3091H27.6448V26.8822C27.4302 26.9241 27.2025 26.9607 26.9617 26.9921C26.7262 27.0236 26.4461 27.0393 26.1216 27.0393ZM25.2266 24.6603H26.3729C26.5561 24.6603 26.6895 24.6263 26.7733 24.5583C26.8623 24.485 26.9068 24.3541 26.9068 24.1657C26.9068 23.9825 26.8806 23.8386 26.8282 23.7339C26.7759 23.6292 26.6895 23.5559 26.5692 23.514C26.4488 23.4669 26.2917 23.4434 26.0981 23.4434C25.8782 23.4434 25.7055 23.4774 25.5799 23.5454C25.4543 23.6135 25.3627 23.7365 25.3051 23.9144C25.2528 24.0872 25.2266 24.3358 25.2266 24.6603ZM34.2067 28.4682C33.9764 28.4682 33.754 28.4263 33.5394 28.3426C33.33 28.2588 33.152 28.128 33.0055 27.95C32.8642 27.7773 32.783 27.5548 32.7621 27.2826H33.4373C33.4844 27.4554 33.5786 27.5784 33.7199 27.6517C33.8613 27.7249 34.0104 27.7616 34.1675 27.7616C34.246 27.7616 34.3245 27.7537 34.403 27.738C34.4868 27.7223 34.56 27.7066 34.6228 27.6909V28.4132C34.5548 28.4237 34.4868 28.4342 34.4187 28.4446C34.3507 28.4603 34.28 28.4682 34.2067 28.4682ZM32.9191 27.0471C32.5318 27.0471 32.1916 27.0105 31.8985 26.9372C31.6106 26.8587 31.3672 26.72 31.1683 26.5211C30.9746 26.3169 30.8281 26.0212 30.7286 25.6339C30.6344 25.2465 30.5873 24.7414 30.5873 24.1186C30.5873 23.4905 30.637 22.9828 30.7365 22.5954C30.8359 22.2029 30.9825 21.9045 31.1761 21.7004C31.375 21.491 31.6184 21.3471 31.9063 21.2686C32.1994 21.1901 32.537 21.1508 32.9191 21.1508C33.3117 21.1508 33.6545 21.1901 33.9476 21.2686C34.2408 21.3471 34.4841 21.491 34.6778 21.7004C34.8715 21.9045 35.0154 22.2029 35.1096 22.5954C35.2091 22.9828 35.2588 23.4905 35.2588 24.1186C35.2588 24.7414 35.2091 25.2465 35.1096 25.6339C35.0154 26.0212 34.8689 26.3169 34.67 26.5211C34.4763 26.72 34.2329 26.8587 33.9398 26.9372C33.6519 27.0105 33.3117 27.0471 32.9191 27.0471ZM32.9191 26.1756C33.1756 26.1756 33.3902 26.1494 33.5629 26.0971C33.7409 26.0395 33.8822 25.9401 33.9869 25.7988C34.0916 25.6522 34.1675 25.4454 34.2146 25.1785C34.2617 24.9063 34.2852 24.553 34.2852 24.1186C34.2852 23.658 34.2591 23.2916 34.2067 23.0194C34.1596 22.742 34.0837 22.5326 33.979 22.3913C33.8744 22.2447 33.7357 22.1479 33.5629 22.1008C33.3902 22.0485 33.1756 22.0223 32.9191 22.0223C32.6783 22.0223 32.4716 22.0485 32.2989 22.1008C32.1261 22.1479 31.9848 22.2447 31.8749 22.3913C31.7702 22.5326 31.6917 22.742 31.6394 23.0194C31.587 23.2916 31.5608 23.658 31.5608 24.1186C31.5608 24.553 31.5818 24.9063 31.6237 25.1785C31.6708 25.4454 31.7467 25.6522 31.8513 25.7988C31.956 25.9401 32.0947 26.0395 32.2675 26.0971C32.4454 26.1494 32.6626 26.1756 32.9191 26.1756ZM36.1956 27V21.2058H38.5509C38.7655 21.2058 38.9671 21.2319 39.1555 21.2843C39.3492 21.3314 39.5193 21.4204 39.6658 21.5512C39.8176 21.6821 39.9354 21.8653 40.0191 22.1008C40.1081 22.3311 40.1526 22.6321 40.1526 23.0037C40.1526 23.2916 40.1238 23.5324 40.0662 23.726C40.0087 23.9144 39.9328 24.0689 39.8385 24.1892C39.7443 24.3096 39.637 24.4038 39.5166 24.4719C39.4015 24.5347 39.2863 24.587 39.1712 24.6289L40.2861 27H39.3047L38.2997 24.7702C38.2264 24.7702 38.1401 24.7702 38.0406 24.7702C37.9464 24.7702 37.8469 24.7702 37.7423 24.7702C37.6376 24.765 37.5355 24.7624 37.4361 24.7624C37.3366 24.7572 37.245 24.7545 37.1613 24.7545V27H36.1956ZM37.1613 23.993H38.3861C38.5012 23.993 38.6059 23.9799 38.7001 23.9537C38.7943 23.9223 38.8781 23.87 38.9514 23.7967C39.0246 23.7234 39.0796 23.6239 39.1162 23.4983C39.1581 23.3727 39.179 23.2104 39.179 23.0116C39.179 22.8179 39.1581 22.6609 39.1162 22.5405C39.0796 22.4149 39.0246 22.3206 38.9514 22.2578C38.8781 22.1898 38.7917 22.1427 38.6923 22.1165C38.598 22.0903 38.496 22.0772 38.3861 22.0772H37.1613V23.993ZM44.6815 27.0471C44.4303 27.0471 44.1973 27.0157 43.9827 26.9529C43.7734 26.8848 43.5902 26.7723 43.4331 26.6153C43.2761 26.453 43.1531 26.2332 43.0641 25.9558C42.9804 25.6784 42.9385 25.3303 42.9385 24.9116C42.9385 24.4824 42.9778 24.1264 43.0563 23.8438C43.14 23.5611 43.2578 23.3387 43.4096 23.1764C43.5614 23.0142 43.7446 22.9016 43.9592 22.8388C44.179 22.7708 44.4276 22.7368 44.7051 22.7368C44.9406 22.7368 45.1787 22.7498 45.4195 22.776C45.6603 22.7969 45.9011 22.8388 46.1418 22.9016V23.4591H44.9956C44.7443 23.4591 44.5402 23.4983 44.3832 23.5768C44.2261 23.6554 44.1084 23.7993 44.0298 24.0087C43.9513 24.218 43.9121 24.519 43.9121 24.9116C43.9121 25.2989 43.9513 25.5946 44.0298 25.7988C44.1084 25.9977 44.2261 26.1337 44.3832 26.207C44.5454 26.2751 44.7522 26.3091 45.0034 26.3091H46.2046V26.8587C46.079 26.8953 45.9325 26.9293 45.765 26.9607C45.5975 26.9869 45.4195 27.0079 45.2311 27.0236C45.0479 27.0393 44.8647 27.0471 44.6815 27.0471ZM48.6796 27.0393C48.3499 27.0393 48.0646 27.0052 47.8239 26.9372C47.5831 26.8691 47.3868 26.754 47.235 26.5917C47.0832 26.4295 46.9707 26.2096 46.8974 25.9322C46.8241 25.6548 46.7875 25.3067 46.7875 24.888C46.7875 24.4536 46.8241 24.0976 46.8974 23.8202C46.9707 23.5376 47.0832 23.3178 47.235 23.1607C47.392 22.9985 47.5909 22.8885 47.8317 22.831C48.0725 22.7682 48.3551 22.7368 48.6796 22.7368C49.0146 22.7368 49.3025 22.7708 49.5433 22.8388C49.7841 22.9016 49.9803 23.0116 50.1321 23.1686C50.2839 23.3256 50.3965 23.5454 50.4697 23.8281C50.543 24.1055 50.5796 24.4588 50.5796 24.888C50.5796 25.312 50.543 25.6653 50.4697 25.9479C50.4017 26.2253 50.2918 26.4452 50.14 26.6074C49.9882 26.7645 49.7919 26.877 49.5511 26.945C49.3104 27.0079 49.0199 27.0393 48.6796 27.0393ZM48.6796 26.262C48.8419 26.262 48.9806 26.2489 49.0958 26.2227C49.2109 26.1913 49.3051 26.1311 49.3784 26.0421C49.4569 25.9479 49.5145 25.8092 49.5511 25.626C49.5878 25.4376 49.6061 25.189 49.6061 24.8802C49.6061 24.5766 49.5878 24.3332 49.5511 24.15C49.5145 23.9668 49.4569 23.8307 49.3784 23.7417C49.3051 23.6475 49.2109 23.5873 49.0958 23.5611C48.9806 23.5297 48.8419 23.514 48.6796 23.514C48.5226 23.514 48.3865 23.5297 48.2714 23.5611C48.1562 23.5873 48.062 23.6475 47.9887 23.7417C47.9154 23.8307 47.8579 23.9668 47.816 24.15C47.7794 24.3332 47.761 24.5766 47.761 24.8802C47.761 25.189 47.7794 25.4376 47.816 25.626C47.8579 25.8092 47.9154 25.9479 47.9887 26.0421C48.062 26.1311 48.1562 26.1913 48.2714 26.2227C48.3865 26.2489 48.5226 26.262 48.6796 26.262ZM52.8186 27.0471C52.4889 27.0471 52.2114 26.9764 51.9864 26.8351C51.7613 26.6886 51.5912 26.4609 51.476 26.1521C51.3661 25.838 51.3112 25.4324 51.3112 24.9351C51.3112 24.4117 51.3609 23.9903 51.4603 23.6711C51.5598 23.3465 51.7247 23.111 51.955 22.9644C52.1905 22.8127 52.5046 22.7368 52.8971 22.7368C53.1065 22.7368 53.3132 22.7577 53.5174 22.7996C53.7215 22.8414 53.8995 22.8912 54.0513 22.9487V21.0095H55.0248V27H54.2161L54.0513 26.5917C53.9675 26.6702 53.855 26.7435 53.7137 26.8116C53.5776 26.8796 53.431 26.9372 53.274 26.9843C53.1222 27.0262 52.9704 27.0471 52.8186 27.0471ZM53.1484 26.262C53.3368 26.262 53.5069 26.2332 53.6587 26.1756C53.8105 26.1128 53.9413 26.05 54.0513 25.9872V23.6475C53.9204 23.6004 53.7869 23.5585 53.6508 23.5219C53.5148 23.4852 53.3656 23.4669 53.2033 23.4669C52.9835 23.4669 52.8055 23.5088 52.6694 23.5925C52.5333 23.6711 52.4339 23.8124 52.3711 24.0165C52.3135 24.2206 52.2847 24.5111 52.2847 24.888C52.2847 25.2387 52.3135 25.5161 52.3711 25.7202C52.4287 25.9191 52.5203 26.0605 52.6459 26.1442C52.7767 26.2227 52.9442 26.262 53.1484 26.262ZM57.7184 27.0393C57.2631 27.0393 56.8993 26.9764 56.6271 26.8508C56.3602 26.7252 56.1665 26.508 56.0461 26.1992C55.9257 25.8851 55.8655 25.4507 55.8655 24.8959C55.8655 24.3306 55.9231 23.8935 56.0383 23.5847C56.1534 23.2706 56.3445 23.0508 56.6114 22.9252C56.8783 22.7996 57.2395 22.7368 57.6949 22.7368C58.0979 22.7368 58.4198 22.7786 58.6606 22.8624C58.9066 22.9409 59.0845 23.0848 59.1945 23.2942C59.3096 23.4983 59.3672 23.7888 59.3672 24.1657C59.3672 24.4326 59.3149 24.6472 59.2102 24.8095C59.1055 24.9665 58.9537 25.0791 58.7548 25.1471C58.5611 25.2151 58.3308 25.2492 58.0639 25.2492H56.8312C56.8417 25.5109 56.8757 25.7202 56.9333 25.8773C56.9961 26.0291 57.106 26.139 57.2631 26.207C57.4253 26.2751 57.6608 26.3091 57.9697 26.3091H59.2416V26.8822C59.027 26.9241 58.7993 26.9607 58.5585 26.9921C58.323 27.0236 58.0429 27.0393 57.7184 27.0393ZM56.8234 24.6603H57.9697C58.1529 24.6603 58.2863 24.6263 58.3701 24.5583C58.4591 24.485 58.5036 24.3541 58.5036 24.1657C58.5036 23.9825 58.4774 23.8386 58.425 23.7339C58.3727 23.6292 58.2863 23.5559 58.1659 23.514C58.0456 23.4669 57.8885 23.4434 57.6949 23.4434C57.475 23.4434 57.3023 23.4774 57.1767 23.5454C57.0511 23.6135 56.9595 23.7365 56.9019 23.9144C56.8495 24.0872 56.8234 24.3358 56.8234 24.6603Z" fill="white"/>
</svg>
