<svg width="35" height="35" viewBox="0 0 35 35" fill="none" xmlns="http://www.w3.org/2000/svg">
<path d="M33.5722 9.38055C33.1193 9.38055 32.7521 9.01337 32.7521 8.56049V3.07643C32.7521 2.42205 32.2202 1.89012 31.5658 1.89012H26.0818C25.6289 1.89012 25.2617 1.52294 25.2617 1.07006C25.2617 0.617181 25.6289 0.25 26.0818 0.25H31.5658C33.1241 0.25 34.3923 1.51818 34.3923 3.07643V8.56049C34.3923 9.01337 34.0251 9.38055 33.5722 9.38055Z" fill="#445568" stroke="#1D2835" stroke-width="0.5"/>
<path d="M1.47045 9.38055C1.01752 9.38055 0.650391 9.01337 0.650391 8.56049V3.07643C0.650391 1.51818 1.91857 0.25 3.47682 0.25H8.96088C9.41381 0.25 9.78094 0.617181 9.78094 1.07006C9.78094 1.52294 9.41381 1.89012 8.96088 1.89012H3.47682C2.82244 1.89012 2.29051 2.42205 2.29051 3.07643V8.56049C2.29051 9.01337 1.92338 9.38055 1.47045 9.38055Z" fill="#445568" stroke="#1D2835" stroke-width="0.5"/>
<path d="M8.96088 33.9919H3.47682C1.91857 33.9919 0.650391 32.7237 0.650391 31.1655V25.6814C0.650391 25.2285 1.01752 24.8613 1.47045 24.8613C1.92338 24.8613 2.29051 25.2285 2.29051 25.6814V31.1655C2.29051 31.8198 2.82244 32.3518 3.47682 32.3518H8.96088C9.41381 32.3518 9.78094 32.7189 9.78094 33.1718C9.78094 33.6247 9.41381 33.9919 8.96088 33.9919Z" fill="#445568" stroke="#1D2835" stroke-width="0.5"/>
<path d="M31.5658 33.9919H26.0818C25.6289 33.9919 25.2617 33.6247 25.2617 33.1718C25.2617 32.7189 25.6289 32.3518 26.0818 32.3518H31.5658C32.2202 32.3518 32.7521 31.8198 32.7521 31.1655V25.6814C32.7521 25.2285 33.1193 24.8613 33.5722 24.8613C34.0251 24.8613 34.3923 25.2285 34.3923 25.6814V31.1655C34.3923 32.7237 33.1241 33.9919 31.5658 33.9919Z" fill="#445568" stroke="#1D2835" stroke-width="0.5"/>
<path d="M13.3749 15.8009H7.75709C6.19885 15.8009 4.93066 14.5328 4.93066 12.9745V7.3567C4.93066 5.79846 6.19885 4.53027 7.75709 4.53027H13.3749C14.9332 4.53027 16.2013 5.79846 16.2013 7.3567V12.9745C16.2013 14.5328 14.9332 15.8009 13.3749 15.8009ZM7.75709 6.1704C7.10271 6.1704 6.57079 6.70232 6.57079 7.3567V12.9745C6.57079 13.6289 7.10271 14.1608 7.75709 14.1608H13.3749C14.0293 14.1608 14.5612 13.6289 14.5612 12.9745V7.3567C14.5612 6.70232 14.0293 6.1704 13.3749 6.1704H7.75709Z" fill="#445568" stroke="#1D2835" stroke-width="0.5"/>
<path d="M13.3749 29.7117H7.75709C6.19885 29.7117 4.93066 28.4435 4.93066 26.8853V21.2675C4.93066 19.7092 6.19885 18.441 7.75709 18.441H13.3749C14.9332 18.441 16.2013 19.7092 16.2013 21.2675V26.8853C16.2013 28.4435 14.9332 29.7117 13.3749 29.7117ZM7.75709 20.0812C7.10271 20.0812 6.57079 20.6131 6.57079 21.2675V26.8853C6.57079 27.5397 7.10271 28.0716 7.75709 28.0716H13.3749C14.0293 28.0716 14.5612 27.5397 14.5612 26.8853V21.2675C14.5612 20.6131 14.0293 20.0812 13.3749 20.0812H7.75709Z" fill="#445568" stroke="#1D2835" stroke-width="0.5"/>
<path d="M27.2856 15.8009H21.6677C20.1095 15.8009 18.8413 14.5328 18.8413 12.9745V7.3567C18.8413 5.79846 20.1095 4.53027 21.6677 4.53027H27.2856C28.8438 4.53027 30.112 5.79846 30.112 7.3567V12.9745C30.112 14.5328 28.8438 15.8009 27.2856 15.8009ZM21.6677 6.1704C21.0134 6.1704 20.4814 6.70232 20.4814 7.3567V12.9745C20.4814 13.6289 21.0134 14.1608 21.6677 14.1608H27.2856C27.9399 14.1608 28.4719 13.6289 28.4719 12.9745V7.3567C28.4719 6.70232 27.9399 6.1704 27.2856 6.1704H21.6677Z" fill="#445568" stroke="#1D2835" stroke-width="0.5"/>
<path d="M25.8317 23.5413V23.7913H26.0817H28.6231C29.4439 23.7913 30.112 24.4595 30.112 25.2802V28.2229C30.112 29.0436 29.4439 29.7117 28.6231 29.7117H25.6805C24.8597 29.7117 24.1916 29.0436 24.1916 28.2229V25.6815V25.4315H23.9416H20.3302C19.5094 25.4315 18.8413 24.7633 18.8413 23.9426V19.9299C18.8413 19.1092 19.5094 18.441 20.3302 18.441H24.3429C25.1637 18.441 25.8317 19.1092 25.8317 19.9299V23.5413ZM20.7314 20.0812H20.4814V20.3312V23.5413V23.7913H20.7314H23.9416H24.1916V23.5413V20.3312V20.0812H23.9416H20.7314ZM28.2219 28.0716H28.4719V27.8216V25.6815V25.4315H28.2219H26.0817H25.8317V25.6815V27.8216V28.0716H26.0817H28.2219Z" fill="#445568" stroke="#1D2835" stroke-width="0.5"/>
<path d="M11.1011 11.5207H10.031C9.57807 11.5207 9.21094 11.1535 9.21094 10.7007V9.63061C9.21094 9.17773 9.57807 8.81055 10.031 8.81055H11.1011C11.554 8.81055 11.9211 9.17773 11.9211 9.63061V10.7007C11.9211 11.1535 11.554 11.5207 11.1011 11.5207Z" fill="#445568" stroke="#1D2835" stroke-width="0.5"/>
<path d="M25.0117 11.5207H23.9416C23.4887 11.5207 23.1216 11.1535 23.1216 10.7007V9.63061C23.1216 9.17773 23.4887 8.81055 23.9416 8.81055H25.0117C25.4646 8.81055 25.8318 9.17773 25.8318 9.63061V10.7007C25.8318 11.1535 25.4646 11.5207 25.0117 11.5207Z" fill="#445568" stroke="#1D2835" stroke-width="0.5"/>
<path d="M11.1011 25.4315H10.031C9.57807 25.4315 9.21094 25.0643 9.21094 24.6114V23.5414C9.21094 23.0885 9.57807 22.7213 10.031 22.7213H11.1011C11.554 22.7213 11.9211 23.0885 11.9211 23.5414V24.6114C11.9211 25.0643 11.554 25.4315 11.1011 25.4315Z" fill="#445568" stroke="#1D2835" stroke-width="0.5"/>
</svg>
