<svg width="80" height="80" viewBox="0 0 80 80" fill="none" xmlns="http://www.w3.org/2000/svg">
<path fill-rule="evenodd" clip-rule="evenodd" d="M39.5001 9.25C31.5242 9.25 24.9946 15.7796 24.9946 23.7554V28.9983H29.3055V23.7554C29.3055 18.1463 33.8909 13.5608 39.5001 13.5608C45.1092 13.5608 49.6946 18.1463 49.6946 23.7554V28.9983H54.0055V23.7554C54.0055 15.7796 47.4759 9.25 39.5001 9.25Z" fill="#FA5B66"/>
<path d="M58.0248 69.1357H20.9748C18.6081 69.1357 16.664 67.1915 16.664 64.8248V37.0373C16.664 34.6706 18.6081 32.7265 20.9748 32.7265H58.0248C60.3915 32.7265 62.3357 34.6706 62.3357 37.0373V64.8248C62.3357 67.1915 60.3915 69.1357 58.0248 69.1357Z" stroke="#FA5B66" stroke-width="3.7283"/>
<path d="M39.5 54.9219C41.8165 54.9219 43.6943 53.044 43.6943 50.7275C43.6943 48.4111 41.8165 46.5332 39.5 46.5332C37.1835 46.5332 35.3057 48.4111 35.3057 50.7275C35.3057 53.044 37.1835 54.9219 39.5 54.9219Z" fill="#FA5B66"/>
</svg>
