<svg width="46" height="46" viewBox="0 0 46 46" fill="none" xmlns="http://www.w3.org/2000/svg">
<path d="M44.5772 13.0227C43.9297 13.0227 43.4049 12.4978 43.4049 11.8504V4.56107C43.4049 3.73673 42.7347 3.06655 41.9104 3.06655H34.621C33.9736 3.06655 33.4487 2.54165 33.4487 1.89424C33.4487 1.24682 33.9736 0.721924 34.621 0.721924H41.9104C44.027 0.721924 45.7495 2.44442 45.7495 4.56107V11.8504C45.7495 12.4978 45.2247 13.0227 44.5772 13.0227Z" fill="white" stroke="#1D2835" stroke-width="0.5"/>
<path d="M1.90815 13.0227C1.26067 13.0227 0.73584 12.4978 0.73584 11.8504V4.56107C0.73584 2.44442 2.45834 0.721924 4.57499 0.721924H11.8643C12.5118 0.721924 13.0366 1.24682 13.0366 1.89424C13.0366 2.54165 12.5118 3.06655 11.8643 3.06655H4.57499C3.75065 3.06655 3.08046 3.73673 3.08046 4.56107V11.8504C3.08046 12.4978 2.55563 13.0227 1.90815 13.0227Z" fill="white" stroke="#1D2835" stroke-width="0.5"/>
<path d="M11.8643 45.7359H4.57499C2.45834 45.7359 0.73584 44.0134 0.73584 41.8967V34.6074C0.73584 33.96 1.26067 33.4351 1.90815 33.4351C2.55563 33.4351 3.08046 33.96 3.08046 34.6074V41.8967C3.08046 42.7211 3.75065 43.3912 4.57499 43.3912H11.8643C12.5118 43.3912 13.0366 43.9161 13.0366 44.5636C13.0366 45.211 12.5118 45.7359 11.8643 45.7359Z" fill="white" stroke="#1D2835" stroke-width="0.5"/>
<path d="M41.9104 45.7359H34.621C33.9736 45.7359 33.4487 45.211 33.4487 44.5636C33.4487 43.9161 33.9736 43.3912 34.621 43.3912H41.9104C42.7347 43.3912 43.4049 42.7211 43.4049 41.8967V34.6074C43.4049 33.96 43.9297 33.4351 44.5772 33.4351C45.2247 33.4351 45.7495 33.96 45.7495 34.6074V41.8967C45.7495 44.0134 44.027 45.7359 41.9104 45.7359Z" fill="white" stroke="#1D2835" stroke-width="0.5"/>
<path d="M17.7316 21.5567H10.2644C8.14779 21.5567 6.42529 19.8342 6.42529 17.7175V10.2504C6.42529 8.13375 8.14779 6.41125 10.2644 6.41125H17.7316C19.8482 6.41125 21.5707 8.13375 21.5707 10.2504V17.7175C21.5707 19.8342 19.8482 21.5567 17.7316 21.5567ZM10.2644 8.75588C9.4401 8.75588 8.76992 9.42606 8.76992 10.2504V17.7175C8.76992 18.5419 9.4401 19.2121 10.2644 19.2121H17.7316C18.5559 19.2121 19.2261 18.5419 19.2261 17.7175V10.2504C19.2261 9.42606 18.5559 8.75588 17.7316 8.75588H10.2644Z" fill="white" stroke="#1D2835" stroke-width="0.5"/>
<path d="M17.7316 40.0467H10.2644C8.14779 40.0467 6.42529 38.3242 6.42529 36.2075V28.7404C6.42529 26.6237 8.14779 24.9012 10.2644 24.9012H17.7316C19.8482 24.9012 21.5707 26.6237 21.5707 28.7404V36.2075C21.5707 38.3242 19.8482 40.0467 17.7316 40.0467ZM10.2644 27.2459C9.4401 27.2459 8.76992 27.9161 8.76992 28.7404V36.2075C8.76992 37.0319 9.4401 37.7021 10.2644 37.7021H17.7316C18.5559 37.7021 19.2261 37.0319 19.2261 36.2075V28.7404C19.2261 27.9161 18.5559 27.2459 17.7316 27.2459H10.2644Z" fill="white" stroke="#1D2835" stroke-width="0.5"/>
<path d="M36.2213 21.5567H28.7542C26.6375 21.5567 24.915 19.8342 24.915 17.7175V10.2504C24.915 8.13375 26.6375 6.41125 28.7542 6.41125H36.2213C38.338 6.41125 40.0605 8.13375 40.0605 10.2504V17.7175C40.0605 19.8342 38.338 21.5567 36.2213 21.5567ZM28.7542 8.75588C27.9298 8.75588 27.2597 9.42606 27.2597 10.2504V17.7175C27.2597 18.5419 27.9298 19.2121 28.7542 19.2121H36.2213C37.0457 19.2121 37.7158 18.5419 37.7158 17.7175V10.2504C37.7158 9.42606 37.0457 8.75588 36.2213 8.75588H28.7542Z" fill="white" stroke="#1D2835" stroke-width="0.5"/>
<path d="M34.3712 31.7628V32.0128H34.6212H37.9992C39.1356 32.0128 40.0605 32.9377 40.0605 34.0741V37.9854C40.0605 39.1217 39.1356 40.0467 37.9992 40.0467H34.0879C32.9515 40.0467 32.0266 39.1217 32.0266 37.9854V34.6074V34.3574H31.7766H26.9763C25.8399 34.3574 24.915 33.4325 24.915 32.2962V26.9625C24.915 25.8262 25.8399 24.9012 26.9763 24.9012H32.31C33.4464 24.9012 34.3712 25.8262 34.3712 26.9625V31.7628ZM27.5097 27.2459H27.2597V27.4959V31.7628V32.0128H27.5097H31.7766H32.0266V31.7628V27.4959V27.2459H31.7766H27.5097ZM37.4658 37.7021H37.7158V37.4521V34.6074V34.3574H37.4658H34.6212H34.3712V34.6074V37.4521V37.7021H34.6212H37.4658Z" fill="white" stroke="#1D2835" stroke-width="0.5"/>
<path d="M14.7089 15.8674H13.2866C12.6391 15.8674 12.1143 15.3425 12.1143 14.6951V13.2728C12.1143 12.6254 12.6391 12.1005 13.2866 12.1005H14.7089C15.3564 12.1005 15.8812 12.6254 15.8812 13.2728V14.6951C15.8812 15.3425 15.3564 15.8674 14.7089 15.8674Z" fill="white" stroke="#1D2835" stroke-width="0.5"/>
<path d="M33.1991 15.8674H31.7768C31.1293 15.8674 30.6045 15.3425 30.6045 14.6951V13.2728C30.6045 12.6254 31.1293 12.1005 31.7768 12.1005H33.1991C33.8466 12.1005 34.3714 12.6254 34.3714 13.2728V14.6951C34.3714 15.3425 33.8466 15.8674 33.1991 15.8674Z" fill="white" stroke="#1D2835" stroke-width="0.5"/>
<path d="M14.7089 34.3574H13.2866C12.6391 34.3574 12.1143 33.8325 12.1143 33.1851V31.7628C12.1143 31.1154 12.6391 30.5905 13.2866 30.5905H14.7089C15.3564 30.5905 15.8812 31.1154 15.8812 31.7628V33.1851C15.8812 33.8325 15.3564 34.3574 14.7089 34.3574Z" fill="white" stroke="#1D2835" stroke-width="0.5"/>
</svg>
