<svg width="76" height="150" viewBox="0 0 76 150" fill="none" xmlns="http://www.w3.org/2000/svg">
<path d="M1 12C1 5.92487 5.92487 1 12 1L64 1C70.0751 1 75 5.92487 75 12L75 138C75 144.075 70.0751 149 64 149H12C5.92487 149 1 144.075 1 138L1 12Z" fill="#1D2835" fill-opacity="0.8" stroke="#506377" stroke-width="2"/>
<path d="M58.5772 65.0227C57.9297 65.0227 57.4049 64.4978 57.4049 63.8504V56.5611C57.4049 55.7367 56.7347 55.0665 55.9104 55.0665H48.621C47.9736 55.0665 47.4487 54.5416 47.4487 53.8942C47.4487 53.2468 47.9736 52.7219 48.621 52.7219H55.9104C58.027 52.7219 59.7495 54.4444 59.7495 56.5611V63.8504C59.7495 64.4978 59.2247 65.0227 58.5772 65.0227Z" fill="white" stroke="#1D2835" stroke-width="0.5"/>
<path d="M15.9082 65.0227C15.2607 65.0227 14.7358 64.4978 14.7358 63.8504V56.5611C14.7358 54.4444 16.4583 52.7219 18.575 52.7219H25.8643C26.5118 52.7219 27.0366 53.2468 27.0366 53.8942C27.0366 54.5416 26.5118 55.0665 25.8643 55.0665H18.575C17.7507 55.0665 17.0805 55.7367 17.0805 56.5611V63.8504C17.0805 64.4978 16.5556 65.0227 15.9082 65.0227Z" fill="white" stroke="#1D2835" stroke-width="0.5"/>
<path d="M25.8643 97.7359H18.575C16.4583 97.7359 14.7358 96.0134 14.7358 93.8967V86.6074C14.7358 85.96 15.2607 85.4351 15.9082 85.4351C16.5556 85.4351 17.0805 85.96 17.0805 86.6074V93.8967C17.0805 94.7211 17.7507 95.3912 18.575 95.3912H25.8643C26.5118 95.3912 27.0366 95.9161 27.0366 96.5636C27.0366 97.211 26.5118 97.7359 25.8643 97.7359Z" fill="white" stroke="#1D2835" stroke-width="0.5"/>
<path d="M55.9104 97.7359H48.621C47.9736 97.7359 47.4487 97.211 47.4487 96.5636C47.4487 95.9161 47.9736 95.3912 48.621 95.3912H55.9104C56.7347 95.3912 57.4049 94.7211 57.4049 93.8967V86.6074C57.4049 85.96 57.9297 85.4351 58.5772 85.4351C59.2247 85.4351 59.7495 85.96 59.7495 86.6074V93.8967C59.7495 96.0134 58.027 97.7359 55.9104 97.7359Z" fill="white" stroke="#1D2835" stroke-width="0.5"/>
<path d="M31.7316 73.5567H24.2644C22.1478 73.5567 20.4253 71.8342 20.4253 69.7175V62.2504C20.4253 60.1338 22.1478 58.4113 24.2644 58.4113H31.7316C33.8482 58.4113 35.5707 60.1338 35.5707 62.2504V69.7175C35.5707 71.8342 33.8482 73.5567 31.7316 73.5567ZM24.2644 60.7559C23.4401 60.7559 22.7699 61.4261 22.7699 62.2504V69.7175C22.7699 70.5419 23.4401 71.2121 24.2644 71.2121H31.7316C32.5559 71.2121 33.2261 70.5419 33.2261 69.7175V62.2504C33.2261 61.4261 32.5559 60.7559 31.7316 60.7559H24.2644Z" fill="white" stroke="#1D2835" stroke-width="0.5"/>
<path d="M31.7316 92.0467H24.2644C22.1478 92.0467 20.4253 90.3242 20.4253 88.2075V80.7404C20.4253 78.6237 22.1478 76.9012 24.2644 76.9012H31.7316C33.8482 76.9012 35.5707 78.6237 35.5707 80.7404V88.2075C35.5707 90.3242 33.8482 92.0467 31.7316 92.0467ZM24.2644 79.2459C23.4401 79.2459 22.7699 79.9161 22.7699 80.7404V88.2075C22.7699 89.0319 23.4401 89.7021 24.2644 89.7021H31.7316C32.5559 89.7021 33.2261 89.0319 33.2261 88.2075V80.7404C33.2261 79.9161 32.5559 79.2459 31.7316 79.2459H24.2644Z" fill="white" stroke="#1D2835" stroke-width="0.5"/>
<path d="M50.2213 73.5567H42.7542C40.6375 73.5567 38.915 71.8342 38.915 69.7175V62.2504C38.915 60.1338 40.6375 58.4113 42.7542 58.4113H50.2213C52.338 58.4113 54.0605 60.1338 54.0605 62.2504V69.7175C54.0605 71.8342 52.338 73.5567 50.2213 73.5567ZM42.7542 60.7559C41.9298 60.7559 41.2597 61.4261 41.2597 62.2504V69.7175C41.2597 70.5419 41.9298 71.2121 42.7542 71.2121H50.2213C51.0457 71.2121 51.7158 70.5419 51.7158 69.7175V62.2504C51.7158 61.4261 51.0457 60.7559 50.2213 60.7559H42.7542Z" fill="white" stroke="#1D2835" stroke-width="0.5"/>
<path d="M48.3712 83.7628V84.0128H48.6212H51.9992C53.1356 84.0128 54.0605 84.9377 54.0605 86.0741V89.9854C54.0605 91.1217 53.1356 92.0467 51.9992 92.0467H48.0879C46.9515 92.0467 46.0266 91.1217 46.0266 89.9854V86.6074V86.3574H45.7766H40.9763C39.8399 86.3574 38.915 85.4325 38.915 84.2962V78.9625C38.915 77.8262 39.8399 76.9012 40.9763 76.9012H46.31C47.4464 76.9012 48.3712 77.8262 48.3712 78.9625V83.7628ZM41.5097 79.2459H41.2597V79.4959V83.7628V84.0128H41.5097H45.7766H46.0266V83.7628V79.4959V79.2459H45.7766H41.5097ZM51.4658 89.7021H51.7158V89.4521V86.6074V86.3574H51.4658H48.6212H48.3712V86.6074V89.4521V89.7021H48.6212H51.4658Z" fill="white" stroke="#1D2835" stroke-width="0.5"/>
<path d="M28.7089 67.8674H27.2866C26.6391 67.8674 26.1143 67.3425 26.1143 66.6951V65.2728C26.1143 64.6254 26.6391 64.1005 27.2866 64.1005H28.7089C29.3564 64.1005 29.8812 64.6254 29.8812 65.2728V66.6951C29.8812 67.3425 29.3564 67.8674 28.7089 67.8674Z" fill="white" stroke="#1D2835" stroke-width="0.5"/>
<path d="M47.1991 67.8674H45.7768C45.1293 67.8674 44.6045 67.3425 44.6045 66.6951V65.2728C44.6045 64.6254 45.1293 64.1005 45.7768 64.1005H47.1991C47.8466 64.1005 48.3714 64.6254 48.3714 65.2728V66.6951C48.3714 67.3425 47.8466 67.8674 47.1991 67.8674Z" fill="white" stroke="#1D2835" stroke-width="0.5"/>
<path d="M28.7089 86.3574H27.2866C26.6391 86.3574 26.1143 85.8325 26.1143 85.1851V83.7628C26.1143 83.1154 26.6391 82.5905 27.2866 82.5905H28.7089C29.3564 82.5905 29.8812 83.1154 29.8812 83.7628V85.1851C29.8812 85.8325 29.3564 86.3574 28.7089 86.3574Z" fill="white" stroke="#1D2835" stroke-width="0.5"/>
<path d="M31.5548 20.0471C31.4135 20.0471 31.2617 20.0419 31.0994 20.0314C30.9424 20.0262 30.7801 20.0157 30.6127 20C30.4504 19.9791 30.296 19.9607 30.1494 19.945C30.0029 19.9241 29.872 19.9006 29.7569 19.8744V19.1128C29.9034 19.1233 30.0735 19.1337 30.2672 19.1442C30.4661 19.1547 30.6728 19.1625 30.8874 19.1678C31.102 19.173 31.3088 19.1756 31.5077 19.1756C31.7171 19.1756 31.9029 19.1573 32.0651 19.1207C32.2274 19.0788 32.353 19.0081 32.442 18.9087C32.531 18.8092 32.5755 18.6679 32.5755 18.4847V18.2099C32.5755 18.0058 32.5179 17.8487 32.4027 17.7388C32.2876 17.6289 32.1175 17.574 31.8924 17.574H31.3507C30.822 17.574 30.4138 17.4588 30.1259 17.2285C29.8432 16.9982 29.7019 16.603 29.7019 16.043V15.7446C29.7019 15.1845 29.8563 14.7815 30.1651 14.5355C30.4792 14.2843 30.9267 14.1586 31.5077 14.1586C31.7066 14.1586 31.9107 14.1691 32.1201 14.1901C32.3347 14.2058 32.5388 14.2267 32.7325 14.2529C32.9262 14.279 33.091 14.3078 33.2271 14.3392V15.1008C32.9968 15.0851 32.7325 15.0694 32.4341 15.0537C32.141 15.038 31.8689 15.0301 31.6176 15.0301C31.4187 15.0301 31.2434 15.0511 31.0916 15.093C30.9398 15.1348 30.8246 15.2107 30.7461 15.3206C30.6676 15.4253 30.6284 15.5823 30.6284 15.7917V15.9801C30.6284 16.2262 30.6938 16.3989 30.8246 16.4983C30.9607 16.5978 31.1544 16.6475 31.4056 16.6475H32.0102C32.3504 16.6475 32.6304 16.7103 32.8503 16.8359C33.0701 16.9616 33.2324 17.1343 33.337 17.3541C33.447 17.5687 33.5019 17.8147 33.5019 18.0921V18.4611C33.5019 18.8904 33.4182 19.2201 33.2507 19.4504C33.0832 19.6807 32.8529 19.8377 32.5598 19.9215C32.2667 20.0052 31.9317 20.0471 31.5548 20.0471ZM35.9983 20.0471C35.7471 20.0471 35.5142 20.0157 35.2996 19.9529C35.0902 19.8848 34.907 19.7723 34.75 19.6153C34.5929 19.453 34.4699 19.2332 34.381 18.9558C34.2972 18.6784 34.2553 18.3303 34.2553 17.9116C34.2553 17.4824 34.2946 17.1264 34.3731 16.8438C34.4569 16.5611 34.5746 16.3387 34.7264 16.1764C34.8782 16.0142 35.0614 15.9016 35.276 15.8388C35.4958 15.7708 35.7445 15.7368 36.0219 15.7368C36.2574 15.7368 36.4956 15.7498 36.7363 15.776C36.9771 15.7969 37.2179 15.8388 37.4587 15.9016V16.4591H36.3124C36.0611 16.4591 35.857 16.4983 35.7 16.5768C35.5429 16.6554 35.4252 16.7993 35.3467 17.0087C35.2682 17.218 35.2289 17.519 35.2289 17.9116C35.2289 18.2989 35.2682 18.5946 35.3467 18.7988C35.4252 18.9977 35.5429 19.1337 35.7 19.207C35.8622 19.2751 36.069 19.3091 36.3202 19.3091H37.5215V19.8587C37.3959 19.8953 37.2493 19.9293 37.0818 19.9607C36.9143 19.9869 36.7363 20.0079 36.5479 20.0236C36.3647 20.0393 36.1815 20.0471 35.9983 20.0471ZM39.1093 20.0471C38.7952 20.0471 38.5387 19.9529 38.3398 19.7645C38.1409 19.576 38.0415 19.3169 38.0415 18.9872V18.6339C38.0415 18.3094 38.1514 18.045 38.3712 17.8409C38.5963 17.6368 38.9392 17.5347 39.3998 17.5347H40.601V17.1657C40.601 17.0191 40.5748 16.8961 40.5225 16.7967C40.4702 16.6972 40.3759 16.6239 40.2399 16.5768C40.1038 16.5245 39.897 16.4983 39.6196 16.4983H38.3477V15.933C38.5414 15.8807 38.769 15.8362 39.0308 15.7996C39.2925 15.7577 39.6039 15.7368 39.9651 15.7368C40.3105 15.7315 40.6036 15.7734 40.8444 15.8624C41.0852 15.9461 41.2658 16.0874 41.3861 16.2863C41.5118 16.4852 41.5746 16.7574 41.5746 17.1029V20H40.813L40.6481 19.5446C40.6115 19.576 40.5461 19.6179 40.4518 19.6702C40.3576 19.7226 40.2399 19.7802 40.0985 19.843C39.9572 19.9006 39.8002 19.9503 39.6275 19.9921C39.46 20.0288 39.2872 20.0471 39.1093 20.0471ZM39.5803 19.364C39.6484 19.364 39.7243 19.3562 39.808 19.3405C39.897 19.3196 39.986 19.2986 40.075 19.2777C40.164 19.2515 40.2451 19.228 40.3184 19.207C40.3969 19.1808 40.4597 19.1573 40.5068 19.1364C40.5591 19.1154 40.5905 19.1023 40.601 19.0971V17.9979L39.6903 18.045C39.4495 18.066 39.2741 18.1288 39.1642 18.2335C39.0595 18.3381 39.0072 18.4769 39.0072 18.6496V18.8223C39.0072 18.9532 39.0334 19.0605 39.0857 19.1442C39.1433 19.2227 39.214 19.2777 39.2977 19.3091C39.3867 19.3405 39.4809 19.3588 39.5803 19.364ZM42.5391 20V15.7917H43.3321L43.5127 16.2314C43.6854 16.1005 43.8948 15.9828 44.1408 15.8781C44.392 15.7734 44.6511 15.7211 44.9181 15.7211C45.2478 15.7211 45.5069 15.7891 45.6953 15.9252C45.8838 16.056 46.0172 16.234 46.0957 16.4591C46.1795 16.6841 46.2214 16.9301 46.2214 17.1971V20H45.2478V17.3149C45.2478 17.1631 45.219 17.0348 45.1614 16.9301C45.1039 16.8255 45.0227 16.7443 44.9181 16.6868C44.8186 16.6292 44.6956 16.6004 44.549 16.6004C44.413 16.6004 44.2847 16.6135 44.1643 16.6397C44.0492 16.6658 43.9393 16.7051 43.8346 16.7574C43.7299 16.8098 43.6226 16.8726 43.5127 16.9459V20H42.5391ZM18.2889 29C17.9854 29 17.7367 28.9555 17.5431 28.8665C17.3494 28.7723 17.2081 28.6179 17.1191 28.4033C17.0353 28.1887 16.9961 27.9061 17.0013 27.5554L17.0327 25.5768H16.3732V24.9487L17.0641 24.7917L17.2055 23.614H17.967V24.7917H19.0348V25.5768H17.967V27.5475C17.967 27.6836 17.9801 27.7961 18.0063 27.8851C18.0325 27.9689 18.0691 28.0369 18.1162 28.0893C18.1685 28.1364 18.2235 28.1704 18.2811 28.1913C18.3387 28.2123 18.3989 28.2253 18.4617 28.2306L18.9877 28.2855V29H18.2889ZM19.7482 29V23.0173H20.7217V25.2314C20.8892 25.1058 21.0986 24.9906 21.3498 24.8859C21.6063 24.776 21.868 24.7211 22.135 24.7211C22.4438 24.7211 22.6924 24.7839 22.8808 24.9095C23.0745 25.0351 23.2132 25.2104 23.2969 25.4355C23.3859 25.6554 23.4304 25.9066 23.4304 26.1892V29H22.4569V26.307C22.4569 26.1605 22.4281 26.0348 22.3705 25.9301C22.3129 25.8202 22.2318 25.7391 22.1271 25.6868C22.0224 25.6292 21.8994 25.6004 21.7581 25.6004C21.622 25.6004 21.4964 25.6161 21.3812 25.6475C21.2661 25.6737 21.1535 25.7129 21.0436 25.7653C20.9389 25.8176 20.8316 25.8778 20.7217 25.9459V29H19.7482ZM26.1216 29.0393C25.6663 29.0393 25.3025 28.9764 25.0303 28.8508C24.7634 28.7252 24.5697 28.508 24.4493 28.1992C24.3289 27.8851 24.2687 27.4507 24.2687 26.8959C24.2687 26.3306 24.3263 25.8935 24.4415 25.5847C24.5566 25.2706 24.7477 25.0508 25.0146 24.9252C25.2815 24.7996 25.6427 24.7368 26.0981 24.7368C26.5011 24.7368 26.823 24.7786 27.0638 24.8624C27.3098 24.9409 27.4878 25.0848 27.5977 25.2942C27.7128 25.4983 27.7704 25.7888 27.7704 26.1657C27.7704 26.4326 27.7181 26.6472 27.6134 26.8095C27.5087 26.9665 27.3569 27.0791 27.158 27.1471C26.9643 27.2151 26.734 27.2492 26.4671 27.2492H25.2344C25.2449 27.5109 25.2789 27.7202 25.3365 27.8773C25.3993 28.0291 25.5092 28.139 25.6663 28.207C25.8285 28.2751 26.0641 28.3091 26.3729 28.3091H27.6448V28.8822C27.4302 28.9241 27.2025 28.9607 26.9617 28.9921C26.7262 29.0236 26.4461 29.0393 26.1216 29.0393ZM25.2266 26.6603H26.3729C26.5561 26.6603 26.6895 26.6263 26.7733 26.5583C26.8623 26.485 26.9068 26.3541 26.9068 26.1657C26.9068 25.9825 26.8806 25.8386 26.8282 25.7339C26.7759 25.6292 26.6895 25.5559 26.5692 25.514C26.4488 25.4669 26.2917 25.4434 26.0981 25.4434C25.8782 25.4434 25.7055 25.4774 25.5799 25.5454C25.4543 25.6135 25.3627 25.7365 25.3051 25.9144C25.2528 26.0872 25.2266 26.3358 25.2266 26.6603ZM34.2067 30.4682C33.9764 30.4682 33.754 30.4263 33.5394 30.3426C33.33 30.2588 33.152 30.128 33.0055 29.95C32.8642 29.7773 32.783 29.5548 32.7621 29.2826H33.4373C33.4844 29.4554 33.5786 29.5784 33.7199 29.6517C33.8613 29.7249 34.0104 29.7616 34.1675 29.7616C34.246 29.7616 34.3245 29.7537 34.403 29.738C34.4868 29.7223 34.56 29.7066 34.6228 29.6909V30.4132C34.5548 30.4237 34.4868 30.4342 34.4187 30.4446C34.3507 30.4603 34.28 30.4682 34.2067 30.4682ZM32.9191 29.0471C32.5318 29.0471 32.1916 29.0105 31.8985 28.9372C31.6106 28.8587 31.3672 28.72 31.1683 28.5211C30.9746 28.3169 30.8281 28.0212 30.7286 27.6339C30.6344 27.2465 30.5873 26.7414 30.5873 26.1186C30.5873 25.4905 30.637 24.9828 30.7365 24.5954C30.8359 24.2029 30.9825 23.9045 31.1761 23.7004C31.375 23.491 31.6184 23.3471 31.9063 23.2686C32.1994 23.1901 32.537 23.1508 32.9191 23.1508C33.3117 23.1508 33.6545 23.1901 33.9476 23.2686C34.2408 23.3471 34.4841 23.491 34.6778 23.7004C34.8715 23.9045 35.0154 24.2029 35.1096 24.5954C35.2091 24.9828 35.2588 25.4905 35.2588 26.1186C35.2588 26.7414 35.2091 27.2465 35.1096 27.6339C35.0154 28.0212 34.8689 28.3169 34.67 28.5211C34.4763 28.72 34.2329 28.8587 33.9398 28.9372C33.6519 29.0105 33.3117 29.0471 32.9191 29.0471ZM32.9191 28.1756C33.1756 28.1756 33.3902 28.1494 33.5629 28.0971C33.7409 28.0395 33.8822 27.9401 33.9869 27.7988C34.0916 27.6522 34.1675 27.4454 34.2146 27.1785C34.2617 26.9063 34.2852 26.553 34.2852 26.1186C34.2852 25.658 34.2591 25.2916 34.2067 25.0194C34.1596 24.742 34.0837 24.5326 33.979 24.3913C33.8744 24.2447 33.7357 24.1479 33.5629 24.1008C33.3902 24.0485 33.1756 24.0223 32.9191 24.0223C32.6783 24.0223 32.4716 24.0485 32.2989 24.1008C32.1261 24.1479 31.9848 24.2447 31.8749 24.3913C31.7702 24.5326 31.6917 24.742 31.6394 25.0194C31.587 25.2916 31.5608 25.658 31.5608 26.1186C31.5608 26.553 31.5818 26.9063 31.6237 27.1785C31.6708 27.4454 31.7467 27.6522 31.8513 27.7988C31.956 27.9401 32.0947 28.0395 32.2675 28.0971C32.4454 28.1494 32.6626 28.1756 32.9191 28.1756ZM36.1956 29V23.2058H38.5509C38.7655 23.2058 38.9671 23.2319 39.1555 23.2843C39.3492 23.3314 39.5193 23.4204 39.6658 23.5512C39.8176 23.6821 39.9354 23.8653 40.0191 24.1008C40.1081 24.3311 40.1526 24.6321 40.1526 25.0037C40.1526 25.2916 40.1238 25.5324 40.0662 25.726C40.0087 25.9144 39.9328 26.0689 39.8385 26.1892C39.7443 26.3096 39.637 26.4038 39.5166 26.4719C39.4015 26.5347 39.2863 26.587 39.1712 26.6289L40.2861 29H39.3047L38.2997 26.7702C38.2264 26.7702 38.1401 26.7702 38.0406 26.7702C37.9464 26.7702 37.8469 26.7702 37.7423 26.7702C37.6376 26.765 37.5355 26.7624 37.4361 26.7624C37.3366 26.7572 37.245 26.7545 37.1613 26.7545V29H36.1956ZM37.1613 25.993H38.3861C38.5012 25.993 38.6059 25.9799 38.7001 25.9537C38.7943 25.9223 38.8781 25.87 38.9514 25.7967C39.0246 25.7234 39.0796 25.6239 39.1162 25.4983C39.1581 25.3727 39.179 25.2104 39.179 25.0116C39.179 24.8179 39.1581 24.6609 39.1162 24.5405C39.0796 24.4149 39.0246 24.3206 38.9514 24.2578C38.8781 24.1898 38.7917 24.1427 38.6923 24.1165C38.598 24.0903 38.496 24.0772 38.3861 24.0772H37.1613V25.993ZM44.6815 29.0471C44.4303 29.0471 44.1973 29.0157 43.9827 28.9529C43.7734 28.8848 43.5902 28.7723 43.4331 28.6153C43.2761 28.453 43.1531 28.2332 43.0641 27.9558C42.9804 27.6784 42.9385 27.3303 42.9385 26.9116C42.9385 26.4824 42.9778 26.1264 43.0563 25.8438C43.14 25.5611 43.2578 25.3387 43.4096 25.1764C43.5614 25.0142 43.7446 24.9016 43.9592 24.8388C44.179 24.7708 44.4276 24.7368 44.7051 24.7368C44.9406 24.7368 45.1787 24.7498 45.4195 24.776C45.6603 24.7969 45.9011 24.8388 46.1418 24.9016V25.4591H44.9956C44.7443 25.4591 44.5402 25.4983 44.3832 25.5768C44.2261 25.6554 44.1084 25.7993 44.0298 26.0087C43.9513 26.218 43.9121 26.519 43.9121 26.9116C43.9121 27.2989 43.9513 27.5946 44.0298 27.7988C44.1084 27.9977 44.2261 28.1337 44.3832 28.207C44.5454 28.2751 44.7522 28.3091 45.0034 28.3091H46.2046V28.8587C46.079 28.8953 45.9325 28.9293 45.765 28.9607C45.5975 28.9869 45.4195 29.0079 45.2311 29.0236C45.0479 29.0393 44.8647 29.0471 44.6815 29.0471ZM48.6796 29.0393C48.3499 29.0393 48.0646 29.0052 47.8239 28.9372C47.5831 28.8691 47.3868 28.754 47.235 28.5917C47.0832 28.4295 46.9707 28.2096 46.8974 27.9322C46.8241 27.6548 46.7875 27.3067 46.7875 26.888C46.7875 26.4536 46.8241 26.0976 46.8974 25.8202C46.9707 25.5376 47.0832 25.3178 47.235 25.1607C47.392 24.9985 47.5909 24.8885 47.8317 24.831C48.0725 24.7682 48.3551 24.7368 48.6796 24.7368C49.0146 24.7368 49.3025 24.7708 49.5433 24.8388C49.7841 24.9016 49.9803 25.0116 50.1321 25.1686C50.2839 25.3256 50.3965 25.5454 50.4697 25.8281C50.543 26.1055 50.5796 26.4588 50.5796 26.888C50.5796 27.312 50.543 27.6653 50.4697 27.9479C50.4017 28.2253 50.2918 28.4452 50.14 28.6074C49.9882 28.7645 49.7919 28.877 49.5511 28.945C49.3104 29.0079 49.0199 29.0393 48.6796 29.0393ZM48.6796 28.262C48.8419 28.262 48.9806 28.2489 49.0958 28.2227C49.2109 28.1913 49.3051 28.1311 49.3784 28.0421C49.4569 27.9479 49.5145 27.8092 49.5511 27.626C49.5878 27.4376 49.6061 27.189 49.6061 26.8802C49.6061 26.5766 49.5878 26.3332 49.5511 26.15C49.5145 25.9668 49.4569 25.8307 49.3784 25.7417C49.3051 25.6475 49.2109 25.5873 49.0958 25.5611C48.9806 25.5297 48.8419 25.514 48.6796 25.514C48.5226 25.514 48.3865 25.5297 48.2714 25.5611C48.1562 25.5873 48.062 25.6475 47.9887 25.7417C47.9154 25.8307 47.8579 25.9668 47.816 26.15C47.7794 26.3332 47.761 26.5766 47.761 26.8802C47.761 27.189 47.7794 27.4376 47.816 27.626C47.8579 27.8092 47.9154 27.9479 47.9887 28.0421C48.062 28.1311 48.1562 28.1913 48.2714 28.2227C48.3865 28.2489 48.5226 28.262 48.6796 28.262ZM52.8186 29.0471C52.4889 29.0471 52.2114 28.9764 51.9864 28.8351C51.7613 28.6886 51.5912 28.4609 51.476 28.1521C51.3661 27.838 51.3112 27.4324 51.3112 26.9351C51.3112 26.4117 51.3609 25.9903 51.4603 25.6711C51.5598 25.3465 51.7247 25.111 51.955 24.9644C52.1905 24.8127 52.5046 24.7368 52.8971 24.7368C53.1065 24.7368 53.3132 24.7577 53.5174 24.7996C53.7215 24.8414 53.8995 24.8912 54.0513 24.9487V23.0095H55.0248V29H54.2161L54.0513 28.5917C53.9675 28.6702 53.855 28.7435 53.7137 28.8116C53.5776 28.8796 53.431 28.9372 53.274 28.9843C53.1222 29.0262 52.9704 29.0471 52.8186 29.0471ZM53.1484 28.262C53.3368 28.262 53.5069 28.2332 53.6587 28.1756C53.8105 28.1128 53.9413 28.05 54.0513 27.9872V25.6475C53.9204 25.6004 53.7869 25.5585 53.6508 25.5219C53.5148 25.4852 53.3656 25.4669 53.2033 25.4669C52.9835 25.4669 52.8055 25.5088 52.6694 25.5925C52.5333 25.6711 52.4339 25.8124 52.3711 26.0165C52.3135 26.2206 52.2847 26.5111 52.2847 26.888C52.2847 27.2387 52.3135 27.5161 52.3711 27.7202C52.4287 27.9191 52.5203 28.0605 52.6459 28.1442C52.7767 28.2227 52.9442 28.262 53.1484 28.262ZM57.7184 29.0393C57.2631 29.0393 56.8993 28.9764 56.6271 28.8508C56.3602 28.7252 56.1665 28.508 56.0461 28.1992C55.9257 27.8851 55.8655 27.4507 55.8655 26.8959C55.8655 26.3306 55.9231 25.8935 56.0383 25.5847C56.1534 25.2706 56.3445 25.0508 56.6114 24.9252C56.8783 24.7996 57.2395 24.7368 57.6949 24.7368C58.0979 24.7368 58.4198 24.7786 58.6606 24.8624C58.9066 24.9409 59.0845 25.0848 59.1945 25.2942C59.3096 25.4983 59.3672 25.7888 59.3672 26.1657C59.3672 26.4326 59.3149 26.6472 59.2102 26.8095C59.1055 26.9665 58.9537 27.0791 58.7548 27.1471C58.5611 27.2151 58.3308 27.2492 58.0639 27.2492H56.8312C56.8417 27.5109 56.8757 27.7202 56.9333 27.8773C56.9961 28.0291 57.106 28.139 57.2631 28.207C57.4253 28.2751 57.6608 28.3091 57.9697 28.3091H59.2416V28.8822C59.027 28.9241 58.7993 28.9607 58.5585 28.9921C58.323 29.0236 58.0429 29.0393 57.7184 29.0393ZM56.8234 26.6603H57.9697C58.1529 26.6603 58.2863 26.6263 58.3701 26.5583C58.4591 26.485 58.5036 26.3541 58.5036 26.1657C58.5036 25.9825 58.4774 25.8386 58.425 25.7339C58.3727 25.6292 58.2863 25.5559 58.1659 25.514C58.0456 25.4669 57.8885 25.4434 57.6949 25.4434C57.475 25.4434 57.3023 25.4774 57.1767 25.5454C57.0511 25.6135 56.9595 25.7365 56.9019 25.9144C56.8495 26.0872 56.8234 26.3358 56.8234 26.6603Z" fill="white"/>
</svg>
