<svg width="42" height="42" viewBox="0 0 42 42" fill="none" xmlns="http://www.w3.org/2000/svg">
<rect x="13.2852" y="13.2854" width="6.93603" height="6.93603" rx="2.19032" fill="#B9CDE3"/>
<rect x="13.2852" y="22.0464" width="6.93603" height="6.93603" rx="2.19032" fill="#B9CDE3"/>
<rect x="22.0476" y="22.0464" width="6.93603" height="6.93603" rx="2.19032" fill="#B9CDE3"/>
<rect x="22.0476" y="13.2737" width="6.93603" height="6.93603" rx="2.19032" fill="#B9CDE3"/>
<path d="M16.9363 10.0002H15.111C12.2884 10.0002 10.0002 12.2884 10.0002 15.111V16.9363" stroke="#B9CDE3" stroke-width="1.3099"/>
<path d="M25.3323 32.2683L27.1576 32.2683C29.9801 32.2683 32.2683 29.9801 32.2683 27.1576L32.2683 25.3323" stroke="#B9CDE3" stroke-width="1.3099"/>
<path d="M10 25.3323L10 27.1576C10 29.9801 12.2882 32.2683 15.1108 32.2683L16.936 32.2683" stroke="#B9CDE3" stroke-width="1.3099"/>
<path d="M32.2683 16.936L32.2683 15.1108C32.2683 12.2882 29.9801 10 27.1576 10L25.3323 10" stroke="#B9CDE3" stroke-width="1.3099"/>
<rect x="0.5" y="0.5" width="41" height="41" rx="9.5" stroke="#2E3F52"/>
</svg>
