<svg width="44" height="17" viewBox="0 0 44 17" fill="none" xmlns="http://www.w3.org/2000/svg">
<path d="M14.2399 6.04711C14.0985 6.04711 13.9468 6.04187 13.7845 6.03141C13.6275 6.02617 13.4652 6.0157 13.2977 6C13.1355 5.97906 12.981 5.96074 12.8345 5.94504C12.6879 5.9241 12.5571 5.90055 12.4419 5.87438V5.11281C12.5885 5.12327 12.7586 5.13374 12.9523 5.14421C13.1512 5.15468 13.3579 5.16253 13.5725 5.16776C13.7871 5.173 13.9939 5.17562 14.1928 5.17562C14.4021 5.17562 14.5879 5.1573 14.7502 5.12066C14.9125 5.07878 15.0381 5.00812 15.1271 4.90867C15.216 4.80922 15.2605 4.6679 15.2605 4.4847V4.20991C15.2605 4.00578 15.203 3.84875 15.0878 3.73883C14.9727 3.62891 14.8025 3.57395 14.5775 3.57395H14.0357C13.5071 3.57395 13.0988 3.4588 12.8109 3.2285C12.5283 2.99819 12.387 2.60301 12.387 2.04296V1.74461C12.387 1.18455 12.5414 0.781516 12.8502 0.53551C13.1642 0.284269 13.6118 0.158648 14.1928 0.158648C14.3917 0.158648 14.5958 0.169117 14.8052 0.190054C15.0198 0.205756 15.2239 0.226693 15.4176 0.252864C15.6112 0.279034 15.7761 0.307823 15.9122 0.339228V1.1008C15.6819 1.0851 15.4176 1.0694 15.1192 1.05369C14.8261 1.03799 14.5539 1.03014 14.3027 1.03014C14.1038 1.03014 13.9284 1.05108 13.7766 1.09295C13.6249 1.13482 13.5097 1.21072 13.4312 1.32064C13.3527 1.42532 13.3134 1.58235 13.3134 1.79171V1.98015C13.3134 2.22615 13.3788 2.39888 13.5097 2.49833C13.6458 2.59778 13.8395 2.6475 14.0907 2.6475H14.6952C15.0355 2.6475 15.3155 2.71031 15.5353 2.83593C15.7552 2.96155 15.9174 3.13428 16.0221 3.35412C16.132 3.56872 16.187 3.81473 16.187 4.09214V4.46115C16.187 4.89035 16.1032 5.22011 15.9357 5.45041C15.7683 5.68071 15.5379 5.83774 15.2448 5.92149C14.9517 6.00523 14.6167 6.04711 14.2399 6.04711ZM17.0739 6V0.0173254H18.0474V2.23139C18.2149 2.10577 18.4243 1.99061 18.6755 1.88593C18.932 1.77601 19.1937 1.72105 19.4607 1.72105C19.7695 1.72105 20.0181 1.78386 20.2065 1.90948C20.4002 2.0351 20.5389 2.21045 20.6227 2.43552C20.7116 2.65536 20.7561 2.9066 20.7561 3.18924V6H19.7826V3.30701C19.7826 3.16045 19.7538 3.03483 19.6962 2.93015C19.6386 2.82023 19.5575 2.7391 19.4528 2.68676C19.3481 2.62918 19.2251 2.6004 19.0838 2.6004C18.9477 2.6004 18.8221 2.6161 18.7069 2.6475C18.5918 2.67367 18.4793 2.71293 18.3693 2.76527C18.2647 2.81761 18.1574 2.87781 18.0474 2.94585V6H17.0739ZM23.4866 6.03926C23.1568 6.03926 22.8716 6.00523 22.6308 5.93719C22.39 5.86915 22.1937 5.75399 22.042 5.59173C21.8902 5.42947 21.7776 5.20964 21.7044 4.93223C21.6311 4.65481 21.5944 4.30674 21.5944 3.88801C21.5944 3.45357 21.6311 3.09764 21.7044 2.82023C21.7776 2.53759 21.8902 2.31775 22.042 2.16072C22.199 1.99846 22.3979 1.88855 22.6387 1.83097C22.8794 1.76816 23.1621 1.73676 23.4866 1.73676C23.8216 1.73676 24.1095 1.77078 24.3502 1.83882C24.591 1.90163 24.7873 2.01155 24.9391 2.16858C25.0909 2.3256 25.2034 2.54544 25.2767 2.82808C25.35 3.1055 25.3866 3.4588 25.3866 3.88801C25.3866 4.31197 25.35 4.66528 25.2767 4.94793C25.2086 5.22534 25.0987 5.44518 24.9469 5.60744C24.7951 5.76446 24.5989 5.877 24.3581 5.94504C24.1173 6.00785 23.8268 6.03926 23.4866 6.03926ZM23.4866 5.26198C23.6489 5.26198 23.7876 5.24889 23.9027 5.22272C24.0179 5.19132 24.1121 5.13113 24.1854 5.04214C24.2639 4.94793 24.3214 4.80922 24.3581 4.62603C24.3947 4.4376 24.413 4.18897 24.413 3.88015C24.413 3.57657 24.3947 3.33318 24.3581 3.14999C24.3214 2.96679 24.2639 2.8307 24.1854 2.74172C24.1121 2.6475 24.0179 2.58731 23.9027 2.56114C23.7876 2.52973 23.6489 2.51403 23.4866 2.51403C23.3296 2.51403 23.1935 2.52973 23.0783 2.56114C22.9632 2.58731 22.869 2.6475 22.7957 2.74172C22.7224 2.8307 22.6648 2.96679 22.623 3.14999C22.5863 3.33318 22.568 3.57657 22.568 3.88015C22.568 4.18897 22.5863 4.4376 22.623 4.62603C22.6648 4.80922 22.7224 4.94793 22.7957 5.04214C22.869 5.13113 22.9632 5.19132 23.0783 5.22272C23.1935 5.24889 23.3296 5.26198 23.4866 5.26198ZM26.8912 6L25.7214 1.79171H26.7185L27.5115 5.0971L28.4222 1.79171H29.2388L30.1495 5.0971L30.8954 1.79171H31.8925L30.7384 6H29.6627L28.8148 3.14999L27.9433 6H26.8912ZM2.28894 15C1.98535 15 1.73673 14.9555 1.54306 14.8665C1.3494 14.7723 1.20808 14.6179 1.1191 14.4033C1.03535 14.1887 0.996092 13.9061 1.00133 13.5554L1.03273 11.5768H0.373224V10.9487L1.06414 10.7917L1.20546 9.61402H1.96703V10.7917H3.03481V11.5768H1.96703V13.5475C1.96703 13.6836 1.98012 13.7961 2.00629 13.8851C2.03246 13.9689 2.0691 14.0369 2.11621 14.0893C2.16855 14.1364 2.22351 14.1704 2.28108 14.1913C2.33866 14.2123 2.39885 14.2253 2.46166 14.2306L2.9877 14.2855V15H2.28894ZM3.74817 15V9.01733H4.72173V11.2314C4.88922 11.1058 5.09859 10.9906 5.34983 10.8859C5.60631 10.776 5.86801 10.7211 6.13496 10.7211C6.44378 10.7211 6.6924 10.7839 6.88083 10.9095C7.07449 11.0351 7.2132 11.2104 7.29695 11.4355C7.38593 11.6554 7.43042 11.9066 7.43042 12.1892V15H6.45686V12.307C6.45686 12.1605 6.42807 12.0348 6.3705 11.9301C6.31292 11.8202 6.23179 11.7391 6.12711 11.6868C6.02242 11.6292 5.89942 11.6004 5.7581 11.6004C5.62201 11.6004 5.49639 11.6161 5.38124 11.6475C5.26608 11.6737 5.15355 11.7129 5.04363 11.7653C4.93895 11.8176 4.83165 11.8778 4.72173 11.9459V15H3.74817ZM10.1216 15.0393C9.66625 15.0393 9.30248 14.9764 9.0303 14.8508C8.76336 14.7252 8.56969 14.508 8.44931 14.1992C8.32892 13.8851 8.26873 13.4507 8.26873 12.8959C8.26873 12.3306 8.3263 11.8935 8.44145 11.5847C8.55661 11.2706 8.74765 11.0508 9.0146 10.9252C9.28154 10.7996 9.6427 10.7368 10.0981 10.7368C10.5011 10.7368 10.823 10.7786 11.0638 10.8624C11.3098 10.9409 11.4878 11.0848 11.5977 11.2942C11.7128 11.4983 11.7704 11.7888 11.7704 12.1657C11.7704 12.4326 11.7181 12.6472 11.6134 12.8095C11.5087 12.9665 11.3569 13.0791 11.158 13.1471C10.9643 13.2151 10.734 13.2492 10.4671 13.2492H9.23443C9.2449 13.5109 9.27892 13.7202 9.3365 13.8773C9.39931 14.0291 9.50923 14.139 9.66625 14.207C9.82851 14.2751 10.0641 14.3091 10.3729 14.3091H11.6448V14.8822C11.4302 14.9241 11.2025 14.9607 10.9617 14.9921C10.7262 15.0236 10.4461 15.0393 10.1216 15.0393ZM9.22658 12.6603H10.3729C10.5561 12.6603 10.6895 12.6263 10.7733 12.5583C10.8623 12.485 10.9068 12.3541 10.9068 12.1657C10.9068 11.9825 10.8806 11.8386 10.8282 11.7339C10.7759 11.6292 10.6895 11.5559 10.5692 11.514C10.4488 11.4669 10.2917 11.4434 10.0981 11.4434C9.87824 11.4434 9.70551 11.4774 9.57989 11.5454C9.45427 11.6135 9.36267 11.7365 9.3051 11.9144C9.25275 12.0872 9.22658 12.3358 9.22658 12.6603ZM18.2067 16.4682C17.9764 16.4682 17.754 16.4263 17.5394 16.3426C17.33 16.2588 17.152 16.128 17.0055 15.95C16.8642 15.7773 16.783 15.5548 16.7621 15.2826H17.4373C17.4844 15.4554 17.5786 15.5784 17.7199 15.6517C17.8613 15.7249 18.0104 15.7616 18.1675 15.7616C18.246 15.7616 18.3245 15.7537 18.403 15.738C18.4868 15.7223 18.56 15.7066 18.6228 15.6909V16.4132C18.5548 16.4237 18.4868 16.4342 18.4187 16.4446C18.3507 16.4603 18.28 16.4682 18.2067 16.4682ZM16.9191 15.0471C16.5318 15.0471 16.1916 15.0105 15.8985 14.9372C15.6106 14.8587 15.3672 14.72 15.1683 14.5211C14.9746 14.3169 14.8281 14.0212 14.7286 13.6339C14.6344 13.2465 14.5873 12.7414 14.5873 12.1186C14.5873 11.4905 14.637 10.9828 14.7365 10.5954C14.8359 10.2029 14.9825 9.90452 15.1761 9.70039C15.375 9.49102 15.6184 9.34708 15.9063 9.26857C16.1994 9.19005 16.537 9.1508 16.9191 9.1508C17.3117 9.1508 17.6545 9.19005 17.9476 9.26857C18.2408 9.34708 18.4841 9.49102 18.6778 9.70039C18.8715 9.90452 19.0154 10.2029 19.1096 10.5954C19.2091 10.9828 19.2588 11.4905 19.2588 12.1186C19.2588 12.7414 19.2091 13.2465 19.1096 13.6339C19.0154 14.0212 18.8689 14.3169 18.67 14.5211C18.4763 14.72 18.2329 14.8587 17.9398 14.9372C17.6519 15.0105 17.3117 15.0471 16.9191 15.0471ZM16.9191 14.1756C17.1756 14.1756 17.3902 14.1494 17.5629 14.0971C17.7409 14.0395 17.8822 13.9401 17.9869 13.7988C18.0916 13.6522 18.1675 13.4454 18.2146 13.1785C18.2617 12.9063 18.2852 12.553 18.2852 12.1186C18.2852 11.658 18.2591 11.2916 18.2067 11.0194C18.1596 10.742 18.0837 10.5326 17.979 10.3913C17.8744 10.2447 17.7357 10.1479 17.5629 10.1008C17.3902 10.0485 17.1756 10.0223 16.9191 10.0223C16.6783 10.0223 16.4716 10.0485 16.2989 10.1008C16.1261 10.1479 15.9848 10.2447 15.8749 10.3913C15.7702 10.5326 15.6917 10.742 15.6394 11.0194C15.587 11.2916 15.5608 11.658 15.5608 12.1186C15.5608 12.553 15.5818 12.9063 15.6237 13.1785C15.6708 13.4454 15.7467 13.6522 15.8513 13.7988C15.956 13.9401 16.0947 14.0395 16.2675 14.0971C16.4454 14.1494 16.6626 14.1756 16.9191 14.1756ZM20.1956 15V9.20576H22.5509C22.7655 9.20576 22.9671 9.23193 23.1555 9.28427C23.3492 9.33138 23.5193 9.42036 23.6658 9.55121C23.8176 9.68207 23.9354 9.86526 24.0191 10.1008C24.1081 10.3311 24.1526 10.6321 24.1526 11.0037C24.1526 11.2916 24.1238 11.5324 24.0662 11.726C24.0087 11.9144 23.9328 12.0689 23.8385 12.1892C23.7443 12.3096 23.637 12.4038 23.5166 12.4719C23.4015 12.5347 23.2863 12.587 23.1712 12.6289L24.2861 15H23.3047L22.2997 12.7702C22.2264 12.7702 22.1401 12.7702 22.0406 12.7702C21.9464 12.7702 21.8469 12.7702 21.7423 12.7702C21.6376 12.765 21.5355 12.7624 21.4361 12.7624C21.3366 12.7572 21.245 12.7545 21.1613 12.7545V15H20.1956ZM21.1613 11.993H22.3861C22.5012 11.993 22.6059 11.9799 22.7001 11.9537C22.7943 11.9223 22.8781 11.87 22.9514 11.7967C23.0246 11.7234 23.0796 11.6239 23.1162 11.4983C23.1581 11.3727 23.179 11.2104 23.179 11.0116C23.179 10.8179 23.1581 10.6609 23.1162 10.5405C23.0796 10.4149 23.0246 10.3206 22.9514 10.2578C22.8781 10.1898 22.7917 10.1427 22.6923 10.1165C22.598 10.0903 22.496 10.0772 22.3861 10.0772H21.1613V11.993ZM28.6815 15.0471C28.4303 15.0471 28.1973 15.0157 27.9827 14.9529C27.7734 14.8848 27.5902 14.7723 27.4331 14.6153C27.2761 14.453 27.1531 14.2332 27.0641 13.9558C26.9804 13.6784 26.9385 13.3303 26.9385 12.9116C26.9385 12.4824 26.9778 12.1264 27.0563 11.8438C27.14 11.5611 27.2578 11.3387 27.4096 11.1764C27.5614 11.0142 27.7446 10.9016 27.9592 10.8388C28.179 10.7708 28.4276 10.7368 28.7051 10.7368C28.9406 10.7368 29.1787 10.7498 29.4195 10.776C29.6603 10.7969 29.9011 10.8388 30.1418 10.9016V11.4591H28.9956C28.7443 11.4591 28.5402 11.4983 28.3832 11.5768C28.2261 11.6554 28.1084 11.7993 28.0298 12.0087C27.9513 12.218 27.9121 12.519 27.9121 12.9116C27.9121 13.2989 27.9513 13.5946 28.0298 13.7988C28.1084 13.9977 28.2261 14.1337 28.3832 14.207C28.5454 14.2751 28.7522 14.3091 29.0034 14.3091H30.2046V14.8587C30.079 14.8953 29.9325 14.9293 29.765 14.9607C29.5975 14.9869 29.4195 15.0079 29.2311 15.0236C29.0479 15.0393 28.8647 15.0471 28.6815 15.0471ZM32.6796 15.0393C32.3499 15.0393 32.0646 15.0052 31.8239 14.9372C31.5831 14.8691 31.3868 14.754 31.235 14.5917C31.0832 14.4295 30.9707 14.2096 30.8974 13.9322C30.8241 13.6548 30.7875 13.3067 30.7875 12.888C30.7875 12.4536 30.8241 12.0976 30.8974 11.8202C30.9707 11.5376 31.0832 11.3178 31.235 11.1607C31.392 10.9985 31.5909 10.8885 31.8317 10.831C32.0725 10.7682 32.3551 10.7368 32.6796 10.7368C33.0146 10.7368 33.3025 10.7708 33.5433 10.8388C33.7841 10.9016 33.9803 11.0116 34.1321 11.1686C34.2839 11.3256 34.3965 11.5454 34.4697 11.8281C34.543 12.1055 34.5796 12.4588 34.5796 12.888C34.5796 13.312 34.543 13.6653 34.4697 13.9479C34.4017 14.2253 34.2918 14.4452 34.14 14.6074C33.9882 14.7645 33.7919 14.877 33.5511 14.945C33.3104 15.0079 33.0199 15.0393 32.6796 15.0393ZM32.6796 14.262C32.8419 14.262 32.9806 14.2489 33.0958 14.2227C33.2109 14.1913 33.3051 14.1311 33.3784 14.0421C33.4569 13.9479 33.5145 13.8092 33.5511 13.626C33.5878 13.4376 33.6061 13.189 33.6061 12.8802C33.6061 12.5766 33.5878 12.3332 33.5511 12.15C33.5145 11.9668 33.4569 11.8307 33.3784 11.7417C33.3051 11.6475 33.2109 11.5873 33.0958 11.5611C32.9806 11.5297 32.8419 11.514 32.6796 11.514C32.5226 11.514 32.3865 11.5297 32.2714 11.5611C32.1562 11.5873 32.062 11.6475 31.9887 11.7417C31.9154 11.8307 31.8579 11.9668 31.816 12.15C31.7794 12.3332 31.761 12.5766 31.761 12.8802C31.761 13.189 31.7794 13.4376 31.816 13.626C31.8579 13.8092 31.9154 13.9479 31.9887 14.0421C32.062 14.1311 32.1562 14.1913 32.2714 14.2227C32.3865 14.2489 32.5226 14.262 32.6796 14.262ZM36.8186 15.0471C36.4889 15.0471 36.2114 14.9764 35.9864 14.8351C35.7613 14.6886 35.5912 14.4609 35.476 14.1521C35.3661 13.838 35.3112 13.4324 35.3112 12.9351C35.3112 12.4117 35.3609 11.9903 35.4603 11.6711C35.5598 11.3465 35.7247 11.111 35.955 10.9644C36.1905 10.8127 36.5046 10.7368 36.8971 10.7368C37.1065 10.7368 37.3132 10.7577 37.5174 10.7996C37.7215 10.8414 37.8995 10.8912 38.0513 10.9487V9.00947H39.0248V15H38.2161L38.0513 14.5917C37.9675 14.6702 37.855 14.7435 37.7137 14.8116C37.5776 14.8796 37.431 14.9372 37.274 14.9843C37.1222 15.0262 36.9704 15.0471 36.8186 15.0471ZM37.1484 14.262C37.3368 14.262 37.5069 14.2332 37.6587 14.1756C37.8105 14.1128 37.9413 14.05 38.0513 13.9872V11.6475C37.9204 11.6004 37.7869 11.5585 37.6508 11.5219C37.5148 11.4852 37.3656 11.4669 37.2033 11.4669C36.9835 11.4669 36.8055 11.5088 36.6694 11.5925C36.5333 11.6711 36.4339 11.8124 36.3711 12.0165C36.3135 12.2206 36.2847 12.5111 36.2847 12.888C36.2847 13.2387 36.3135 13.5161 36.3711 13.7202C36.4287 13.9191 36.5203 14.0605 36.6459 14.1442C36.7767 14.2227 36.9442 14.262 37.1484 14.262ZM41.7184 15.0393C41.2631 15.0393 40.8993 14.9764 40.6271 14.8508C40.3602 14.7252 40.1665 14.508 40.0461 14.1992C39.9257 13.8851 39.8655 13.4507 39.8655 12.8959C39.8655 12.3306 39.9231 11.8935 40.0383 11.5847C40.1534 11.2706 40.3445 11.0508 40.6114 10.9252C40.8783 10.7996 41.2395 10.7368 41.6949 10.7368C42.0979 10.7368 42.4198 10.7786 42.6606 10.8624C42.9066 10.9409 43.0845 11.0848 43.1945 11.2942C43.3096 11.4983 43.3672 11.7888 43.3672 12.1657C43.3672 12.4326 43.3149 12.6472 43.2102 12.8095C43.1055 12.9665 42.9537 13.0791 42.7548 13.1471C42.5611 13.2151 42.3308 13.2492 42.0639 13.2492H40.8312C40.8417 13.5109 40.8757 13.7202 40.9333 13.8773C40.9961 14.0291 41.106 14.139 41.2631 14.207C41.4253 14.2751 41.6608 14.3091 41.9697 14.3091H43.2416V14.8822C43.027 14.9241 42.7993 14.9607 42.5585 14.9921C42.323 15.0236 42.0429 15.0393 41.7184 15.0393ZM40.8234 12.6603H41.9697C42.1529 12.6603 42.2863 12.6263 42.3701 12.5583C42.4591 12.485 42.5036 12.3541 42.5036 12.1657C42.5036 11.9825 42.4774 11.8386 42.425 11.7339C42.3727 11.6292 42.2863 11.5559 42.1659 11.514C42.0456 11.4669 41.8885 11.4434 41.6949 11.4434C41.475 11.4434 41.3023 11.4774 41.1767 11.5454C41.0511 11.6135 40.9595 11.7365 40.9019 11.9144C40.8495 12.0872 40.8234 12.3358 40.8234 12.6603Z" fill="white"/>
</svg>
