<svg version="1" xmlns="http://www.w3.org/2000/svg" width="473.333" height="473.333" viewBox="0 0 355.000000 355.000000"><path d="M1.7 58.6c-.3.4-.2 1.4.3 2.4s.7 2 .4 2.3c-.9.8-.8 10.2 0 11.5.4.7.2 1.2-.3 1.2-1.2 0-1 2.2.3 3.1.4.4.4 1.5-.2 2.5-.6 1.1-.7 2.7-.1 4.1.5 1.4.5 2.3-.1 2.3-1.1 0-.9 2.2.2 3.1.4.3.4 1.9-.1 3.7-.5 1.8-.6 3.2-.2 3.2.4 0 .8.7.8 1.5s-.4 1.5-.9 1.5-.4.8.1 1.8.6 2.4.1 3.2c-.4.7-.4 2.4.1 3.7.6 1.6.5 2.3-.4 2.3-.8 0-.7.4.3 1 1.2.8 1.2 1 .1 1-1 0-1.1.3-.3 1.3.6.7.7 1.8.2 2.7-.4.7-.4 2.4.1 3.7.6 1.6.5 2.3-.4 2.3-.8 0-.7.4.3 1 1.2.8 1.2 1 .1 1-1 0-1.1.3-.2 1.4.7.9.8 1.7.3 2-.6.3-.7 2-.2 4 .4 1.8.3 4.1-.2 5-.6 1-.5 1.6.2 1.6.6 0 .8.5.4 1.2-1 1.6-1.2 5.8-.3 5.8.9 0 .6 2.1-.4 3.7-.5.8-.3 1.3.3 1.3s.8.5.4 1.2c-1 1.6-1.2 5.8-.3 5.8.9 0 .6 2.1-.4 3.7-.5.8-.3 1.3.4 1.3.9 0 1 .3.2 1.1-.6.6-.8 2.3-.3 4.3.4 1.9.3 4.1-.2 5-.6 1-.5 1.6.2 1.6.6 0 .8.5.3 1.2-1.1 1.9-1.2 3.7-.2 4.4.6.3.5 1.1-.2 2-.9 1.1-.8 1.4.2 1.4 1.2 0 1.2.2 0 .9-.9.6-1 1.1-.2 1.5.6.4.8 1.3.4 1.9-1.1 1.8-1.2 3.6-.2 4.3.5.3.6 1.1.2 1.7-1.1 1.7-1 3.1 0 3.8.6.4.6 1.3.1 2C1.2 203 1 205 2 205c.8 0 .5 4.3-.5 5.9-.3.6-.1 1.1.5 1.1.7 0 .8.6.1 1.7-.5 1-.5 2.6 0 4 .6 1.6.5 2.3-.4 2.3-.8 0-.7.4.3 1 1.2.8 1.2 1 .1 1-1 0-1.1.3-.3 1.3.6.7.7 1.8.2 2.7-.4.7-.4 2.4.1 3.7 1.1 3.1 1.1 3.6-.1 2.8-.6-.4-.7.2-.1 1.7.4 1.3.5 3.5 0 5-.4 1.6-.4 2.8 0 2.8.9 0 .8 3.1-.3 4.8-.4.6-.3 1.2.3 1.2.7 0 .7.8.1 2.5-.5 1.4-.6 2.5-.1 2.5.9 0 .8 3.1-.3 4.8-.4.6-.3 1.2.2 1.2 1 0 .9 3-.2 4.8-.4.6-.2 1.2.3 1.2 1.3 0 1 2.2-.4 3.2-.7.5-.7.8 0 .8 1.1 0 1.2 5 .1 6.8-.4.7-.3 1.2.2 1.2s.9.7.9 1.5-.3 1.5-.7 1.5c-.4 0-.7.7-.7 1.5s.4 1.5.9 1.5.5 1.2.1 2.7c-.7 2.8-.7 4 0 7.8.4 2 1.3 2 172.8 2.2 94.8.1 173.4 0 174.5-.2l2.2-.5V176.5l.1-118.5H177.1C81 58 2 58.3 1.7 58.6zm26.7 21.6c-.5.9-.2.9.9-.1 1.3-1 1.7-1 1.7-.1 0 1 .3 1 1.4.1 1-.9 1.6-.9 2.1-.1.4.7 1.1.7 1.8.2 1.8-1.3 5.7-1.2 5.7.1 0 .9.2.9.8 0 .8-1.2 3.6-1.2 4.8 0 .4.3 1.2.3 1.8-.1 1.9-1.2 7.6-1.1 7.6.1 0 .8.3.8.8.2 1.1-1.5 6.5-1.6 7.4-.2.4.6.8.7.8.2 0-1.5 7-1.7 7-.2 0 .8.3.8.8.2 1-1.4 15.5-1.5 16.4-.1.5.7.8.7.8.1 0-1.2 10.4-1.4 11.6-.3.4.4 1.2.4 1.8 0 1.8-1.1 8.6-.9 8.6.2 0 .7.3.8.8.1 1.1-1.5 6.5-1.6 7.4-.2.4.7.8.7.8.2 0-1.2 7.4-1.4 8.6-.3.4.4 1.2.4 1.8.1 1.7-1.1 3.5-1.2 4.2-.2.3.5 1.1.6 1.7.2 1.9-1.2 11.7-1.1 11.7.1 0 .8.3.8.8.1 1-1.4 19.5-1.5 20.4-.1.5.8.8.8.8 0 0-.6 2.6-1 6.5-1 4-.1 6.2.3 5.8.9-.4.6-.1.7.8.1 2-1.3 11.1-1.3 12.8 0 1 .7 1.3.7.8 0-.4-.7 1.6-1.1 6.3-1.1 4.3 0 6.7.4 6.3 1-.4.6-.1.7.8.1 1.9-1.2 21-1.3 20.2-.1-.4.6-.1.7.8.1 1.9-1.2 14.1-1.4 15.6-.2.7.5 1.4.5 1.7-.1.7-1.1 2.5-.9 4.5.3.9.6 1.2.5.8-.1-.4-.6.4-1.1 1.8-1.1s2.5.6 2.5 1.2c0 .7.3.8.8.1.9-1.4 4.5-1.4 5.4 0 .5.6.8.6.8 0s1.8-1 3.9-1.1c2.3 0 3.7.4 3.4 1-.4.5-.1.6.8 0 2.1-1.2 5.9-1.3 5.9 0 0 .7.3.8.8.1.9-1.4 12.5-1.4 13.4-.1.5.7.8.7.8-.1 0-1.3 2.6-1.3 4.7 0 .6.4 1.4.3 1.8-.3.7-1.1 3.3-.9 5.4.4.9.6 1.2.5.8-.1-.9-1.4 8.5-1.2 9.5.2.5.6.8.6.8-.1 0-1.3 4.8-1.3 6.9 0 1.1.7 1.2.6.6-.5-.7-1.1-.6-1.2.7-.2 1.3 1.2 1.5 11.9 1.4 96.3-.1 82.6-.3 95.2-1.6 96-.9.6-1.7.5-2.1-.2-.4-.7-.9-.7-1.3.1-.5.8-1.3.8-2.7.1-1-.6-1.9-.7-1.9-.2 0 1-5.1 1-6.7-.1-.7-.5-1.3-.4-1.3.1 0 1-15.5 1-16.6 0-.4-.4-1.2-.4-1.8 0-1.8 1.1-9.6.9-9.6-.2 0-.7-.3-.8-.8-.1-1 1.4-5.2 1.5-5.2.2 0-.8-.4-.7-1.1 0-.8.8-2 .8-3.4.3-1.3-.5-2.6-.6-2.9-.2-1.2 1.1-5.6.9-5.6-.2 0-.7-.3-.7-.8-.1-1 1.4-7.2 1.4-7.2.1 0-.8-.3-.8-.8-.1-.4.6-2 1.1-3.7 1.1-1.6 0-3.3-.5-3.7-1.1-.5-.7-.8-.7-.8 0 0 .6-3.9 1-9.9 1-5.9 0-9.7-.3-9.4-.9.4-.5.1-.6-.7-.1-2 1.2-12.1 1.5-11.4.3.4-.6 0-.7-1.2-.1-2.3 1.1-12.4 1.1-14.1 0-.7-.5-1.3-.4-1.3 0 0 .5-4.1.9-9 .9-5-.1-9-.5-9-1 0-.4-.6-.4-1.3.1-.6.6-3.2.9-5.7.7-5.7-.5-6-.5-9 0-1.4.2-3.3-.1-4.2-.6-1.1-.5-1.8-.5-1.8 0 0 1.1-5 1-6.7-.1-.7-.5-1.3-.4-1.3.1 0 1-15.6 1-16.6 0-.4-.4-1.2-.4-1.8 0-1.8 1.1-9.6.9-9.6-.2 0-.7-.3-.8-.8-.1-.9 1.3-5.2 1.5-5.2.3 0-.5-.5-.6-1.2-.2-1.8 1.2-5.8 1.1-5.8-.1 0-.7-.3-.7-.8 0-.8 1.2-4.1 1.3-5.9.2-.6-.4-1.4-.4-1.7.1-.6 1-12.2 1-13.2 0-.4-.4-1.2-.4-1.8-.1-1.8 1.2-5.6 1.1-5.6-.1 0-.7-.3-.8-.8-.1-.9 1.4-4.5 1.4-5.4 0-.5-.6-.8-.6-.8 0s-2 1-4.5 1.1c-2.5 0-4.5-.4-4.5-.9s-.8-.3-1.7.4c-1.4 1.2-1.6 1.2-.8 0 .6-1.1.5-1.2-.6-.5-1.9 1.1-5.8 1.3-6.5.2-.3-.4-1.1-.5-1.7-.1-1.9 1.2-14.7 1-14.7-.2 0-.6-.3-.7-.8 0-1 1.4-5.2 1.5-5.2.2 0-.7-.4-.7-1.2.1-.8.8-1.5.9-2.5.1-1-.9-1.3-.8-1.3.1s-.4.9-1.3.2c-.9-.8-1.2-9.3-1.2-37.5 0-20.1.3-36.8.7-37.2.4-.4.3-1.7-.1-2.9-.9-2.7-.8-10.7.2-12.4.5-.6.5-1.2 0-1.2-.4 0-.8-22.3-.8-49.5s.3-49.5.8-49.5c.4 0 .6-.4.3-.9-.4-.5 0-1.2.6-1.4 1.9-.8 2-.8 1.2.5z"/><path d="M296.6 103.8c-.2.2-2.6.5-5.2.7-2.7.3-5 .9-5.2 1.4-.2.5-1.2.7-2.2.4-1.2-.3-2 0-2 .6 0 .7-.4 1-.9.6-.5-.3-1.2-.1-1.6.5-.4.6-1 .8-1.5.5-.5-.3-1.1-.1-1.5.5-.4.6-1.1.8-1.6.5-.5-.4-.9-.1-.9.4 0 .6-.3 1-.7 1-1.3-.3-7.3 2.5-7.3 3.3 0 .4-.7.8-1.5.8s-1.5.4-1.5 1c0 .5-.4 1-1 1-3.4 0-20.7 18.6-22.6 24.2-.4 1-1.1 1.8-1.6 1.8s-.6.4-.3 1c.3.5.2 1-.3 1s-1.2.8-1.5 1.7c-.3 1-1.5 4.3-2.6 7.3s-2.3 6.6-2.5 8c-.2 1.4-.5 2.5-.7 2.5-.1 0-.8 3.4-1.1 6.2-.1.7-.4 1.3-.8 1.3s-.6 1.1-.5 2.5c.2 1.4-.1 2.5-.6 2.5-.6 0-.8.4-.5.9.3.5-.1 3.2-1 6-.8 2.8-1.4 5.4-1.4 5.7.1.4-.4 1-1.2 1.5-.7.4-1.3 1.4-1.3 2.1 0 2.5-3.9 7.8-6.7 9.1-3 1.5-7.8 1.2-7.8-.5 0-.5-.4-.7-.8-.4-1.2.7-4.4-3.3-3.7-4.4.4-.6.2-1-.2-1-1.1 0-6.6-10-5.6-10 .5 0 0-.5-.9-1.1-.9-.5-1.5-1.6-1.2-2.3.3-.7-.4-3-1.5-5-1.2-2-2.1-4.3-2.1-5.1 0-.8-.4-1.5-1-1.5-.5 0-.9-.3-.9-.8.1-.4 0-1-.1-1.5-.1-.4-.3-1-.5-1.5-.2-1-1.4-3.9-3.6-9.1-1.1-2.4-1.9-5-1.9-5.7 0-.8-.5-1.4-1.1-1.4-.5 0-.7-.5-.4-1 .3-.6.1-1-.5-1-.7 0-1-.7-.6-1.5.3-.8.1-1.5-.4-1.5-.6 0-1-.7-1-1.5s-.5-1.5-1.1-1.5c-.5 0-.7-.5-.4-1 .3-.6.1-1-.5-1s-.8-.5-.5-1c.3-.6.1-1-.4-1-.6 0-1.1-.7-1.1-1.5s-.9-2-2-2.7c-1.1-.7-2-1.8-2-2.5 0-.6-.9-1.5-2-1.8-1.1-.3-2-1.1-2-1.6 0-.6-1.3-1.5-3-2-1.6-.6-3-1.5-3-2.1 0-.5-.4-.6-1-.3-.5.3-1 .2-1-.3 0-1.4-13.1-3.5-17.5-2.9-7.3 1.1-10.5 1.9-10.5 2.8 0 .5-.7.9-1.5.9-.9 0-2.7 1.1-4.1 2.5-1.3 1.3-2.5 2.4-2.7 2.3-.1-.1-1.5 1-3.1 2.5s-2.5 2.7-2.1 2.7c.4 0-.2.9-1.5 2-2.1 1.8-4.2 2.9-2.8 1.4.4-.3-.1-1.4-1-2.3-.9-1-3-3.4-4.7-5.4-1.6-2-3.6-3.7-4.3-3.7-.7 0-1-.4-.7-1 .3-.5-1.4-2.3-3.7-4.1-2.4-1.7-4.2-3.4-4.1-3.8.1-.4-.4-.8-1.1-.8-.7 0-3.3-1.4-5.9-3.1-2.5-1.8-5.2-3.2-5.9-3.2-.7 0-2.2-.7-3.2-1.5s-2.3-1.2-2.7-.9c-.5.3-.9 0-.9-.7s-.3-.9-.7-.6c-.3.4-1.2.2-2-.4-.7-.6-1.3-.9-1.3-.5 0 .3-1.2.1-2.7-.5-4.3-1.6-17.1-2-18-.6-.4.7-.8 5.8-.8 11.4-.1 9.7.2 10.8 2.8 10.4.4 0 .7.3.7.8s1.3.8 3 .7c1.6-.1 3 0 3 .3s1 .7 2.3.7c1.3.1 4.5 1.2 7.2 2.5 2.8 1.3 5.3 2.3 5.6 2.3 2.4.3 16.9 14.1 16.9 16.3 0 .7.7 1.6 1.5 1.9.9.4 1.4 1.1 1.3 1.8-.1.6.6 2.3 1.6 3.8s1.5 3.2 1.1 3.8c-.3.5-.2 1 .4 1 .5 0 .8.9.6 2-.2 1.1 0 2 .6 2 .5 0 .9.5.9 1.1 0 .5-.6.7-1.2.3-1-.6-1-.4-.2.7 1.5 1.9 1.7 12.2.2 11.3-.7-.5-.8-.1-.1 1.1 1.1 1.9-.3 7.3-2.2 8.7-.5.4-.6.8-.2.8 1 0-4.1 9.2-5.7 10.2-.6.4-.8.8-.4.8s-.9 1.7-2.9 3.7c-2 2.1-4 3.7-4.5 3.5-.4-.1-.8.4-.8 1-.1 1.5-9 7.3-10.7 6.9-.7-.1-1.3.2-1.3.7 0 1.1-8.2 3.5-12.2 3.6-1.4.1-2.9.4-3.3.8-.4.4-1.3.4-2.1.1-1.6-.6-1.6-.3-1.8 10.2 0 3.8-.5 7.6-.9 8.3-.5.7-.3 1.4.7 1.8.8.3 1.3 1.4 1.1 2.5-.3 1.6-.1 1.8 1.7.8 1.6-.9 2.3-.8 2.9.2.5.9.9 1 .9.3s1.4-1.1 3.5-.8c1.9.1 3.5-.1 3.5-.7 0-.5.5-.9 1.1-.9.5 0 .8.4.4 1-.3.5.7.3 2.2-.5 1.5-.8 3.7-1.5 4.9-1.5 1.1 0 2.4-.3 2.8-.8.4-.4 1.1-.7 1.4-.8.4 0 2.1-.7 3.7-1.4 1.7-.7 3.4-1.4 3.8-1.4.4-.1 1.2-.8 1.7-1.6s1-1.1 1-.6c0 .5.7.3 1.5-.4s1.5-.9 1.5-.6c0 .4 1.1-.5 2.5-2s2.5-2.3 2.5-1.8c0 .5.7 0 1.5-1 .8-1.1 1.5-1.6 1.5-1.2 0 .9 10.2-9.3 14.3-14.2 1.5-1.9 2.5-3.8 2.1-4.3-.3-.5.3-.9 1.2-.9 1 0 1.5-.3 1.2-.6-.4-.3.6-3.1 2.2-6.2s2.4-5.9 1.9-6c-.5-.2.1-1.2 1.3-2.3 1.5-1.1 1.8-1.8.9-1.9-1 0-1.1-.3-.2-1.3.6-.8.8-1.7.4-2-.3-.4-.2-.7.4-.7.6 0 .9-1.4.8-3-.1-1.7.1-3 .5-3 .3 0 .7-.6.7-1.3.1-3 1.5-10.2 2.1-10.7.4-.3.7-1.6.7-3s.9-3.6 2-4.9c1.3-1.6 1.5-2.2.5-1.7-1.3.7-1.3.6 0-.6.8-.7 1.6-1.9 1.8-2.6.1-.7 1.1-2.3 2.2-3.5 1.1-1.1 2-2.5 2-2.9 0-.5.4-.7.9-.4.5.3 1.1 0 1.4-.8.8-2 7.8-3.5 10.2-2.2 2.7 1.5 5.3 4.4 6 6.7.4 1.1 1 1.9 1.5 1.9.4 0 1 1 1.3 2.2 1.1 4.7 6.4 18.7 7.6 20.2 1 1.2 1 1.6.2 1.6s-.7.6.3 1.6c1.9 1.9 2.1 2.8.4 1.8-.7-.4-.5.2.5 1.3.9 1.1 1.4 2.3 1 2.6-.3.4-.1.7.6.7.8 0 1.1.7.7 1.5-.3.8-.1 1.5.5 1.5s.9.7.5 1.5c-.3.8.1 2.1.9 2.9.8.7 1.1 1.6.8 2-.4.3-.2.6.3.6s1 1 1.1 2.2c.1 1.1.8 2.5 1.5 2.9.7.4.9 1.1.6 1.5-.4.3-.2 1.1.3 1.8.5.6 2.4 3.3 4.2 6.1 3.1 4.8 6.7 9.1 6.7 8 0-.3 1 .3 2.2 1.5 1.2 1.1 2.6 2 3 2 .5 0 .7.4.4.8-.2.4.4.9 1.5 1 4.2.4 4.9.6 4.9 1.2 0 .9 20 .5 22.5-.4 1.1-.4 2.8-1.2 3.8-1.7 1.1-.6 2.1-.8 2.4-.6.5.6 3-1.3 7.6-5.8 1.7-1.7 3.4-2.9 3.9-2.8.4.2.7 0 .7-.5-.3-2 .2-3.2 1.6-3.2.8 0 1.5.4 1.5 1 0 .5.7 1 1.5 1s1.5.4 1.5 1c0 .5.1 1.3.2 1.7.4 1.3 12.3 13 12.9 12.7.3-.2 1.7.8 3.1 2.1 1.4 1.3 2.9 2.1 3.2 1.8.3-.4.6-.1.6.6s.5.9 1 .6c.6-.3 1-.2 1 .3 0 1 2.6 2.3 11.3 5.8 3.1 1.2 5.7 2 5.7 1.7 0-.3.6-.1 1.3.4.6.5 1.9.9 2.7.8.8 0 1.8.4 2.2.9.4.6 1.3.4 2.4-.5 1.5-1.2 1.6-1.2.9 0-.6 1.1-.3 1.3 1.3.9 1.2-.4 2.5-.2 2.8.3.4.6 1.1.6 1.8 0s1.6-.8 2-.3c2.2 2.2 4.4-13.5 2.3-16.5-.4-.6-.3-1.4.2-1.7 1.3-.8.2-3.8-1.8-5-.9-.6-2.9-1.1-4.6-1.3-5.7-.7-7.1-1.1-16.2-5.5-3.5-1.7-6-3.4-5.7-3.9.3-.5-.2-.6-1-.3-1.1.4-1.6 0-1.6-1.2 0-.9-.2-1.5-.5-1.2-.6.6-6.5-4.9-6.5-5.9 0-.3-.8-1.2-1.7-2-1.1-.9-1.2-1.2-.3-.7.8.4.5-.3-.7-1.5-1.3-1.2-2.3-2.8-2.3-3.6 0-.8-.4-1.5-.9-1.5s-1.2-1.2-1.6-2.8c-.5-1.5-1-3.4-1.2-4.2-1.9-6.5-2.4-16.2-1.1-20.3 2.7-8.4 5.8-15.2 6.8-14.9.6.1.9-.2.6-.7-.4-.5 0-1.5.7-2.3.8-.7 1.9-2.4 2.6-3.6.7-1.2 1.6-2 2.2-1.7.5.4.9.1.9-.5s.7-1.8 1.5-2.6c.8-.9 1.5-1.2 1.5-.9 0 .4.9-.3 2.1-1.6 1.1-1.3 1.8-1.7 1.4-.9-.5 1.1-.3 1 .7-.2 2.6-3.1 13.8-7.5 19.6-7.7 1.6-.1 2.1-.5 1.6-1.4-.6-.9-.5-.9.7 0 2.3 1.9 2.8 1.9 4.1 0 .9-1.2 1.3-4.9 1.2-11.6-.1-9.7-.7-12.7-2.5-11.6-.5.4-.9.2-.9-.2 0-.8-3.7-1.2-4.4-.5z"/></svg>