<?xml version="1.0" standalone="no"?>
<!DOCTYPE svg PUBLIC "-//W3C//DTD SVG 20010904//EN"
 "http://www.w3.org/TR/2001/REC-SVG-20010904/DTD/svg10.dtd">
<svg version="1.0" xmlns="http://www.w3.org/2000/svg"
 width="856.000000pt" height="856.000000pt" viewBox="0 0 856.000000 856.000000"
 preserveAspectRatio="xMidYMid meet">
<metadata>
Created by potrace 1.14, written by Peter Selinger 2001-2017
</metadata>
<g transform="translate(0.000000,856.000000) scale(0.100000,-0.100000)"
fill="#000000" stroke="none">
<path d="M10 7715 c0 -3 37 -52 83 -109 45 -56 93 -118 107 -136 14 -18 30
-38 35 -44 6 -6 32 -39 58 -73 26 -34 53 -68 60 -75 6 -7 34 -42 62 -78 27
-36 57 -74 67 -85 9 -11 49 -60 88 -110 91 -115 90 -115 120 -151 14 -17 37
-46 52 -65 133 -171 434 -546 442 -551 6 -4 9 -8 6 -9 -3 -1 -270 -3 -595 -4
-324 -2 -591 -3 -593 -4 -2 0 3 -7 10 -14 7 -8 27 -31 43 -52 17 -21 35 -43
40 -49 6 -6 22 -27 35 -46 13 -19 27 -37 30 -40 7 -6 163 -200 200 -250 14
-18 30 -38 36 -44 6 -6 26 -32 46 -57 19 -26 40 -53 47 -60 23 -28 46 -57 71
-89 14 -19 43 -56 66 -84 23 -28 114 -143 203 -256 90 -113 170 -214 179 -225
10 -11 42 -52 72 -90 30 -39 57 -72 60 -75 3 -3 21 -25 40 -50 19 -25 37 -47
40 -50 3 -3 21 -25 40 -50 19 -25 40 -52 47 -60 65 -81 193 -243 213 -269 14
-18 30 -38 36 -44 6 -7 27 -34 47 -60 20 -26 42 -54 49 -61 7 -8 20 -24 28
-36 8 -12 21 -28 28 -36 7 -7 29 -35 49 -61 20 -26 43 -54 51 -62 7 -8 31 -37
52 -65 29 -40 453 -574 513 -646 6 -8 45 -57 86 -109 41 -52 80 -102 87 -110
7 -9 63 -79 124 -156 61 -77 119 -151 130 -163 11 -13 41 -51 68 -85 26 -34
49 -64 52 -67 3 -3 30 -36 59 -75 30 -38 59 -74 65 -80 6 -5 24 -28 40 -50 17
-22 32 -42 35 -45 4 -3 25 -30 48 -60 23 -30 50 -64 60 -75 10 -12 34 -41 53
-65 19 -25 38 -49 42 -55 149 -187 167 -209 238 -300 30 -39 57 -72 60 -75 3
-3 39 -47 80 -99 40 -52 79 -102 86 -110 23 -27 348 -436 374 -470 14 -18 30
-38 35 -44 6 -7 26 -33 45 -59 33 -45 50 -58 50 -40 0 5 9 19 19 31 22 25 49
59 150 186 39 50 77 97 84 105 6 8 46 58 87 110 41 52 77 97 80 100 3 3 17 21
30 40 14 19 32 42 40 50 9 9 29 34 45 55 17 22 35 45 40 51 6 6 22 26 37 45
51 66 209 264 222 280 7 8 46 58 87 110 41 52 82 103 91 114 9 11 72 90 139
175 339 427 401 506 508 640 64 80 121 152 128 160 7 8 69 87 139 175 69 88
133 169 143 180 9 11 68 85 131 165 63 80 117 147 120 150 3 3 48 59 99 125
52 66 98 122 103 123 4 2 8 8 8 14 0 5 6 15 13 22 6 7 26 30 42 50 17 21 37
46 45 57 8 10 26 33 40 50 14 18 48 61 75 94 28 34 61 77 75 95 14 18 30 38
35 44 6 6 26 31 45 56 49 63 56 71 183 230 7 8 54 69 106 135 52 66 97 122
100 125 3 3 21 25 40 50 19 25 41 52 48 60 7 8 37 45 65 82 108 136 193 242
206 254 6 7 12 15 12 19 0 3 34 47 75 98 41 51 79 97 83 102 96 122 167 211
172 215 3 3 17 21 30 40 13 19 29 40 35 45 6 6 36 42 66 80 29 39 61 78 70 88
9 10 30 37 46 60 l31 42 -589 0 c-324 0 -589 3 -589 7 0 3 6 13 12 20 11 10
107 130 140 173 4 6 24 30 44 55 41 52 37 47 134 170 41 52 77 97 80 100 3 3
17 21 32 42 15 20 34 42 41 50 7 7 26 31 42 53 42 56 48 64 66 83 8 9 30 37
49 62 19 25 41 52 49 61 9 9 25 29 36 44 18 25 168 216 213 270 23 28 75 93
166 208 l77 97 -4276 0 c-2351 0 -4275 -2 -4275 -5z m855 -395 c3 4 17 6 32 4
16 -2 42 -5 58 -7 17 -2 39 -1 50 3 10 4 36 3 57 0 21 -4 40 -4 43 0 3 4 18 6
35 4 16 -2 42 -6 58 -7 15 -2 36 -1 47 3 10 4 36 3 57 0 21 -4 40 -4 43 0 3 4
18 6 35 4 16 -2 42 -6 58 -7 15 -2 36 -1 47 3 10 4 36 3 57 0 21 -4 40 -4 43
0 3 4 17 6 32 4 16 -2 42 -5 58 -7 17 -2 39 -1 50 3 10 4 36 3 57 0 21 -4 40
-4 43 0 3 4 18 6 35 4 16 -2 42 -6 58 -7 15 -2 36 -1 47 3 10 4 36 3 57 0 21
-4 40 -4 43 0 3 4 18 6 35 4 16 -2 42 -6 58 -7 15 -2 36 -1 47 3 10 4 36 3 57
0 21 -4 40 -4 43 0 3 4 19 5 37 3 18 -3 50 -4 71 -4 39 1 55 1 85 1 9 -1 40
-1 67 -1 28 0 55 0 60 0 6 0 19 0 30 1 17 1 129 1 175 1 8 -1 44 -1 80 0 36 0
72 0 80 0 8 -1 44 -1 80 0 36 0 72 0 80 0 8 -1 44 -1 80 0 36 0 72 0 80 0 8
-1 44 -1 80 0 36 0 72 0 80 0 8 -1 44 -1 80 0 36 0 72 0 80 0 8 -1 44 -1 80 0
36 0 71 0 78 -1 12 0 65 0 135 0 22 0 43 -2 47 -5 5 -3 11 -1 14 4 3 4 19 7
36 5 16 -2 42 -6 58 -7 15 -2 36 -1 47 3 10 4 36 3 57 0 21 -4 40 -4 43 0 3 4
19 6 37 3 18 -2 44 -5 58 -7 14 -1 34 0 45 4 10 4 36 3 57 0 21 -4 40 -4 43 0
3 4 18 6 35 4 16 -2 42 -6 58 -7 15 -2 36 -1 47 3 10 4 36 3 57 0 21 -4 40 -4
43 0 3 4 18 6 35 4 16 -2 42 -6 58 -7 15 -2 36 -1 47 3 10 4 36 3 57 0 21 -4
40 -4 43 0 3 4 19 6 37 3 18 -2 44 -5 58 -7 14 -1 34 0 45 4 10 4 36 3 57 0
21 -4 40 -4 43 0 3 4 18 6 35 4 16 -2 42 -6 58 -7 15 -2 36 -1 47 3 10 4 36 3
57 0 21 -4 40 -4 43 0 3 4 17 6 32 4 16 -2 42 -5 58 -7 17 -2 39 -1 50 3 10 4
36 3 57 0 21 -4 40 -4 43 0 3 4 18 6 35 4 16 -2 42 -6 58 -7 15 -2 36 -1 47 3
10 4 36 3 57 0 21 -4 40 -4 43 0 3 4 17 6 32 4 16 -2 42 -5 58 -7 17 -2 39 -1
50 3 10 4 36 3 57 0 21 -4 40 -4 43 0 3 4 19 5 37 3 18 -3 50 -4 71 -4 39 1
55 1 85 1 9 -1 40 -1 67 -1 28 0 55 0 60 0 6 0 19 0 30 1 17 1 129 1 175 1 8
-1 44 -1 80 0 36 0 72 0 80 0 8 -1 44 -1 80 0 36 0 72 0 80 0 8 -1 44 -1 80 0
36 0 72 0 80 0 8 -1 44 -1 80 0 36 0 72 0 80 0 8 -1 44 -1 80 0 36 0 72 0 80
0 8 -1 44 -1 80 0 81 0 83 0 123 -3 17 -2 41 0 52 3 11 4 29 3 40 -1 11 -4 30
-4 41 1 26 9 38 1 21 -16 -7 -6 -23 -27 -37 -45 -14 -18 -30 -38 -35 -44 -6
-6 -34 -40 -63 -76 -28 -36 -58 -72 -65 -80 -7 -8 -44 -53 -82 -100 -38 -47
-72 -87 -75 -90 -3 -3 -32 -39 -65 -80 -33 -41 -69 -86 -81 -100 -12 -14 -49
-59 -83 -100 -34 -41 -71 -87 -84 -101 -12 -14 -35 -43 -52 -64 -16 -22 -42
-53 -56 -70 -14 -16 -34 -41 -45 -53 -10 -13 -31 -38 -46 -55 -15 -18 -28 -36
-28 -40 0 -4 -57 -7 -126 -6 -69 0 -128 -1 -130 -4 -3 -3 -17 -2 -32 2 -15 4
-39 4 -54 0 -16 -4 -28 -4 -28 1 0 4 -12 5 -27 1 -16 -4 -39 -5 -53 -1 -14 4
-35 4 -48 1 -12 -3 -81 -4 -152 -1 -71 3 -145 2 -164 -1 -19 -3 -40 -2 -47 1
-6 4 -22 5 -35 1 -13 -3 -82 -4 -153 -1 -72 3 -141 2 -153 -1 -13 -3 -34 -2
-48 1 -14 4 -37 3 -52 -1 -16 -4 -28 -4 -28 1 0 4 -12 5 -27 1 -16 -4 -39 -5
-53 -1 -14 4 -35 4 -48 1 -12 -3 -81 -4 -152 -1 -71 3 -145 2 -164 -1 -19 -3
-40 -2 -47 1 -6 4 -22 5 -35 1 -13 -3 -82 -4 -153 -1 -72 3 -141 2 -153 -1
-13 -3 -34 -2 -48 1 -14 4 -37 3 -52 -1 -16 -4 -28 -4 -28 1 0 4 -12 5 -27 1
-16 -4 -39 -5 -53 -1 -14 4 -35 4 -48 1 -12 -3 -81 -4 -152 -1 -71 3 -145 2
-164 -1 -19 -3 -40 -2 -47 1 -6 4 -22 5 -35 1 -13 -3 -82 -4 -153 -1 -72 3
-141 2 -153 -1 -13 -3 -34 -2 -48 1 -14 4 -37 3 -53 -1 -15 -4 -27 -4 -27 1 0
4 -12 5 -27 1 -16 -4 -39 -5 -53 -1 -14 4 -35 4 -48 1 -12 -3 -81 -4 -152 -1
-71 3 -145 2 -164 -1 -19 -3 -40 -2 -47 1 -6 4 -22 5 -35 1 -13 -3 -82 -4
-153 -1 -72 3 -141 2 -153 -1 -13 -3 -34 -3 -48 1 -14 4 -37 3 -52 -1 -16 -4
-28 -3 -28 1 0 5 -12 5 -27 1 -16 -4 -39 -5 -53 -1 -14 4 -36 4 -50 1 -14 -4
-45 -4 -70 -1 -25 3 -62 2 -82 -1 -20 -3 -42 -3 -48 1 -7 4 -23 5 -36 1 -13
-3 -64 -4 -113 -1 -49 3 -105 2 -125 -1 -19 -3 -40 -2 -47 1 -6 4 -22 5 -35 1
-13 -3 -64 -4 -113 -1 -49 3 -105 2 -125 -1 -19 -3 -40 -2 -47 2 -6 4 -23 4
-38 0 -52 -15 -82 5 -166 110 -44 56 -92 115 -106 131 -15 17 -31 35 -35 42
-22 27 -140 171 -144 176 -3 3 -41 50 -85 105 -44 55 -88 109 -98 120 -11 11
-57 68 -105 128 -47 59 -89 107 -94 107 -4 0 -8 4 -8 10 0 5 -30 46 -67 91
-65 77 -87 109 -66 96 5 -3 15 -2 21 2 7 4 33 5 58 1 24 -4 47 -4 49 0z m5510
-1360 c15 3 82 4 148 2 l119 -3 -21 -20 c-11 -11 -21 -23 -21 -27 0 -4 -10
-18 -23 -32 -12 -14 -48 -59 -79 -100 -32 -42 -66 -84 -75 -95 -10 -11 -32
-38 -48 -60 -17 -22 -34 -46 -40 -53 -5 -7 -20 -23 -32 -34 -13 -12 -23 -26
-23 -31 0 -4 -6 -14 -12 -22 -16 -16 -34 -38 -77 -95 -19 -25 -39 -49 -46 -55
-6 -5 -20 -23 -32 -40 -17 -25 -210 -270 -256 -325 -7 -8 -35 -44 -62 -80 -61
-80 -74 -96 -102 -128 -13 -14 -23 -28 -23 -31 0 -3 -10 -17 -23 -31 -12 -14
-90 -110 -172 -215 -82 -104 -154 -195 -160 -201 -5 -7 -19 -24 -30 -40 -11
-15 -31 -41 -45 -58 -31 -38 -37 -46 -100 -126 -28 -36 -57 -72 -65 -81 -7
-10 -37 -48 -66 -85 -30 -38 -58 -74 -64 -80 -5 -7 -39 -49 -75 -95 -55 -70
-168 -214 -213 -269 -7 -8 -34 -44 -62 -80 -27 -36 -52 -67 -55 -70 -3 -3 -37
-45 -75 -95 -38 -49 -74 -95 -80 -101 -5 -6 -21 -26 -35 -44 -14 -19 -33 -41
-42 -49 -10 -9 -18 -20 -18 -25 0 -15 -42 -56 -57 -56 -7 0 -13 4 -13 9 0 5
-6 16 -12 23 -7 7 -29 34 -48 58 -45 59 -42 55 -103 131 -28 36 -63 80 -77 98
-24 32 -188 240 -214 272 -7 8 -46 58 -87 110 -41 52 -79 101 -86 109 -7 8
-49 62 -95 120 -45 58 -87 110 -93 117 -5 6 -21 26 -35 44 -14 18 -29 37 -35
43 -5 6 -37 47 -70 90 -33 43 -64 84 -70 90 -6 6 -51 63 -100 126 -50 63 -95
122 -102 130 -7 8 -60 76 -118 150 -59 74 -119 151 -135 170 -52 65 -235 297
-335 426 -55 70 -108 136 -117 146 -10 10 -18 22 -18 27 0 5 -3 11 -8 13 -4 2
-23 23 -42 48 -19 25 -43 54 -52 65 -9 11 -48 61 -87 110 -40 50 -77 97 -84
105 -6 8 -45 57 -85 108 l-72 92 487 0 488 0 80 -102 c44 -57 87 -112 97 -123
9 -11 64 -81 122 -155 155 -197 200 -254 206 -260 3 -3 31 -39 62 -80 32 -42
65 -85 75 -96 15 -16 52 -63 95 -119 55 -71 145 -181 151 -183 4 -2 7 -8 7
-14 0 -5 6 -15 13 -23 18 -19 45 -53 83 -102 19 -24 39 -50 46 -57 7 -8 21
-25 32 -40 27 -37 292 -374 327 -415 16 -19 31 -32 33 -30 2 2 29 36 59 74 31
39 62 77 69 85 8 9 27 34 43 55 17 22 32 42 35 45 3 3 34 41 68 85 35 44 68
87 75 95 7 8 53 67 102 130 49 63 94 120 100 126 5 6 21 26 35 44 32 43 73 94
81 100 3 3 10 12 15 21 5 9 23 34 41 55 83 101 173 215 173 220 0 3 11 17 25
32 14 15 51 61 82 102 32 41 60 77 63 80 3 3 21 25 40 50 19 25 39 50 45 56 5
6 21 26 35 44 47 63 192 245 216 273 24 27 25 27 145 26 66 0 122 1 124 3 2 1
100 1 218 -2 118 -3 227 -3 242 0z m1455 -6 c0 -6 -112 -155 -132 -175 -8 -8
-25 -30 -38 -49 -13 -19 -27 -37 -30 -40 -3 -3 -41 -50 -83 -105 -43 -55 -83
-107 -90 -115 -7 -8 -50 -64 -97 -125 -46 -60 -87 -112 -90 -115 -3 -3 -50
-62 -104 -132 -53 -70 -103 -133 -109 -140 -7 -7 -24 -29 -37 -48 -13 -19 -27
-37 -30 -40 -5 -4 -129 -163 -152 -195 -4 -5 -20 -26 -36 -45 -16 -19 -78 -98
-137 -175 -60 -77 -113 -141 -117 -143 -4 -2 -8 -10 -8 -17 0 -7 -3 -15 -8
-17 -4 -1 -32 -34 -62 -73 -30 -38 -57 -72 -60 -75 -3 -3 -25 -32 -49 -65 -25
-33 -47 -62 -50 -65 -3 -3 -22 -25 -41 -50 -19 -25 -38 -46 -42 -48 -4 -2 -8
-10 -8 -17 0 -7 -4 -15 -8 -17 -5 -1 -48 -55 -97 -118 -48 -63 -94 -120 -101
-126 -8 -6 -14 -16 -14 -22 0 -6 -3 -12 -8 -14 -6 -3 -29 -31 -112 -139 -14
-18 -38 -50 -55 -70 -16 -20 -40 -50 -51 -66 -12 -15 -59 -76 -105 -135 -46
-58 -118 -150 -159 -203 -41 -53 -79 -102 -85 -109 -5 -6 -23 -29 -39 -51 -17
-22 -33 -42 -36 -45 -3 -3 -31 -39 -62 -80 -32 -41 -63 -82 -71 -90 -7 -8 -42
-53 -78 -100 -35 -47 -66 -87 -69 -90 -3 -3 -37 -45 -75 -95 -39 -49 -75 -97
-82 -105 -7 -8 -51 -64 -98 -125 -47 -60 -96 -123 -109 -140 -14 -16 -66 -84
-117 -150 -51 -66 -96 -121 -101 -123 -4 -2 -8 -10 -8 -17 0 -7 -4 -15 -8 -17
-5 -2 -48 -54 -96 -115 -48 -62 -91 -113 -96 -113 -4 0 -36 37 -71 83 -35 45
-69 89 -76 97 -7 8 -35 44 -63 80 -28 36 -61 79 -75 95 -13 17 -92 118 -175
225 -83 107 -158 204 -168 215 -10 11 -37 47 -62 80 -25 33 -47 62 -50 65 -3
3 -41 50 -83 105 -43 55 -83 107 -90 115 -7 8 -75 96 -152 195 -77 99 -150
191 -162 205 -13 14 -23 28 -23 32 0 3 -6 13 -13 20 -10 10 -89 110 -169 213
-4 6 -18 24 -31 40 -13 17 -68 86 -121 155 -53 69 -111 142 -129 164 -17 21
-36 46 -41 55 -5 9 -12 18 -15 21 -4 3 -34 41 -69 85 -34 44 -65 85 -70 90 -4
6 -57 73 -117 150 -60 77 -115 147 -122 155 -8 8 -66 83 -129 165 -63 83 -123
159 -132 170 -10 11 -46 58 -82 105 -36 47 -67 87 -70 90 -3 3 -21 25 -40 50
-19 25 -38 50 -43 55 -4 6 -29 37 -55 71 -70 90 -102 131 -155 198 -26 34 -55
71 -65 84 -9 12 -22 28 -27 35 -6 6 -42 53 -80 102 -38 50 -72 92 -75 95 -6 6
-49 62 -115 150 -27 36 -52 67 -55 70 -5 4 -32 39 -82 105 -5 6 -40 51 -79
100 -39 50 -78 99 -86 110 -9 11 -23 28 -31 38 -14 16 4 17 366 17 l381 0 75
-97 c42 -54 82 -105 89 -113 7 -8 44 -55 82 -105 38 -49 71 -92 74 -95 3 -3
22 -25 41 -50 19 -25 38 -46 42 -48 4 -2 8 -8 8 -13 0 -4 46 -67 103 -138 56
-71 145 -184 197 -251 52 -68 103 -132 112 -144 28 -34 32 -39 63 -81 17 -22
32 -42 35 -45 3 -3 68 -86 145 -185 76 -99 142 -182 145 -185 3 -3 18 -23 35
-45 16 -22 34 -45 40 -52 5 -6 75 -95 155 -198 80 -102 216 -277 303 -388 86
-111 166 -213 177 -227 10 -14 58 -74 105 -133 47 -59 85 -112 85 -116 0 -5 4
-11 8 -13 8 -3 151 -183 391 -493 47 -60 88 -112 91 -115 3 -3 25 -32 50 -65
25 -33 48 -62 51 -65 3 -3 25 -31 48 -63 24 -31 47 -57 51 -57 4 0 45 48 91
108 46 59 86 109 89 112 3 3 27 34 55 70 27 36 53 67 57 68 5 2 8 10 8 17 0 7
3 15 8 17 4 2 32 35 62 73 30 39 57 72 60 75 3 3 25 32 50 65 25 33 47 62 50
65 3 3 28 34 55 70 28 35 68 87 90 115 22 28 52 66 67 85 15 19 66 85 113 145
48 61 98 126 113 145 59 76 171 219 181 232 6 7 26 33 45 58 19 25 44 56 55
70 11 14 71 90 133 170 62 80 117 150 123 156 5 7 19 24 30 40 31 43 69 89 78
92 4 2 7 10 7 17 0 7 3 15 8 17 4 2 54 64 112 138 58 74 112 144 122 155 14
18 52 66 220 282 26 34 99 127 160 206 62 79 124 159 138 177 23 31 46 59 70
87 5 7 46 58 89 115 90 116 199 256 239 306 l26 32 134 -1 c73 0 135 1 137 3
5 5 475 -2 475 -8z m-2562 -89 c-7 -7 -24 -28 -38 -46 -35 -46 -236 -297 -265
-332 -6 -7 -53 -66 -105 -132 -51 -66 -96 -122 -100 -125 -3 -3 -22 -25 -41
-50 -68 -87 -194 -245 -199 -250 -3 -3 -21 -25 -40 -50 -19 -25 -37 -47 -40
-50 -3 -3 -29 -35 -59 -72 -29 -38 -56 -68 -61 -68 -8 0 -28 22 -77 86 -29 38
-115 146 -128 160 -5 7 -20 25 -32 40 -28 36 -129 162 -152 189 -9 11 -30 38
-46 60 -16 22 -37 47 -45 55 -9 8 -27 31 -40 50 -13 19 -29 40 -35 46 -20 22
-51 61 -124 153 -95 121 -103 131 -121 150 -8 9 -26 31 -38 48 -23 32 -32 44
-92 115 l-31 37 961 0 c814 0 959 -2 948 -14z"/>
</g>
</svg>
