<svg width="24" height="24" viewBox="0 0 24 24" fill="none" xmlns="http://www.w3.org/2000/svg">
<rect x="4.28516" y="4.01685" width="6.93618" height="6.93618" rx="2.19037" fill="#1C2835"/>
<rect x="4.28516" y="12.7783" width="6.93618" height="6.93618" rx="2.19037" fill="#1C2835"/>
<rect x="13.0488" y="12.7783" width="6.93618" height="6.93618" rx="2.19037" fill="#1C2835"/>
<rect x="13.0488" y="4.005" width="6.93618" height="6.93618" rx="2.19037" fill="#1C2835"/>
<path d="M7.93618 0.731689H6.11087C3.28822 0.731689 1 3.01991 1 5.84256V7.66787" stroke="#1C2835" stroke-width="1.30993"/>
<path d="M16.3324 23.0002L18.1577 23.0002C20.9803 23.0002 23.2686 20.712 23.2686 17.8894L23.2686 16.0641" stroke="#1C2835" stroke-width="1.30993"/>
<path d="M1 16.0641L1 17.8894C1 20.712 3.28822 23.0002 6.11087 23.0002L7.93618 23.0002" stroke="#1C2835" stroke-width="1.30993"/>
<path d="M23.2686 7.66762L23.2686 5.84232C23.2686 3.01966 20.9803 0.731446 18.1577 0.731446L16.3324 0.731446" stroke="#1C2835" stroke-width="1.30993"/>
</svg>
