<svg width="114" height="38" viewBox="0 0 114 38" fill="none" xmlns="http://www.w3.org/2000/svg">
<path d="M88.0018 30.4181C88.0018 29.7706 87.9999 29.1231 88.003 28.4755C88.003 28.3092 88.0799 28.1775 88.2216 28.0842C88.3056 28.0281 88.4047 27.9987 88.5059 28C89.2703 28.0012 90.0348 28.0012 90.7995 28C90.916 27.999 91.0318 28.0171 91.1423 28.0536C91.2321 28.084 91.3258 28.1074 91.4094 28.15C91.5198 28.2061 91.628 28.2696 91.7172 28.3581C91.7925 28.4329 91.8716 28.505 91.9381 28.587C91.9899 28.6511 92.0267 28.7276 92.067 28.8012C92.0987 28.8561 92.1259 28.9134 92.1484 28.9725C92.168 29.0253 92.1696 29.0837 92.1864 29.1377C92.2386 29.306 92.2124 29.4778 92.2099 29.648C92.2089 29.7154 92.1797 29.7826 92.1617 29.8496C92.1516 29.8886 92.1396 29.9254 92.1257 29.9622C92.1072 30.0146 92.0858 30.0659 92.0616 30.1159C92.0369 30.1616 92.0089 30.2054 91.9778 30.247C91.944 30.294 91.9048 30.337 91.8716 30.3846C91.8666 30.3922 91.8635 30.4008 91.8625 30.4098C91.8615 30.4188 91.8626 30.4279 91.8657 30.4364C91.9175 30.5092 91.9762 30.5772 92.0265 30.6507C92.0532 30.6952 92.0762 30.7418 92.0954 30.7899C92.113 30.8275 92.1306 30.8653 92.1455 30.9041C92.1604 30.9428 92.1715 30.9781 92.1817 31.0159C92.2177 31.1478 92.2171 31.283 92.2156 31.4182C92.2179 31.4652 92.2166 31.5123 92.2116 31.5592C92.1983 31.6361 92.1774 31.7121 92.1586 31.7881C92.1495 31.8291 92.1379 31.8696 92.124 31.9092C92.1067 31.9587 92.0853 32.0067 92.0602 32.0528C92.0271 32.1101 91.988 32.1638 91.9498 32.218C91.8647 32.3384 91.7671 32.449 91.6436 32.5297C91.5328 32.6036 91.4168 32.6693 91.2963 32.7262C91.2196 32.7619 91.1292 32.7673 91.0478 32.7944C90.9234 32.8357 90.7962 32.8197 90.6704 32.8201C89.945 32.8221 89.2195 32.8201 88.4941 32.8224C88.4189 32.8246 88.3442 32.8091 88.2762 32.777C88.2081 32.7449 88.1487 32.6972 88.1028 32.6378C88.037 32.5584 88.0011 32.4588 88.0012 32.3559C88.0023 31.71 88.0025 31.064 88.0018 30.4181ZM88.968 30.9091V30.9561C88.968 31.2385 88.968 31.521 88.9671 31.8033C88.9671 31.8502 88.9821 31.8648 89.0281 31.8648C89.6134 31.8637 90.1988 31.866 90.784 31.8609C90.862 31.8574 90.938 31.8361 91.0063 31.7986C91.066 31.7673 91.118 31.7233 91.1586 31.6697C91.1992 31.6161 91.2274 31.5542 91.2411 31.4885C91.2584 31.4189 91.2592 31.3463 91.2435 31.2763C91.2277 31.2064 91.1959 31.1411 91.1505 31.0854C91.0484 30.9594 90.9157 30.8984 90.7473 30.8996C90.1798 30.9035 89.6124 30.901 89.0449 30.9014C89.0192 30.9026 88.9935 30.9052 88.968 30.9091V30.9091ZM89.9178 28.9621H89.0479C88.9782 28.9621 88.968 28.9721 88.968 29.0401V29.8582C88.968 29.9213 88.9725 29.927 89.0371 29.9272C89.6141 29.9272 90.191 29.9272 90.768 29.9272C90.874 29.9305 90.9779 29.8968 91.0615 29.8317C91.1554 29.7567 91.2221 29.6599 91.2425 29.5432C91.2554 29.4799 91.255 29.4146 91.2412 29.3515C91.2274 29.2883 91.2006 29.2287 91.1625 29.1764C91.0646 29.0422 90.9333 28.9697 90.7735 28.9651C90.4888 28.9565 90.2035 28.9623 89.9178 28.9621Z" fill="white"/>
<path d="M107.974 30.4187C107.974 30.8096 107.977 31.2008 107.972 31.5919C107.972 31.6624 107.94 31.733 107.921 31.8031C107.912 31.84 107.901 31.8761 107.886 31.911C107.862 31.9653 107.834 32.0183 107.806 32.0709C107.787 32.1064 107.766 32.1407 107.743 32.1738C107.701 32.2347 107.664 32.301 107.612 32.3526C107.532 32.4327 107.446 32.5059 107.355 32.5714C107.257 32.6401 107.153 32.703 107.034 32.7352C106.94 32.7607 106.847 32.7889 106.753 32.8131C106.727 32.8185 106.701 32.8205 106.674 32.8191C106.008 32.8191 105.341 32.8213 104.674 32.8172C104.591 32.8172 104.507 32.7876 104.425 32.7667C104.364 32.7514 104.303 32.7311 104.245 32.7062C104.179 32.6767 104.114 32.6435 104.052 32.6068C103.916 32.5258 103.795 32.4214 103.696 32.2984C103.614 32.2054 103.548 32.0998 103.499 31.9858C103.474 31.9229 103.444 31.8619 103.421 31.7986C103.406 31.7581 103.395 31.716 103.389 31.6731C103.373 31.5828 103.363 31.4915 103.36 31.3998C103.358 30.7344 103.358 30.069 103.361 29.4036C103.361 29.3062 103.387 29.2068 103.408 29.11C103.422 29.0322 103.445 28.9563 103.477 28.8838C103.526 28.7801 103.584 28.6813 103.652 28.5889C103.722 28.4989 103.8 28.4162 103.887 28.3419C103.999 28.2443 104.127 28.1665 104.266 28.1121C104.369 28.0708 104.472 28.0341 104.584 28.025C104.671 28.0182 104.755 28.0022 104.84 28.002C105.424 28.0001 106.007 27.9987 106.591 28.0038C106.696 28.0038 106.802 28.0301 106.904 28.0554C106.997 28.0768 107.088 28.1088 107.173 28.1506C107.27 28.2017 107.362 28.2613 107.447 28.3285C107.515 28.3816 107.578 28.4409 107.635 28.5057C107.695 28.5696 107.747 28.639 107.793 28.713C107.832 28.7832 107.864 28.8566 107.889 28.9324C107.922 29.0122 107.948 29.0941 107.97 29.1776C107.983 29.2384 107.979 29.3036 107.979 29.3669C107.98 29.7176 107.98 30.0682 107.979 30.4188L107.974 30.4187ZM104.343 30.4155C104.343 30.7351 104.343 31.0548 104.343 31.3745C104.343 31.4597 104.353 31.5389 104.4 31.6163C104.496 31.7754 104.635 31.8617 104.817 31.8631C105.379 31.8668 105.942 31.8631 106.504 31.8654C106.629 31.8681 106.75 31.8256 106.846 31.7458C106.944 31.665 107.01 31.5606 107.01 31.4291C107.012 30.7525 107.01 30.0758 107.012 29.3993C107.01 29.3304 106.989 29.2634 106.95 29.206C106.854 29.0502 106.709 28.9662 106.529 28.9645C105.994 28.9594 105.46 28.9645 104.924 28.9618C104.795 28.9618 104.675 28.9742 104.561 29.0444C104.478 29.095 104.424 29.1651 104.379 29.2452C104.34 29.3126 104.343 29.3876 104.343 29.4614C104.343 29.7793 104.343 30.0974 104.343 30.4155Z" fill="white"/>
<path d="M102.505 28V28.9621H102.439C101.519 28.9621 100.599 28.9621 99.6797 28.9621C99.5873 28.9621 99.5063 28.997 99.4238 29.04C99.3357 29.0848 99.2868 29.1587 99.2371 29.2335C99.2148 29.2722 99.2024 29.3158 99.2009 29.3605C99.1958 29.4314 99.188 29.5062 99.2046 29.5736C99.2309 29.6754 99.2904 29.7657 99.3737 29.8303C99.4715 29.9096 99.5852 29.9277 99.7063 29.9277C100.19 29.9277 100.675 29.926 101.159 29.9277C101.268 29.9272 101.377 29.9354 101.484 29.9523C101.571 29.9669 101.653 30.0047 101.739 30.0302C101.862 30.0691 101.976 30.1305 102.077 30.2112C102.162 30.2755 102.241 30.3461 102.315 30.4223C102.366 30.4778 102.41 30.5388 102.446 30.6043C102.491 30.6794 102.527 30.7601 102.567 30.838C102.618 30.9391 102.635 31.0486 102.659 31.1579C102.685 31.2732 102.681 31.3862 102.677 31.4993C102.673 31.5806 102.646 31.6608 102.628 31.7411C102.618 31.7871 102.606 31.8327 102.592 31.8774C102.578 31.9132 102.562 31.948 102.543 31.9819C102.532 32.0064 102.521 32.0311 102.507 32.0545C102.475 32.1089 102.448 32.1679 102.409 32.215C102.329 32.3093 102.244 32.3999 102.155 32.4858C102.102 32.5344 102.044 32.5771 101.983 32.6134C101.914 32.6548 101.843 32.6921 101.77 32.7252C101.73 32.7413 101.688 32.754 101.646 32.763C101.581 32.7803 101.516 32.7994 101.45 32.8119C101.405 32.8192 101.359 32.8223 101.313 32.821C100.898 32.8221 100.482 32.8225 100.066 32.8222H98.2992V31.864H98.3718C99.311 31.864 100.25 31.8636 101.189 31.8626C101.261 31.8626 101.338 31.8562 101.402 31.8289C101.516 31.7797 101.614 31.7021 101.661 31.5792C101.68 31.5254 101.708 31.469 101.708 31.414C101.708 31.341 101.686 31.2668 101.667 31.1951C101.646 31.1199 101.595 31.0611 101.535 31.0124C101.46 30.951 101.377 30.9042 101.275 30.9037C101.143 30.9037 101.011 30.9013 100.879 30.9011C100.459 30.9011 100.038 30.9011 99.6175 30.8984C99.5396 30.8984 99.4621 30.8902 99.386 30.8739C99.3041 30.8545 99.2241 30.828 99.1469 30.7946C99.0633 30.7599 98.9821 30.7198 98.9039 30.6744C98.7811 30.6044 98.6724 30.5125 98.5832 30.4032C98.5158 30.3215 98.4536 30.2358 98.3969 30.1465C98.3538 30.076 98.3284 29.9951 98.2944 29.919C98.2425 29.8021 98.2357 29.676 98.2186 29.5531C98.2079 29.4793 98.2204 29.402 98.2239 29.3264C98.2253 29.2958 98.2315 29.2654 98.2343 29.2348C98.2441 29.1259 98.2789 29.0246 98.3174 28.9232C98.3728 28.7755 98.4547 28.6392 98.5593 28.5209C98.6325 28.4377 98.7138 28.3618 98.8019 28.2943C98.8897 28.2302 98.9831 28.174 99.0809 28.1264C99.1457 28.0939 99.2199 28.0799 99.2891 28.0559C99.4562 27.9979 99.6294 28 99.803 28C100.682 28.001 101.561 28.001 102.44 28H102.505Z" fill="white"/>
<path d="M97.5347 30.4155C97.5347 30.7351 97.5373 31.055 97.5334 31.3747C97.5322 31.4842 97.5214 31.5934 97.5013 31.7011C97.4866 31.7781 97.4528 31.8525 97.4209 31.9254C97.3835 32.0101 97.3491 32.0989 97.2954 32.1729C97.2232 32.2712 97.1418 32.3625 97.0524 32.4457C96.9733 32.5181 96.8871 32.5826 96.7951 32.6381C96.7256 32.678 96.6519 32.7101 96.5752 32.7336C96.4832 32.7651 96.3891 32.7906 96.2944 32.8131C96.2511 32.8205 96.207 32.8231 96.1631 32.8208C95.6578 32.8208 95.1524 32.8212 94.6471 32.8218C94.5281 32.8218 94.4089 32.8257 94.2902 32.8201C94.1964 32.8185 94.1031 32.807 94.0117 32.7858C93.8455 32.7418 93.688 32.6703 93.5457 32.5742C93.4075 32.4821 93.2862 32.367 93.187 32.2341C93.1083 32.1268 93.0445 32.0094 92.9974 31.885C92.9273 31.7045 92.9097 31.519 92.9103 31.3281C92.9125 30.7163 92.9103 30.1044 92.9113 29.4925C92.9084 29.4293 92.91 29.366 92.916 29.303C92.9281 29.2146 92.95 29.1277 92.9684 29.0402C92.9898 28.9379 93.0369 28.8466 93.0858 28.7554C93.1447 28.6492 93.217 28.551 93.3011 28.4632C93.4047 28.3529 93.5243 28.2586 93.656 28.1835C93.728 28.1422 93.8086 28.1153 93.8863 28.0843C94.0567 28.0162 94.2352 28 94.4179 28C94.9885 28.0023 95.5591 27.9984 96.1296 28.0037C96.2361 28.0037 96.3449 28.0294 96.448 28.0551C96.5423 28.0786 96.634 28.1112 96.7219 28.1525C96.7937 28.1862 96.8554 28.2404 96.9247 28.2803C97.0331 28.3426 97.1127 28.4362 97.1947 28.5256C97.2345 28.5737 97.2712 28.6243 97.3044 28.6771C97.3318 28.7132 97.3567 28.751 97.379 28.7903C97.4046 28.8414 97.4274 28.894 97.4471 28.9477C97.4667 29.0016 97.4839 29.0572 97.5019 29.1121C97.5029 29.1151 97.5036 29.1183 97.504 29.1214C97.5146 29.2089 97.5332 29.2968 97.5342 29.384C97.5377 29.728 97.5355 30.0721 97.5355 30.4165L97.5347 30.4155ZM93.8789 30.4126C93.8789 30.7143 93.8779 31.0164 93.8789 31.318C93.8789 31.3846 93.8759 31.4497 93.901 31.5175C93.9372 31.6149 93.9843 31.6976 94.07 31.7602C94.1562 31.8269 94.2621 31.8633 94.3712 31.8638C94.9321 31.863 95.493 31.863 96.0539 31.8638C96.1735 31.8661 96.2899 31.8256 96.3821 31.7498C96.4394 31.7053 96.4856 31.6482 96.5172 31.583C96.5488 31.5178 96.5649 31.4463 96.5642 31.3739C96.5681 30.7346 96.5678 30.0952 96.5633 29.4557C96.5619 29.3741 96.541 29.294 96.5024 29.222C96.4083 29.0509 96.2531 28.9631 96.0571 28.9621C95.5127 28.9594 94.9682 28.9609 94.4238 28.9621C94.366 28.9612 94.3083 28.9678 94.2522 28.9816C94.1835 28.9975 94.1192 29.0287 94.0644 29.0729C93.947 29.1703 93.8787 29.2894 93.8789 29.4431V30.4126Z" fill="white"/>
<path d="M112.974 28V28.0641C112.974 29.4829 112.973 30.9015 112.972 32.32C112.974 32.3881 112.963 32.4559 112.941 32.5201C112.901 32.6229 112.827 32.7088 112.73 32.7628C112.625 32.8211 112.502 32.8397 112.384 32.8152C112.27 32.7943 112.176 32.7268 112.1 32.6399C111.957 32.4764 111.814 32.3132 111.672 32.1488C111.571 32.0319 111.472 31.9111 111.371 31.7931C111.296 31.7064 111.219 31.6221 111.144 31.5352C111.063 31.4407 110.983 31.3441 110.902 31.2492C110.811 31.1421 110.718 31.0361 110.626 30.929C110.55 30.8398 110.476 30.7492 110.4 30.6601C110.359 30.6128 110.315 30.5686 110.274 30.5211C110.131 30.353 109.989 30.1835 109.845 30.0156C109.785 29.9458 109.723 29.8792 109.661 29.8101L109.647 29.8147V32.8173H108.678V32.7638C108.678 31.3419 108.678 29.9199 108.678 28.4977C108.678 28.337 108.734 28.2082 108.857 28.1081C108.906 28.0692 108.959 28.0333 109.026 28.0257C109.067 28.021 109.107 28.0037 109.148 28.0021C109.313 27.9955 109.442 28.0719 109.549 28.1893C109.676 28.3304 109.8 28.4747 109.923 28.6191C110.007 28.7165 110.086 28.8183 110.17 28.9157C110.261 29.0213 110.355 29.1236 110.447 29.2284C110.52 29.312 110.59 29.3975 110.662 29.4816C110.765 29.6018 110.869 29.7216 110.972 29.8412C111.088 29.9756 111.205 30.11 111.321 30.2443C111.439 30.3806 111.558 30.517 111.676 30.6547C111.768 30.7616 111.859 30.8703 111.95 30.9775C111.967 30.9939 111.985 31.0092 112.004 31.0231C112.005 30.988 112.007 30.9629 112.007 30.9379C112.007 29.9819 112.007 29.0258 112.007 28.0697C112.007 28.0002 112.007 28.0002 112.075 28.0002H112.974L112.974 28Z" fill="white"/>
<path d="M93.3741 36.7659C93.3523 36.7683 93.332 36.772 93.3118 36.7722C93.1864 36.7722 93.0608 36.7698 92.9354 36.7737C92.9204 36.7752 92.9054 36.7719 92.8925 36.7641C92.8797 36.7563 92.8697 36.7446 92.8642 36.7307C92.8107 36.6214 92.7612 36.51 92.7076 36.4005C92.664 36.3109 92.6063 36.2263 92.5746 36.1328C92.5442 36.043 92.4875 36.0409 92.4124 36.0423C92.2218 36.0456 92.031 36.0432 91.8402 36.0434C91.7751 36.0434 91.7749 36.0434 91.7749 36.1085V36.7687H91.3385C91.3385 36.7492 91.3364 36.732 91.3362 36.7147C91.3362 36.223 91.3362 35.7312 91.3362 35.2393C91.3362 35.1614 91.3626 35.0889 91.3853 35.0147C91.4278 34.876 91.5223 34.7776 91.632 34.6974C91.7056 34.6438 91.7909 34.5959 91.8882 34.5949C92.1881 34.5922 92.4881 34.5922 92.7882 34.5908C92.942 34.5908 93.0673 34.6555 93.1796 34.7529C93.2682 34.8298 93.3351 34.9283 93.3737 35.0389C93.3914 35.094 93.4017 35.1513 93.4044 35.2091C93.4088 35.2723 93.4088 35.3357 93.4044 35.3988C93.3977 35.4978 93.371 35.5945 93.3261 35.683C93.2696 35.7999 93.1794 35.8778 93.0788 35.9513L93.0749 35.954C92.9853 36.0064 92.988 36.0066 93.0387 36.0952C93.0778 36.1648 93.1082 36.2398 93.1442 36.3117C93.169 36.3611 93.1982 36.4091 93.2224 36.458C93.2467 36.5068 93.2661 36.5565 93.2895 36.605C93.3173 36.657 93.3447 36.7075 93.3741 36.7659ZM92.2883 35.611C92.4186 35.611 92.5491 35.6129 92.6796 35.61C92.7238 35.6069 92.7675 35.5993 92.8101 35.5874C92.9049 35.5656 92.9667 35.4705 92.9657 35.3803C92.9643 35.3067 92.9573 35.2333 92.9446 35.1608C92.9342 35.0967 92.8526 35.0299 92.788 35.0295C92.511 35.0281 92.2339 35.0295 91.9568 35.0295C91.9407 35.0286 91.9245 35.0315 91.9097 35.0381C91.8702 35.059 91.837 35.0901 91.8137 35.1282C91.7903 35.1662 91.7776 35.2097 91.7768 35.2543C91.7725 35.3466 91.7755 35.4394 91.7755 35.5317C91.7755 35.6014 91.7852 35.6114 91.8537 35.6114L92.2883 35.611Z" fill="white"/>
<path d="M103.384 35.6312C103.384 35.8502 103.387 36.0208 103.383 36.1909C103.381 36.2766 103.344 36.3534 103.305 36.4303C103.259 36.5142 103.196 36.5869 103.118 36.643C103.056 36.6892 102.986 36.7228 102.911 36.7418C102.652 36.8068 102.387 36.7583 102.126 36.7714C102.06 36.7747 101.995 36.7714 101.93 36.7714C101.827 36.7714 101.736 36.7365 101.644 36.6935C101.533 36.6388 101.44 36.5528 101.378 36.4461C101.344 36.3888 101.321 36.326 101.309 36.2606C101.257 35.9879 101.295 35.7113 101.285 35.4364C101.282 35.3831 101.283 35.3295 101.283 35.2759C101.285 35.0324 101.381 34.8341 101.582 34.6947C101.667 34.635 101.765 34.5914 101.875 34.5918C102.198 34.5928 102.521 34.5908 102.843 34.5961C102.935 34.5976 103.016 34.6436 103.092 34.6935C103.168 34.7434 103.235 34.8024 103.278 34.883C103.308 34.9325 103.333 34.9847 103.353 35.0389C103.419 35.249 103.367 35.4664 103.384 35.6312ZM102.947 35.6774V35.2541C102.947 35.2111 102.95 35.1684 102.918 35.132C102.875 35.0815 102.836 35.027 102.758 35.0274C102.476 35.0287 102.194 35.0274 101.912 35.0303C101.876 35.0303 101.838 35.0537 101.806 35.0751C101.737 35.1228 101.728 35.2039 101.728 35.2759C101.723 35.5451 101.725 35.8143 101.728 36.0836C101.73 36.1329 101.743 36.1811 101.767 36.2244C101.812 36.3074 101.888 36.3395 101.984 36.3385C102.222 36.3358 102.46 36.3385 102.697 36.3364C102.739 36.3355 102.779 36.3272 102.817 36.3119C102.857 36.2985 102.892 36.2726 102.915 36.238C102.939 36.2034 102.951 36.162 102.949 36.1202C102.948 35.9725 102.947 35.8249 102.947 35.6774Z" fill="white"/>
<path d="M107.799 35.68C107.799 35.4982 107.799 35.3163 107.799 35.1345C107.799 35.0712 107.827 35.0177 107.851 34.9615C107.881 34.8952 107.922 34.8347 107.974 34.7831C108.028 34.728 108.091 34.6825 108.16 34.6485C108.248 34.606 108.346 34.5855 108.444 34.5887C108.731 34.5903 109.017 34.5905 109.305 34.592C109.409 34.592 109.499 34.6382 109.585 34.6904C109.679 34.7484 109.755 34.8298 109.807 34.9265C109.846 34.9947 109.878 35.0687 109.877 35.1517C109.877 35.4988 109.881 35.8459 109.876 36.1931C109.873 36.3748 109.774 36.5149 109.636 36.6257C109.579 36.6703 109.517 36.7075 109.45 36.7365C109.402 36.7582 109.349 36.7698 109.296 36.7708C108.988 36.7739 108.68 36.7753 108.372 36.7708C108.29 36.7697 108.212 36.7356 108.137 36.6943C108.059 36.6504 107.984 36.6041 107.934 36.5299C107.892 36.4685 107.864 36.398 107.826 36.3339C107.782 36.2591 107.798 36.1781 107.796 36.0986C107.791 35.9593 107.795 35.8196 107.795 35.6802L107.799 35.68ZM108.237 35.6747C108.237 35.837 108.237 35.9994 108.237 36.1617C108.237 36.1792 108.235 36.2016 108.244 36.2139C108.298 36.2848 108.361 36.3432 108.461 36.3425C108.692 36.3409 108.923 36.3425 109.155 36.3425C109.209 36.3425 109.262 36.3438 109.315 36.3179C109.372 36.2899 109.436 36.2205 109.436 36.1562C109.438 35.8383 109.438 35.5202 109.436 35.2017C109.436 35.1182 109.346 35.0297 109.263 35.0291C108.976 35.0278 108.689 35.0291 108.402 35.0291C108.333 35.0291 108.235 35.124 108.236 35.1939C108.238 35.3535 108.237 35.5142 108.237 35.6751V35.6747Z" fill="white"/>
<path d="M96.7745 35.6765C96.7745 35.8533 96.7745 36.0302 96.7745 36.2071C96.7745 36.2901 96.7354 36.3604 96.6976 36.4327C96.6449 36.529 96.5681 36.6103 96.4747 36.6686C96.4223 36.7034 96.3573 36.7213 96.2986 36.7441C96.1601 36.7967 96.0155 36.7667 95.8736 36.7706C95.6928 36.7755 95.5119 36.7747 95.3309 36.7706C95.2626 36.7691 95.1884 36.7646 95.1278 36.7373C95.0043 36.6822 94.8914 36.6138 94.8078 36.4948C94.7214 36.3721 94.6895 36.2429 94.6885 36.1003C94.6872 35.8587 94.6872 35.6168 94.6885 35.3749C94.6885 35.2761 94.6916 35.1768 94.7016 35.0786C94.7057 35.0397 94.7304 35.0023 94.7487 34.9656C94.8099 34.8252 94.9209 34.7121 95.0606 34.6481C95.1494 34.6065 95.2467 34.5865 95.3448 34.5897C95.6317 34.5908 95.9187 34.592 96.2057 34.5932C96.3086 34.5932 96.3992 34.6355 96.4812 34.6906C96.5403 34.73 96.5931 34.7782 96.6377 34.8334C96.6811 34.8915 96.7163 34.9553 96.7424 35.0229C96.8048 35.176 96.7661 35.3383 96.7755 35.4963C96.7792 35.5563 96.7755 35.6165 96.7755 35.6765H96.7745ZM96.3405 35.6751H96.3372C96.3372 35.5243 96.3387 35.3733 96.3372 35.2226C96.3361 35.1714 96.3151 35.1226 96.2786 35.0865C96.2421 35.0504 96.193 35.0297 96.1415 35.0289C95.8694 35.0271 95.5972 35.0271 95.3248 35.0289C95.214 35.0289 95.1407 35.1014 95.1358 35.2119C95.1313 35.3106 95.1305 35.4096 95.1309 35.5085C95.1321 35.729 95.1348 35.9498 95.1373 36.1708C95.136 36.1868 95.139 36.2028 95.1461 36.2172C95.2015 36.2951 95.2714 36.3421 95.3745 36.3405C95.6156 36.3366 95.857 36.3355 96.0985 36.3405C96.23 36.3432 96.3511 36.2338 96.3429 36.0992C96.3341 35.9572 96.3405 35.8155 96.3405 35.6751Z" fill="white"/>
<path d="M88.4397 36.7692H88V36.7107C88 36.2189 88 35.7272 88.0022 35.2355C88.0031 35.0156 88.099 34.8417 88.2761 34.7113C88.3806 34.6307 88.5095 34.5877 88.6418 34.5894C88.9204 34.5929 89.1993 34.5894 89.4779 34.5929C89.6211 34.5945 89.7381 34.6628 89.844 34.7523C89.9402 34.8306 90.0088 34.9374 90.0396 35.0573C90.0659 35.1674 90.0608 35.2848 90.067 35.3992C90.0684 35.4226 90.0551 35.4463 90.0543 35.4701C90.0498 35.5934 89.9956 35.6953 89.9222 35.7905C89.8611 35.8704 89.7816 35.9344 89.6904 35.9771C89.6034 36.0197 89.5081 36.0425 89.4112 36.0438C89.1111 36.043 88.8111 36.043 88.5111 36.0438C88.4404 36.0438 88.4404 36.0438 88.4404 36.1158V36.7698L88.4397 36.7692ZM88.9484 35.6107C89.0625 35.6107 89.1766 35.6119 89.2906 35.6107C89.3546 35.6098 89.4174 35.6164 89.4812 35.5887C89.545 35.5611 89.6104 35.4977 89.6127 35.4263C89.6152 35.3501 89.6102 35.2737 89.6145 35.1976C89.6188 35.1214 89.5127 35.0275 89.4423 35.0281C89.1799 35.0298 88.9171 35.0335 88.6549 35.025C88.5357 35.0211 88.4397 35.1491 88.4406 35.2437C88.4422 35.3442 88.4406 35.445 88.4406 35.5455C88.4406 35.6051 88.4469 35.6111 88.5089 35.6111L88.9484 35.6107Z" fill="white"/>
<path d="M106.512 36.7734H106.44C106.158 36.7734 105.876 36.7707 105.594 36.775C105.496 36.7786 105.397 36.7667 105.302 36.7399C105.217 36.7132 105.135 36.6741 105.061 36.624C104.987 36.5739 104.921 36.514 104.864 36.446C104.804 36.374 104.757 36.2926 104.724 36.205C104.683 36.0904 104.664 35.9688 104.669 35.847C104.672 35.7122 104.666 35.5774 104.671 35.443C104.672 35.3597 104.684 35.2768 104.706 35.1964C104.727 35.1249 104.775 35.061 104.809 34.993C104.859 34.8944 104.939 34.8208 105.025 34.7573C105.11 34.6944 105.205 34.6471 105.307 34.6174C105.412 34.5865 105.516 34.5907 105.62 34.5896C105.896 34.5865 106.171 34.5884 106.447 34.5896C106.511 34.5896 106.511 34.5909 106.511 34.6554C106.511 34.7544 106.511 34.8533 106.511 34.9523C106.511 35.0244 106.508 35.0273 106.438 35.0275C106.128 35.0275 105.819 35.029 105.509 35.0275C105.392 35.0275 105.303 35.0805 105.226 35.1597C105.18 35.2065 105.155 35.2634 105.131 35.3245C105.106 35.3857 105.11 35.4436 105.109 35.503C105.107 35.6409 105.108 35.7788 105.109 35.9167C105.109 36.0615 105.181 36.17 105.292 36.2551C105.374 36.316 105.475 36.3471 105.578 36.3431C105.868 36.3402 106.158 36.342 106.448 36.3431C106.512 36.3431 106.512 36.3431 106.512 36.4078C106.512 36.5261 106.512 36.6459 106.512 36.7734Z" fill="white"/>
<path d="M99.2577 36.7692H98.8204V36.7045C98.8204 36.1673 98.8199 35.6301 98.8188 35.0931C98.8188 35.0269 98.8188 35.0265 98.7517 35.0265C98.5398 35.0265 98.3279 35.0252 98.116 35.0275C98.071 35.0275 98.06 35.0117 98.0606 34.9716C98.062 34.8613 98.0626 34.7509 98.0606 34.6404C98.0596 34.6001 98.0725 34.5875 98.113 34.5876C98.3527 34.5892 98.5922 34.5876 98.8319 34.5876H99.9371C100.017 34.5876 100.017 34.5876 100.017 34.6689C100.017 34.7647 100.017 34.8604 100.017 34.9562C100.017 35.0074 99.9993 35.0254 99.9474 35.0254C99.7371 35.0254 99.5267 35.0269 99.3166 35.0244C99.27 35.0244 99.2563 35.0363 99.2565 35.0828C99.2581 35.6214 99.2575 36.1602 99.2575 36.6996L99.2577 36.7692Z" fill="white"/>
<path d="M111.602 36.3394H113V36.7734H112.955C112.432 36.7734 111.908 36.7734 111.385 36.7734C111.293 36.7734 111.224 36.7335 111.189 36.6446C111.175 36.6121 111.167 36.5773 111.165 36.542C111.163 35.9091 111.165 35.2758 111.163 34.6431C111.163 34.6006 111.173 34.5868 111.217 34.588C111.326 34.5908 111.435 34.5908 111.545 34.588C111.59 34.5868 111.602 34.6022 111.602 34.6464C111.601 35.1852 111.601 35.7241 111.602 36.2632V36.3394Z" fill="white"/>
<path d="M5.50017 15.7973C4.69655 15.7973 4.01278 15.6775 3.44884 15.4378C2.899 15.1841 2.48309 14.7893 2.20112 14.2536C1.93325 13.7037 1.79932 12.9847 1.79932 12.0965V0.148035H4.92918V11.589C4.92918 11.9273 4.98557 12.2022 5.09836 12.4137C5.22525 12.6252 5.39443 12.7732 5.60591 12.8578C5.81738 12.9283 6.05706 12.9636 6.32493 12.9636H11.2735V15.7973H5.50017Z" fill="white"/>
<path d="M17.3462 15.9031C17.0078 15.9031 16.6201 15.8678 16.1831 15.7973C15.746 15.741 15.3231 15.6 14.9142 15.3744C14.5194 15.1488 14.1881 14.8105 13.9203 14.3593C13.6665 13.8941 13.5396 13.2596 13.5396 12.456V3.722C13.5396 3.03117 13.6453 2.45314 13.8568 1.98789C14.0683 1.52264 14.3503 1.15608 14.7027 0.888204C15.0552 0.620333 15.4429 0.430004 15.8659 0.317216C16.2888 0.204428 16.7047 0.148035 17.1136 0.148035C18.171 0.148035 19.1015 0.162133 19.9051 0.19033C20.7228 0.218526 21.4559 0.253772 22.1044 0.296068C22.753 0.324266 23.3451 0.366561 23.8808 0.422954V3.04527H18.0441C17.607 3.04527 17.2687 3.15101 17.029 3.36249C16.7893 3.57397 16.6695 3.89823 16.6695 4.33528V6.59809L22.8657 6.76727V9.24155L16.6695 9.41074V11.5678C16.6695 11.9344 16.7259 12.2234 16.8386 12.4349C16.9655 12.6322 17.1277 12.7732 17.325 12.8578C17.5365 12.9283 17.755 12.9636 17.9806 12.9636H23.8808V15.5859C23.2605 15.6564 22.5697 15.7128 21.8084 15.7551C21.0611 15.7973 20.2998 15.8326 19.5244 15.8608C18.7631 15.889 18.037 15.9031 17.3462 15.9031Z" fill="white"/>
<path d="M26.581 15.7973V0.148035H33.1791C33.6866 0.148035 34.2012 0.211478 34.7228 0.338364C35.2586 0.451152 35.745 0.690826 36.182 1.05739C36.6332 1.40985 36.9927 1.94559 37.2606 2.66461C37.5425 3.38363 37.6835 4.33528 37.6835 5.51955C37.6835 6.70383 37.5425 7.66252 37.2606 8.39565C36.9927 9.12877 36.6402 9.68566 36.2032 10.0663C35.7661 10.447 35.2938 10.7007 34.7863 10.8276C34.2787 10.9545 33.7853 11.018 33.3059 11.018C33.0522 11.018 32.7561 11.0109 32.4177 10.9968C32.0794 10.9686 31.734 10.9334 31.3815 10.8911C31.0431 10.8488 30.7259 10.8135 30.4299 10.7853C30.1338 10.743 29.8941 10.7078 29.7108 10.6796V15.7973H26.581ZM29.7108 8.20531H32.8195C33.1861 8.20531 33.4963 8.12072 33.75 7.95154C34.0179 7.76826 34.2153 7.48629 34.3422 7.10563C34.4691 6.71088 34.5325 6.18923 34.5325 5.5407C34.5325 4.90627 34.462 4.40577 34.321 4.03921C34.1942 3.65856 34.0038 3.38364 33.75 3.21445C33.5104 3.04527 33.2214 2.96068 32.883 2.96068H29.7108V8.20531Z" fill="white"/>
<path d="M43.4165 15.7973V2.96068H39.1236V0.148035H50.8605V2.96068H46.5464V15.7973H43.4165Z" fill="white"/>
<path d="M58.9185 15.9242C57.847 15.9242 56.9094 15.8255 56.1058 15.6282C55.3022 15.4167 54.6255 15.036 54.0756 14.4862C53.5399 13.9222 53.1381 13.1186 52.8702 12.0753C52.6024 11.0321 52.4684 9.67156 52.4684 7.99384C52.4684 6.31612 52.6024 4.95562 52.8702 3.91233C53.1522 2.85494 53.5611 2.04428 54.0968 1.48034C54.6325 0.916402 55.3022 0.528693 56.1058 0.317216C56.9094 0.105739 57.847 0 58.9185 0C59.99 0 60.9275 0.105739 61.7311 0.317216C62.5347 0.528693 63.2044 0.916402 63.7402 1.48034C64.2759 2.04428 64.6777 2.85494 64.9456 3.91233C65.2135 4.95562 65.3474 6.31612 65.3474 7.99384C65.3474 9.67156 65.2135 11.0321 64.9456 12.0753C64.6777 13.1186 64.2759 13.9222 63.7402 14.4862C63.2044 15.036 62.5347 15.4167 61.7311 15.6282C60.9275 15.8255 59.99 15.9242 58.9185 15.9242ZM58.9185 13.1116C59.5529 13.1116 60.0816 13.0411 60.5046 12.9001C60.9275 12.7591 61.2588 12.5124 61.4985 12.1599C61.7523 11.7934 61.9356 11.2788 62.0483 10.6162C62.1611 9.93943 62.2175 9.06532 62.2175 7.99384C62.2175 6.86596 62.1611 5.96366 62.0483 5.28693C61.9356 4.6102 61.7523 4.09561 61.4985 3.74315C61.2588 3.37659 60.9275 3.12986 60.5046 3.00298C60.0816 2.87609 59.5529 2.81265 58.9185 2.81265C58.3122 2.81265 57.7976 2.87609 57.3747 3.00298C56.9517 3.12986 56.6063 3.37659 56.3385 3.74315C56.0847 4.09561 55.8944 4.6102 55.7675 5.28693C55.6547 5.96366 55.5983 6.86596 55.5983 7.99384C55.5983 9.06532 55.6476 9.93943 55.7463 10.6162C55.8591 11.2788 56.0424 11.7934 56.2962 12.1599C56.5499 12.5124 56.8883 12.7591 57.3113 12.9001C57.7483 13.0411 58.284 13.1116 58.9185 13.1116Z" fill="white"/>
<path d="M68.1858 15.7973V0.148035H70.7024L77.2582 10.4681V0.148035H80.388V15.7973H77.8715L71.3368 5.47726V15.7973H68.1858Z" fill="white"/>
<path d="M83.3932 15.7973V0.148035H86.523V15.7973H83.3932Z" fill="white"/>
<path d="M92.9385 15.7973V2.96068H88.6456V0.148035H100.383V2.96068H96.0684V15.7973H92.9385Z" fill="white"/>
<path d="M106.096 15.9031C105.757 15.9031 105.369 15.8678 104.932 15.7973C104.495 15.741 104.072 15.6 103.664 15.3744C103.269 15.1488 102.938 14.8105 102.67 14.3593C102.416 13.8941 102.289 13.2596 102.289 12.456V3.722C102.289 3.03117 102.395 2.45314 102.606 1.98789C102.818 1.52264 103.1 1.15608 103.452 0.888204C103.805 0.620333 104.192 0.430004 104.615 0.317216C105.038 0.204428 105.454 0.148035 105.863 0.148035C106.92 0.148035 107.851 0.162133 108.654 0.19033C109.472 0.218526 110.205 0.253772 110.854 0.296068C111.502 0.324266 112.094 0.366561 112.63 0.422954V3.04527H106.793C106.356 3.04527 106.018 3.15101 105.778 3.36249C105.539 3.57397 105.419 3.89823 105.419 4.33528V6.59809L111.615 6.76727V9.24155L105.419 9.41074V11.5678C105.419 11.9344 105.475 12.2234 105.588 12.4349C105.715 12.6322 105.877 12.7732 106.074 12.8578C106.286 12.9283 106.504 12.9636 106.73 12.9636H112.63V15.5859C112.01 15.6564 111.319 15.7128 110.558 15.7551C109.811 15.7973 109.049 15.8326 108.274 15.8608C107.512 15.889 106.786 15.9031 106.096 15.9031Z" fill="white"/>
<path d="M1.65698 35.7973V28.7712H4.5607C4.78284 28.7712 5.00815 28.7998 5.23664 28.8569C5.46513 28.9077 5.67458 29.0124 5.86499 29.1711C6.06174 29.3298 6.21724 29.5646 6.33149 29.8756C6.45208 30.1866 6.51237 30.6023 6.51237 31.1228C6.51237 31.6432 6.45208 32.0621 6.33149 32.3795C6.21089 32.6968 6.05222 32.9412 5.85547 33.1125C5.66506 33.2775 5.45561 33.3918 5.22712 33.4553C5.00498 33.5124 4.78919 33.5409 4.57974 33.5409C4.47184 33.5409 4.33538 33.5378 4.17036 33.5314C4.01169 33.5187 3.8435 33.506 3.66578 33.4933C3.49441 33.4743 3.33257 33.4584 3.18024 33.4457C3.03426 33.4267 2.91685 33.4108 2.82799 33.3981V35.7973H1.65698ZM2.82799 32.4747H4.40837C4.59243 32.4747 4.75428 32.4334 4.89391 32.3509C5.03354 32.262 5.14144 32.1224 5.2176 31.932C5.29377 31.7352 5.33185 31.4687 5.33185 31.1323C5.33185 30.8022 5.29059 30.542 5.20808 30.3516C5.13192 30.1612 5.02719 30.0279 4.89391 29.9518C4.76697 29.8692 4.61782 29.828 4.44645 29.828H2.82799V32.4747Z" fill="white"/>
<path d="M10.3513 35.8544C9.88164 35.8544 9.46909 35.81 9.11367 35.7211C8.76459 35.6259 8.46945 35.4577 8.22827 35.2165C7.99344 34.969 7.81572 34.6104 7.69513 34.1407C7.58089 33.6711 7.52376 33.0586 7.52376 32.3033C7.52376 31.5417 7.58406 30.926 7.70465 30.4563C7.82524 29.9803 8.00296 29.6185 8.23779 29.371C8.47898 29.1171 8.77411 28.9426 9.12319 28.8474C9.47861 28.7522 9.88799 28.7046 10.3513 28.7046C10.8273 28.7046 11.2431 28.7522 11.5985 28.8474C11.9539 28.9426 12.249 29.1171 12.4839 29.371C12.7187 29.6185 12.8933 29.9803 13.0075 30.4563C13.1281 30.926 13.1884 31.5417 13.1884 32.3033C13.1884 33.0586 13.1281 33.6711 13.0075 34.1407C12.8933 34.6104 12.7155 34.969 12.4744 35.2165C12.2395 35.4577 11.9444 35.6259 11.589 35.7211C11.2399 35.81 10.8273 35.8544 10.3513 35.8544ZM10.3513 34.7976C10.6623 34.7976 10.9225 34.7659 11.132 34.7024C11.3478 34.6326 11.5191 34.512 11.6461 34.3407C11.773 34.1629 11.8651 33.9122 11.9222 33.5885C11.9793 33.2585 12.0079 32.8301 12.0079 32.3033C12.0079 31.7448 11.9761 31.3005 11.9127 30.9704C11.8555 30.6341 11.7635 30.3802 11.6366 30.2088C11.5096 30.0311 11.3414 29.9137 11.132 29.8566C10.9225 29.7931 10.6623 29.7614 10.3513 29.7614C10.0594 29.7614 9.80865 29.7931 9.59921 29.8566C9.38976 29.9137 9.21839 30.0311 9.08511 30.2088C8.95817 30.3802 8.86296 30.6341 8.79949 30.9704C8.73603 31.3005 8.70429 31.7448 8.70429 32.3033C8.70429 32.8301 8.72968 33.2585 8.78045 33.5885C8.83758 33.9122 8.92961 34.1629 9.05654 34.3407C9.18348 34.512 9.35168 34.6326 9.56112 34.7024C9.77692 34.7659 10.0403 34.7976 10.3513 34.7976Z" fill="white"/>
<path d="M15.6605 35.7973L13.9373 28.7712H15.1559L16.4221 34.0836L17.8883 28.7712H18.9926L20.4492 34.0836L21.7154 28.7712H22.9341L21.2109 35.7973H19.9923L18.4404 30.4754L16.8791 35.7973H15.6605Z" fill="white"/>
<path d="M25.3886 35.8449C25.2363 35.8449 25.0649 35.829 24.8745 35.7973C24.6904 35.7719 24.5127 35.7116 24.3414 35.6164C24.17 35.5148 24.0304 35.3657 23.9225 35.1689C23.8146 34.9722 23.7606 34.7024 23.7606 34.3597V30.304C23.7606 30.0057 23.805 29.7582 23.8939 29.5614C23.9828 29.3583 24.1002 29.1996 24.2462 29.0854C24.3985 28.9712 24.5635 28.8918 24.7412 28.8474C24.9253 28.7966 25.1062 28.7712 25.2839 28.7712C25.7282 28.7712 26.128 28.7776 26.4834 28.7903C26.8389 28.803 27.1626 28.8157 27.4545 28.8284C27.7528 28.841 28.0289 28.8569 28.2828 28.876V29.8566H25.6266C25.4108 29.8566 25.2394 29.9105 25.1125 30.0184C24.9919 30.1263 24.9316 30.2945 24.9316 30.523V31.7702L27.8544 31.8368V32.7603L24.9316 32.8269V34.036C24.9316 34.2264 24.9634 34.3724 25.0268 34.4739C25.0966 34.5755 25.1823 34.6453 25.2839 34.6834C25.3918 34.7215 25.5028 34.7405 25.6171 34.7405H28.2828V35.7211C28.0035 35.7465 27.6989 35.7687 27.3688 35.7877C27.0388 35.8004 26.7024 35.81 26.3597 35.8163C26.0233 35.829 25.6996 35.8385 25.3886 35.8449Z" fill="white"/>
<path d="M29.6037 35.7973V28.7712H32.4599C32.7201 28.7712 32.9644 28.803 33.1929 28.8664C33.4278 28.9236 33.634 29.0315 33.8117 29.1901C33.9958 29.3488 34.1386 29.5709 34.2402 29.8566C34.3481 30.1358 34.402 30.5008 34.402 30.9514C34.402 31.3005 34.3671 31.5924 34.2973 31.8273C34.2275 32.0558 34.1354 32.243 34.0212 32.389C33.907 32.535 33.7768 32.6492 33.6309 32.7317C33.4912 32.8079 33.3516 32.8713 33.212 32.9221L34.5639 35.7973H33.3738L32.1552 33.0935C32.0663 33.0935 31.9616 33.0935 31.841 33.0935C31.7268 33.0935 31.6062 33.0935 31.4793 33.0935C31.3523 33.0871 31.2286 33.084 31.108 33.084C30.9874 33.0776 30.8763 33.0744 30.7747 33.0744V35.7973H29.6037ZM30.7747 32.151H32.2599C32.3996 32.151 32.5265 32.1351 32.6407 32.1034C32.755 32.0653 32.8565 32.0018 32.9454 31.913C33.0343 31.8241 33.1009 31.7035 33.1453 31.5512C33.1961 31.3989 33.2215 31.2021 33.2215 30.9609C33.2215 30.7261 33.1961 30.5357 33.1453 30.3897C33.1009 30.2374 33.0343 30.1231 32.9454 30.047C32.8565 29.9645 32.7518 29.9073 32.6312 29.8756C32.517 29.8439 32.3932 29.828 32.2599 29.828H30.7747V32.151Z" fill="white"/>
<path d="M37.3259 35.8449C37.1736 35.8449 37.0022 35.829 36.8118 35.7973C36.6277 35.7719 36.45 35.7116 36.2786 35.6164C36.1073 35.5148 35.9676 35.3657 35.8597 35.1689C35.7518 34.9722 35.6979 34.7024 35.6979 34.3597V30.304C35.6979 30.0057 35.7423 29.7582 35.8312 29.5614C35.92 29.3583 36.0375 29.1996 36.1834 29.0854C36.3358 28.9712 36.5008 28.8918 36.6785 28.8474C36.8626 28.7966 37.0434 28.7712 37.2212 28.7712C37.6654 28.7712 38.0653 28.7776 38.4207 28.7903C38.7762 28.803 39.0998 28.8157 39.3918 28.8284C39.6901 28.841 39.9662 28.8569 40.2201 28.876V29.8566H37.5639C37.3481 29.8566 37.1767 29.9105 37.0498 30.0184C36.9292 30.1263 36.8689 30.2945 36.8689 30.523V31.7702L39.7917 31.8368V32.7603L36.8689 32.8269V34.036C36.8689 34.2264 36.9006 34.3724 36.9641 34.4739C37.0339 34.5755 37.1196 34.6453 37.2212 34.6834C37.3291 34.7215 37.4401 34.7405 37.5544 34.7405H40.2201V35.7211C39.9408 35.7465 39.6362 35.7687 39.3061 35.7877C38.9761 35.8004 38.6397 35.81 38.297 35.8163C37.9606 35.829 37.6369 35.8385 37.3259 35.8449Z" fill="white"/>
<path d="M41.541 35.7973V28.7712H44.4447C44.9017 28.7712 45.2825 28.8537 45.5872 29.0188C45.8982 29.1774 46.1457 29.4123 46.3298 29.7233C46.5138 30.0279 46.6439 30.396 46.7201 30.8276C46.8026 31.2592 46.8439 31.7448 46.8439 32.2843C46.8439 33.0586 46.755 33.706 46.5773 34.2264C46.3996 34.7405 46.133 35.1308 45.7776 35.3974C45.4222 35.664 44.9779 35.7973 44.4447 35.7973H41.541ZM42.712 34.7405H44.3305C44.6542 34.7405 44.9112 34.6453 45.1016 34.4549C45.2984 34.2645 45.4412 33.9852 45.5301 33.6171C45.6253 33.249 45.6729 32.8047 45.6729 32.2843C45.6729 31.8019 45.6443 31.402 45.5872 31.0847C45.5301 30.7673 45.4476 30.5166 45.3397 30.3326C45.2318 30.1485 45.0921 30.0184 44.9208 29.9422C44.7557 29.8661 44.559 29.828 44.3305 29.828H42.712V34.7405Z" fill="white"/>
<path d="M50.8472 35.7973V28.7712H53.5319C54.192 28.7712 54.6807 28.9267 54.9981 29.2377C55.3154 29.5487 55.4741 30.0025 55.4741 30.5991C55.4741 30.8784 55.4297 31.1259 55.3408 31.3417C55.2583 31.5512 55.1441 31.7257 54.9981 31.8654C54.8521 31.9986 54.6807 32.0907 54.484 32.1414C54.63 32.1795 54.7728 32.2398 54.9124 32.3223C55.0584 32.3985 55.1917 32.5064 55.3123 32.646C55.4328 32.7857 55.528 32.957 55.5979 33.1601C55.6677 33.3569 55.7026 33.5885 55.7026 33.8551C55.7026 34.3375 55.6201 34.7215 55.4551 35.0071C55.2964 35.2863 55.0615 35.4894 54.7505 35.6164C54.4459 35.737 54.0778 35.7973 53.6462 35.7973H50.8472ZM52.0182 34.7405H53.6081C53.8049 34.7405 53.9762 34.7056 54.1222 34.6358C54.2682 34.566 54.3793 34.4549 54.4554 34.3026C54.5379 34.1439 54.5792 33.9281 54.5792 33.6552C54.5792 33.4394 54.5379 33.2585 54.4554 33.1125C54.3729 32.9665 54.2587 32.8555 54.1127 32.7793C53.9667 32.6968 53.7985 32.6555 53.6081 32.6555H52.0182V34.7405ZM52.0182 31.7416H53.551C53.7858 31.7416 53.9762 31.6559 54.1222 31.4845C54.2682 31.3068 54.3443 31.0752 54.3507 30.7896C54.357 30.4278 54.2777 30.1771 54.1127 30.0374C53.954 29.8978 53.7573 29.828 53.5224 29.828H52.0182V31.7416Z" fill="white"/>
<path d="M58.6552 35.7973V33.5981L56.5036 28.7712H57.7222L59.2645 32.3985L60.8068 28.7712H61.9969L59.8358 33.5981V35.7973H58.6552Z" fill="white"/>
<path d="M77.1099 30.3457C77.4029 30.5634 77.571 30.8724 77.7221 31.1879C77.8974 31.5536 78.0473 31.93 78.1972 32.3065L78.2305 32.39C78.2471 32.4315 78.2637 32.4731 78.2803 32.5146C78.3728 32.7463 78.469 32.9805 78.6238 33.1827C78.8634 33.4946 79.1678 33.4773 79.3685 33.1404C79.5375 32.8564 79.6236 32.5432 79.682 32.2232C79.802 31.5668 80.024 30.9565 80.4808 30.4487C81.1109 29.7486 81.8988 29.3735 82.8487 29.3308C82.9439 29.3265 82.9793 29.3492 82.9763 29.4508C82.9685 29.7081 82.969 29.9658 82.9763 30.2231C82.9788 30.3178 82.9454 30.3356 82.8563 30.3455C82.0435 30.436 81.4138 30.807 81.0514 31.5483C80.7556 32.1529 80.8629 32.7272 81.2388 33.2662C81.6358 33.8335 82.2116 34.0789 82.8827 34.1462C82.9585 34.1539 82.9765 34.1765 82.9754 34.2468C82.9715 34.5043 82.969 34.762 82.9765 35.0193C82.9793 35.1148 82.9408 35.1403 82.8561 35.1464C82.4911 35.1729 82.1446 35.093 81.8099 34.9607C81.1991 34.7191 80.6824 34.354 80.303 33.8159C80.2552 33.7481 80.235 33.7753 80.2018 33.8201L80.1989 33.8239C79.7277 34.4563 78.8058 34.6579 78.1109 34.2807C77.7865 34.1047 77.5796 33.8254 77.4263 33.5035C77.288 33.2132 77.1687 32.915 77.0566 32.6141C77.0706 32.5935 77.0778 32.5718 77.0814 32.5495C77.0777 32.5714 77.0705 32.5927 77.0568 32.6129C76.9423 32.3246 76.8275 32.0363 76.7123 31.748C76.6645 31.6223 76.6039 31.5016 76.5313 31.388C76.3595 31.1271 76.0897 31.0844 75.8443 31.2864C75.6277 31.4649 75.5182 31.7099 75.4302 31.9668C75.3684 32.1463 75.3341 32.3319 75.2998 32.5175C75.2841 32.6024 75.2684 32.6872 75.2501 32.7715C75.0882 33.5148 74.6603 34.0827 74.0515 34.5308C73.558 34.8999 72.964 35.1153 72.3456 35.1494H72.3349C72.0837 35.1682 72.0835 35.1682 72.0837 34.9232C72.0837 34.861 72.0839 34.7988 72.0842 34.7366C72.0848 34.5765 72.0854 34.4164 72.082 34.2566C72.0803 34.1767 72.1011 34.1507 72.1878 34.146C73.0311 34.1037 73.6451 33.695 74.0186 32.9602C74.325 32.3579 74.2215 31.7705 73.8342 31.2334C73.4364 30.6816 72.8718 30.4076 72.1983 30.3421C72.1078 30.3332 72.0762 30.3102 72.0786 30.2172C72.085 29.9669 72.0859 29.7162 72.0786 29.4661C72.0756 29.3644 72.1138 29.3422 72.2074 29.3422C72.9871 29.3422 73.6556 29.6285 74.2469 30.1111C74.4567 30.2821 74.6412 30.4812 74.7949 30.7028C74.8413 30.7699 74.866 30.7589 74.9104 30.7043C74.9841 30.6136 75.0607 30.5253 75.1429 30.4412C75.6975 29.8718 76.6197 29.9385 77.1099 30.3457Z" fill="url(#paint0_linear)"/>
<path fill-rule="evenodd" clip-rule="evenodd" d="M85.0492 27.2974H70V37.2078H85.0492V27.2974ZM83.9973 28.335H71.0519V36.149H83.9973V28.335Z" fill="url(#paint1_linear)"/>
<path d="M1 22.7974L113 22.7974" stroke="white" stroke-width="0.7" stroke-linecap="round" stroke-linejoin="round"/>
<defs>
<linearGradient id="paint0_linear" x1="70" y1="32.2526" x2="85.0492" y2="32.2526" gradientUnits="userSpaceOnUse">
<stop stop-color="#5BF3BF"/>
<stop offset="1" stop-color="#00FAA6"/>
</linearGradient>
<linearGradient id="paint1_linear" x1="70" y1="32.2526" x2="85.0492" y2="32.2526" gradientUnits="userSpaceOnUse">
<stop stop-color="#5BF3BF"/>
<stop offset="1" stop-color="#00FAA6"/>
</linearGradient>
</defs>
</svg>
