<?xml version="1.0" encoding="UTF-8"?>
<svg width="410px" height="77px" viewBox="0 0 410 77" version="1.1" xmlns="http://www.w3.org/2000/svg" xmlns:xlink="http://www.w3.org/1999/xlink">
    <title>Group 2</title>
    <g id="MetaPortal---One-page-site-WIP" stroke="none" stroke-width="1" fill="none" fill-rule="evenodd">
        <g id="Group-2" transform="translate(0.000000, 0.000000)" fill="#DD2CB8">
            <path d="M173.525461,13.5243962 C173.818377,14.00653 173.953098,14.2697699 174.125072,14.5051647 C180.028302,22.5818092 185.945821,30.6478829 191.82277,38.7441222 C192.348896,39.4691277 192.853335,39.4350948 193.550159,39.2089817 C200.831983,36.8449788 203.484303,30.3232805 202.186082,23.810606 C200.890413,17.3118541 195.579139,13.9603792 189.867529,13.6128303 C184.87239,13.3085961 179.85148,13.4333837 174.841798,13.3790898 C174.478969,13.3751151 174.115121,13.456588 173.525461,13.5243962 M218.955277,75.6843418 C214.563576,75.6843418 210.442338,75.7183748 206.32314,75.639738 C205.826867,75.6304562 205.201996,75.1158364 204.872593,74.6607742 C197.369551,64.2997949 189.899423,53.91458 182.423427,43.5334904 C177.197629,36.2772469 171.973107,29.0199721 166.745524,21.7650178 C166.500831,21.4252036 166.230114,21.1047264 165.736902,20.4758898 C165.671583,21.3896237 165.59172,21.9867478 165.591464,22.5841297 C165.58483,39.5521476 165.586106,56.5201655 165.585596,73.4884412 C165.585596,73.9179786 165.698119,74.3980499 165.544771,74.7628731 C165.390914,75.1292433 164.975014,75.6371597 164.664747,75.6436053 C161.564888,75.7088352 158.462987,75.6833105 155.201616,75.6833105 C155.161047,75.1823554 155.092666,74.733481 155.092666,74.2848645 C155.087562,50.9591253 155.095472,27.6331282 155.066379,4.30738905 C155.064854,3.14665823 155.373845,2.74960682 156.561074,2.75682715 C167.613556,2.82514971 178.671651,2.63178052 189.717244,2.92827995 C200.603876,3.22039635 210.360689,10.2608398 212.503212,22.017429 C214.432938,32.6065839 210.03945,43.3558485 200.03718,48.1568189 C199.81188,48.2651056 199.600613,48.4027845 199.175527,48.6446249 C205.749556,57.6313938 212.272809,66.5488076 218.955277,75.6843418" id="Fill-3"></path>
            <path d="M304.566378,34.9147418 L318.69499,34.9147418 C316.30854,30.3690187 314.040481,26.0488931 311.626219,21.4508315 C309.205068,26.0687457 306.950277,30.3685031 304.566378,34.9147418 L304.566378,34.9147418 Z M334.130243,64.8990847 C333.905963,64.3754409 333.768436,63.9887026 333.581408,63.6282624 C330.661942,58.0066331 327.72385,52.3948013 324.826583,46.7615699 C324.442322,46.0141335 323.993762,45.7294941 323.147928,45.7330698 C315.496897,45.7661053 307.845866,45.7658475 300.194834,45.7336193 C299.316341,45.7300097 298.825426,45.9996953 298.413353,46.8017907 C295.519658,52.436569 292.575187,58.0445335 289.654445,63.6653893 C289.4715,64.0173212 289.353109,64.4035439 289.154345,64.8990847 L334.130243,64.8990847 Z M351.544976,75.6480915 L271.827384,75.6480915 C285.091281,50.4384207 298.288328,25.3558579 311.628771,-2.27373675e-13 C324.97151,25.2865028 338.205044,50.3664874 351.544976,75.6480915 L351.544976,75.6480915 Z" id="Fill-9"></path>
            <path d="M73.4731851,39.1079914 C73.5765222,54.0180454 85.2612744,65.3533476 99.0030738,65.8076363 C114.121426,66.3075601 125.932989,54.1100892 126.33256,39.926072 C126.74948,25.1199217 115.062687,12.5297824 99.9387215,12.4098935 C85.5105594,12.2956767 73.559427,24.3294284 73.4731851,39.1079914 M99.9050412,1.79753425 C120.061653,1.57606207 136.935716,18.4370824 136.911758,39.1796669 C136.887748,59.7804474 120.145089,76.5777848 99.8057865,76.5147951 C79.389173,76.4514503 62.9029432,59.4468211 62.9233365,39.0840136 C62.9437677,18.677118 79.5966127,1.59410986 99.9050412,1.79753425" id="Fill-11"></path>
            <path d="M10.5965626,75.6254802 L0.124809925,75.6254802 L0.124809925,40.0238911 C0.61189786,40.0238911 1.1028131,40.0238911 1.59347318,40.0236332 C9.67265199,40.0213128 17.7523411,40.0715888 25.8307545,39.9926942 C29.4942477,39.9568564 32.8456882,38.8291273 35.6411494,36.3106869 C41.7569225,30.800954 41.212425,17.7485333 30.7319971,14.4133015 C28.545332,13.7174302 26.150972,13.4570263 23.8454055,13.417579 C16.6186943,13.2940806 9.3886662,13.3789052 2.15991384,13.3680765 C-0.410246857,13.3642091 0.0520911924,13.5776887 0.0253000803,11.1489716 C-0.000725571545,8.78600007 0.0564288011,6.42173939 0.00131565605,4.05979913 C-0.0201172337,3.13575221 0.213603326,2.75726424 1.19773018,2.76448335 C9.99899325,2.82765062 18.819648,2.49428213 27.5969266,2.97641599 C38.3401626,3.56657877 47.8999969,10.588201 49.7886427,22.7634989 C51.8086926,35.7862696 44.3827066,47.5137245 30.8429888,50.1538586 C28.9002505,50.5326044 26.8868346,50.6468211 24.9025062,50.6826589 C20.6092943,50.7600066 16.3130205,50.7422166 12.0190431,50.683948 C10.8836103,50.6684785 10.5695164,51.0479977 10.5758952,52.1643826 C10.6169749,59.4255247 10.5968178,66.6871826 10.5965626,73.9485825 C10.5965626,74.4583037 10.5965626,74.9680249 10.5965626,75.6254802" id="Fill-13"></path>
            <path d="M244.132263,75.6824081 L244.132263,73.7239649 C244.132263,54.262 244.132519,34.8000352 244.131753,15.3380703 C244.131498,13.3755019 244.128436,13.3729236 242.154059,13.372408 C236.499348,13.370861 230.844127,13.3453363 225.189926,13.3943231 C224.08996,13.4038627 223.710802,13.1158715 223.751626,11.9543672 C223.840165,9.42277772 223.839399,6.88371128 223.753157,4.35186396 C223.711312,3.12409849 224.064955,2.74612617 225.310104,2.75205616 C235.301402,2.8007852 245.292956,2.77912785 255.28451,2.77912785 C261.321951,2.77912785 267.359647,2.81367648 273.396578,2.75124638 C274.652698,2.73864923 274.985929,3.14756062 274.946635,4.36346611 C274.863455,6.93862813 274.870089,9.51972014 274.945615,12.09514 C274.976743,13.1615066 274.576918,13.3922605 273.621368,13.387104 C267.924302,13.3551337 262.226981,13.370861 256.529659,13.372408 C254.633614,13.3729236 254.62749,13.3757597 254.627235,15.2720669 C254.625704,34.6912328 254.626214,54.1103986 254.625704,73.5293066 C254.625704,73.958844 254.724449,74.4280866 254.585135,74.8063167 C254.458579,75.1497404 254.074062,75.639609 253.795435,75.6447656 C250.656027,75.7040654 247.515343,75.6824081 244.132263,75.6824081" id="Fill-17"></path>
            <path d="M409.550184,64.991541 L409.550184,75.604158 L363.613377,75.604158 C363.613377,75.092632 363.613377,74.6349916 363.613377,74.177609 C363.613377,50.8995676 363.622818,27.6215261 363.586832,4.3432268 C363.5848,3.10179658 363.912672,2.70861255 365.14787,2.75270072 C367.652456,2.84242403 370.164697,2.84474446 372.669028,2.75218507 C373.9351,2.70551864 374.215769,3.1685734 374.213727,4.37313457 C374.180557,23.9145097 374.189998,43.4561427 374.190508,62.9977757 C374.190508,64.9889627 374.192039,64.9910253 376.108242,64.9910253 C386.734107,64.9917988 397.359972,64.991541 407.985838,64.991541 C408.482111,64.991541 408.978385,64.991541 409.550184,64.991541" id="Fill-19"></path>
        </g>
    </g>
</svg>