<svg width="267" height="35" viewBox="0 0 267 35" fill="none" xmlns="http://www.w3.org/2000/svg">
<path d="M3.70085 18.7973C2.89724 18.7973 2.21346 18.6775 1.64952 18.4378C1.09968 18.1841 0.683776 17.7893 0.401807 17.2536C0.133935 16.7037 0 15.9847 0 15.0965V3.14803H3.12986V14.589C3.12986 14.9273 3.18626 15.2022 3.29904 15.4137C3.42593 15.6252 3.59511 15.7732 3.80659 15.8578C4.01807 15.9283 4.25774 15.9636 4.52561 15.9636H9.47418V18.7973H3.70085Z" fill="white"/>
<path d="M15.5469 18.9031C15.2085 18.9031 14.8208 18.8678 14.3838 18.7973C13.9467 18.741 13.5237 18.6 13.1149 18.3744C12.7201 18.1488 12.3888 17.8105 12.1209 17.3593C11.8672 16.8941 11.7403 16.2596 11.7403 15.456V6.722C11.7403 6.03117 11.846 5.45314 12.0575 4.98789C12.269 4.52264 12.551 4.15608 12.9034 3.8882C13.2559 3.62033 13.6436 3.43 14.0665 3.31722C14.4895 3.20443 14.9054 3.14803 15.3143 3.14803C16.3716 3.14803 17.3021 3.16213 18.1058 3.19033C18.9235 3.21853 19.6566 3.25377 20.3051 3.29607C20.9536 3.32427 21.5458 3.36656 22.0815 3.42295V6.04527H16.2448C15.8077 6.04527 15.4693 6.15101 15.2297 6.36249C14.99 6.57397 14.8701 6.89823 14.8701 7.33528V9.59809L21.0664 9.76727V12.2416L14.8701 12.4107V14.5678C14.8701 14.9344 14.9265 15.2234 15.0393 15.4349C15.1662 15.6322 15.3283 15.7732 15.5257 15.8578C15.7372 15.9283 15.9557 15.9636 16.1813 15.9636H22.0815V18.5859C21.4612 18.6564 20.7704 18.7128 20.009 18.7551C19.2618 18.7973 18.5005 18.8326 17.7251 18.8608C16.9638 18.889 16.2377 18.9031 15.5469 18.9031Z" fill="white"/>
<path d="M24.7817 18.7973V3.14803H31.3797C31.8873 3.14803 32.4019 3.21148 32.9235 3.33836C33.4593 3.45115 33.9457 3.69083 34.3827 4.05739C34.8339 4.40985 35.1934 4.94559 35.4613 5.66461C35.7432 6.38363 35.8842 7.33528 35.8842 8.51955C35.8842 9.70383 35.7432 10.6625 35.4613 11.3956C35.1934 12.1288 34.8409 12.6857 34.4039 13.0663C33.9668 13.447 33.4945 13.7007 32.987 13.8276C32.4794 13.9545 31.986 14.018 31.5066 14.018C31.2529 14.018 30.9568 14.0109 30.6184 13.9968C30.2801 13.9686 29.9347 13.9334 29.5822 13.8911C29.2438 13.8488 28.9266 13.8135 28.6305 13.7853C28.3345 13.743 28.0948 13.7078 27.9115 13.6796V18.7973H24.7817ZM27.9115 11.2053H31.0202C31.3868 11.2053 31.697 11.1207 31.9507 10.9515C32.2186 10.7683 32.416 10.4863 32.5429 10.1056C32.6698 9.71088 32.7332 9.18923 32.7332 8.5407C32.7332 7.90627 32.6627 7.40578 32.5217 7.03921C32.3948 6.65856 32.2045 6.38364 31.9507 6.21445C31.7111 6.04527 31.422 5.96068 31.0837 5.96068H27.9115V11.2053Z" fill="white"/>
<path d="M41.6172 18.7973V5.96068H37.3242V3.14803H49.0612V5.96068H44.7471V18.7973H41.6172Z" fill="white"/>
<path d="M57.1192 18.9242C56.0477 18.9242 55.1101 18.8255 54.3065 18.6282C53.5029 18.4167 52.8262 18.036 52.2763 17.4862C51.7406 16.9222 51.3388 16.1186 51.0709 15.0753C50.803 14.0321 50.6691 12.6716 50.6691 10.9938C50.6691 9.31612 50.803 7.95562 51.0709 6.91233C51.3529 5.85494 51.7617 5.04428 52.2975 4.48034C52.8332 3.9164 53.5029 3.52869 54.3065 3.31722C55.1101 3.10574 56.0477 3 57.1192 3C58.1906 3 59.1282 3.10574 59.9318 3.31722C60.7354 3.52869 61.4051 3.9164 61.9408 4.48034C62.4766 5.04428 62.8784 5.85494 63.1463 6.91233C63.4141 7.95562 63.5481 9.31612 63.5481 10.9938C63.5481 12.6716 63.4141 14.0321 63.1463 15.0753C62.8784 16.1186 62.4766 16.9222 61.9408 17.4862C61.4051 18.036 60.7354 18.4167 59.9318 18.6282C59.1282 18.8255 58.1906 18.9242 57.1192 18.9242ZM57.1192 16.1116C57.7536 16.1116 58.2823 16.0411 58.7052 15.9001C59.1282 15.7591 59.4595 15.5124 59.6992 15.1599C59.953 14.7934 60.1362 14.2788 60.249 13.6162C60.3618 12.9394 60.4182 12.0653 60.4182 10.9938C60.4182 9.86596 60.3618 8.96366 60.249 8.28693C60.1362 7.6102 59.953 7.09561 59.6992 6.74315C59.4595 6.37659 59.1282 6.12986 58.7052 6.00298C58.2823 5.87609 57.7536 5.81265 57.1192 5.81265C56.5129 5.81265 55.9983 5.87609 55.5754 6.00298C55.1524 6.12986 54.807 6.37659 54.5391 6.74315C54.2854 7.09561 54.095 7.6102 53.9682 8.28693C53.8554 8.96366 53.799 9.86596 53.799 10.9938C53.799 12.0653 53.8483 12.9394 53.947 13.6162C54.0598 14.2788 54.2431 14.7934 54.4968 15.1599C54.7506 15.5124 55.089 15.7591 55.5119 15.9001C55.949 16.0411 56.4847 16.1116 57.1192 16.1116Z" fill="white"/>
<path d="M66.3865 18.7973V3.14803H68.9031L75.4589 13.4681V3.14803H78.5887V18.7973H76.0721L69.5375 8.47726V18.7973H66.3865Z" fill="white"/>
<path d="M81.5938 18.7973V3.14803H84.7237V18.7973H81.5938Z" fill="white"/>
<path d="M91.1392 18.7973V5.96068H86.8462V3.14803H98.5832V5.96068H94.2691V18.7973H91.1392Z" fill="white"/>
<path d="M104.296 18.9031C103.958 18.9031 103.57 18.8678 103.133 18.7973C102.696 18.741 102.273 18.6 101.864 18.3744C101.47 18.1488 101.138 17.8105 100.87 17.3593C100.617 16.8941 100.49 16.2596 100.49 15.456V6.722C100.49 6.03117 100.595 5.45314 100.807 4.98789C101.018 4.52264 101.3 4.15608 101.653 3.8882C102.005 3.62033 102.393 3.43 102.816 3.31722C103.239 3.20443 103.655 3.14803 104.064 3.14803C105.121 3.14803 106.052 3.16213 106.855 3.19033C107.673 3.21853 108.406 3.25377 109.054 3.29607C109.703 3.32427 110.295 3.36656 110.831 3.42295V6.04527H104.994C104.557 6.04527 104.219 6.15101 103.979 6.36249C103.739 6.57397 103.62 6.89823 103.62 7.33528V9.59809L109.816 9.76727V12.2416L103.62 12.4107V14.5678C103.62 14.9344 103.676 15.2234 103.789 15.4349C103.916 15.6322 104.078 15.7732 104.275 15.8578C104.487 15.9283 104.705 15.9636 104.931 15.9636H110.831V18.5859C110.211 18.6564 109.52 18.7128 108.758 18.7551C108.011 18.7973 107.25 18.8326 106.474 18.8608C105.713 18.889 104.987 18.9031 104.296 18.9031Z" fill="white"/>
<path d="M0 32.0927V25.0666H2.90371C3.12586 25.0666 3.35117 25.0952 3.57966 25.1523C3.80815 25.2031 4.0176 25.3078 4.20801 25.4665C4.40476 25.6252 4.56026 25.86 4.6745 26.171C4.7951 26.482 4.85539 26.8977 4.85539 27.4182C4.85539 27.9386 4.7951 28.3575 4.6745 28.6749C4.55391 28.9922 4.39524 29.2366 4.19849 29.4079C4.00808 29.573 3.79863 29.6872 3.57014 29.7507C3.348 29.8078 3.1322 29.8364 2.92276 29.8364C2.81486 29.8364 2.6784 29.8332 2.51338 29.8268C2.35471 29.8141 2.18651 29.8014 2.0088 29.7887C1.83743 29.7697 1.67559 29.7538 1.52326 29.7411C1.37728 29.7221 1.25986 29.7062 1.17101 29.6935V32.0927H0ZM1.17101 28.7701H2.75139C2.93545 28.7701 3.0973 28.7288 3.23693 28.6463C3.37656 28.5574 3.48446 28.4178 3.56062 28.2274C3.63678 28.0307 3.67486 27.7641 3.67486 27.4277C3.67486 27.0977 3.63361 26.8374 3.5511 26.647C3.47494 26.4566 3.37021 26.3233 3.23693 26.2472C3.10999 26.1647 2.96084 26.1234 2.78947 26.1234H1.17101V28.7701Z" fill="white"/>
<path d="M8.69433 32.1498C8.22466 32.1498 7.81211 32.1054 7.45668 32.0165C7.1076 31.9213 6.81247 31.7531 6.57129 31.5119C6.33645 31.2644 6.15874 30.9058 6.03815 30.4361C5.9239 29.9665 5.86678 29.354 5.86678 28.5987C5.86678 27.8371 5.92708 27.2214 6.04767 26.7517C6.16826 26.2757 6.34597 25.914 6.58081 25.6664C6.82199 25.4125 7.11712 25.238 7.4662 25.1428C7.82163 25.0476 8.23101 25 8.69433 25C9.17035 25 9.58607 25.0476 9.9415 25.1428C10.2969 25.238 10.5921 25.4125 10.8269 25.6664C11.0617 25.914 11.2363 26.2757 11.3505 26.7517C11.4711 27.2214 11.5314 27.8371 11.5314 28.5987C11.5314 29.354 11.4711 29.9665 11.3505 30.4361C11.2363 30.9058 11.0586 31.2644 10.8174 31.5119C10.5825 31.7531 10.2874 31.9213 9.93198 32.0165C9.5829 32.1054 9.17035 32.1498 8.69433 32.1498ZM8.69433 31.093C9.00533 31.093 9.26556 31.0613 9.475 30.9978C9.6908 30.928 9.86217 30.8074 9.9891 30.6361C10.116 30.4583 10.2081 30.2076 10.2652 29.884C10.3223 29.5539 10.3509 29.1255 10.3509 28.5987C10.3509 28.0402 10.3191 27.5959 10.2557 27.2658C10.1986 26.9295 10.1065 26.6756 9.97958 26.5042C9.85264 26.3265 9.68445 26.2091 9.475 26.152C9.26556 26.0885 9.00533 26.0568 8.69433 26.0568C8.40238 26.0568 8.15167 26.0885 7.94222 26.152C7.73278 26.2091 7.56141 26.3265 7.42812 26.5042C7.30119 26.6756 7.20598 26.9295 7.14251 27.2658C7.07904 27.5959 7.04731 28.0402 7.04731 28.5987C7.04731 29.1255 7.0727 29.5539 7.12347 29.884C7.18059 30.2076 7.27262 30.4583 7.39956 30.6361C7.5265 30.8074 7.69469 30.928 7.90414 30.9978C8.11994 31.0613 8.38333 31.093 8.69433 31.093Z" fill="white"/>
<path d="M14.0035 32.0927L12.2803 25.0666H13.4989L14.7651 30.379L16.2313 25.0666H17.3356L18.7923 30.379L20.0585 25.0666H21.2771L19.5539 32.0927H18.3353L16.7835 26.7708L15.2221 32.0927H14.0035Z" fill="white"/>
<path d="M23.7316 32.1403C23.5793 32.1403 23.4079 32.1244 23.2175 32.0927C23.0335 32.0673 22.8557 32.007 22.6844 31.9118C22.513 31.8102 22.3734 31.6611 22.2655 31.4643C22.1576 31.2676 22.1036 30.9978 22.1036 30.6551V26.5994C22.1036 26.3011 22.1481 26.0536 22.2369 25.8568C22.3258 25.6537 22.4432 25.4951 22.5892 25.3808C22.7415 25.2666 22.9065 25.1872 23.0842 25.1428C23.2683 25.092 23.4492 25.0666 23.6269 25.0666C24.0712 25.0666 24.471 25.073 24.8265 25.0857C25.1819 25.0984 25.5056 25.1111 25.7975 25.1238C26.0958 25.1365 26.3719 25.1523 26.6258 25.1714V26.152H23.9696C23.7538 26.152 23.5825 26.2059 23.4555 26.3138C23.3349 26.4217 23.2746 26.5899 23.2746 26.8184V28.0656L26.1974 28.1322V29.0557L23.2746 29.1223V30.3314C23.2746 30.5218 23.3064 30.6678 23.3698 30.7693C23.4397 30.8709 23.5253 30.9407 23.6269 30.9788C23.7348 31.0169 23.8459 31.0359 23.9601 31.0359H26.6258V32.0165C26.3465 32.0419 26.0419 32.0641 25.7119 32.0832C25.3818 32.0959 25.0454 32.1054 24.7027 32.1117C24.3663 32.1244 24.0426 32.1339 23.7316 32.1403Z" fill="white"/>
<path d="M27.9468 32.0927V25.0666H30.8029C31.0631 25.0666 31.3075 25.0984 31.5359 25.1618C31.7708 25.219 31.9771 25.3269 32.1548 25.4855C32.3388 25.6442 32.4816 25.8664 32.5832 26.152C32.6911 26.4312 32.745 26.7962 32.745 27.2468C32.745 27.5959 32.7101 27.8878 32.6403 28.1227C32.5705 28.3512 32.4785 28.5384 32.3642 28.6844C32.25 28.8304 32.1199 28.9446 31.9739 29.0271C31.8342 29.1033 31.6946 29.1668 31.555 29.2175L32.9069 32.0927H31.7168L30.4982 29.3889C30.4094 29.3889 30.3046 29.3889 30.184 29.3889C30.0698 29.3889 29.9492 29.3889 29.8223 29.3889C29.6953 29.3825 29.5716 29.3794 29.451 29.3794C29.3304 29.373 29.2193 29.3699 29.1178 29.3699V32.0927H27.9468ZM29.1178 28.4464H30.6029C30.7426 28.4464 30.8695 28.4305 30.9838 28.3988C31.098 28.3607 31.1996 28.2972 31.2884 28.2084C31.3773 28.1195 31.4439 27.9989 31.4883 27.8466C31.5391 27.6943 31.5645 27.4975 31.5645 27.2563C31.5645 27.0215 31.5391 26.8311 31.4883 26.6851C31.4439 26.5328 31.3773 26.4185 31.2884 26.3424C31.1996 26.2599 31.0948 26.2027 30.9742 26.171C30.86 26.1393 30.7362 26.1234 30.6029 26.1234H29.1178V28.4464Z" fill="white"/>
<path d="M35.6689 32.1403C35.5166 32.1403 35.3452 32.1244 35.1548 32.0927C34.9707 32.0673 34.793 32.007 34.6217 31.9118C34.4503 31.8102 34.3107 31.6611 34.2028 31.4643C34.0949 31.2676 34.0409 30.9978 34.0409 30.6551V26.5994C34.0409 26.3011 34.0853 26.0536 34.1742 25.8568C34.2631 25.6537 34.3805 25.4951 34.5265 25.3808C34.6788 25.2666 34.8438 25.1872 35.0215 25.1428C35.2056 25.092 35.3865 25.0666 35.5642 25.0666C36.0085 25.0666 36.4083 25.073 36.7637 25.0857C37.1192 25.0984 37.4429 25.1111 37.7348 25.1238C38.0331 25.1365 38.3092 25.1523 38.5631 25.1714V26.152H35.9069C35.6911 26.152 35.5197 26.2059 35.3928 26.3138C35.2722 26.4217 35.2119 26.5899 35.2119 26.8184V28.0656L38.1347 28.1322V29.0557L35.2119 29.1223V30.3314C35.2119 30.5218 35.2437 30.6678 35.3071 30.7693C35.3769 30.8709 35.4626 30.9407 35.5642 30.9788C35.6721 31.0169 35.7831 31.0359 35.8974 31.0359H38.5631V32.0165C38.2838 32.0419 37.9792 32.0641 37.6491 32.0832C37.3191 32.0959 36.9827 32.1054 36.64 32.1117C36.3036 32.1244 35.9799 32.1339 35.6689 32.1403Z" fill="white"/>
<path d="M39.884 32.0927V25.0666H42.7878C43.2447 25.0666 43.6255 25.1492 43.9302 25.3142C44.2412 25.4728 44.4887 25.7077 44.6728 26.0187C44.8569 26.3233 44.987 26.6915 45.0631 27.123C45.1456 27.5546 45.1869 28.0402 45.1869 28.5797C45.1869 29.354 45.098 30.0014 44.9203 30.5218C44.7426 31.0359 44.476 31.4263 44.1206 31.6928C43.7652 31.9594 43.3209 32.0927 42.7878 32.0927H39.884ZM41.055 31.0359H42.6735C42.9972 31.0359 43.2543 30.9407 43.4447 30.7503C43.6414 30.5599 43.7842 30.2806 43.8731 29.9125C43.9683 29.5444 44.0159 29.1001 44.0159 28.5797C44.0159 28.0973 43.9873 27.6974 43.9302 27.3801C43.8731 27.0627 43.7906 26.812 43.6827 26.628C43.5748 26.4439 43.4351 26.3138 43.2638 26.2376C43.0988 26.1615 42.902 26.1234 42.6735 26.1234H41.055V31.0359Z" fill="white"/>
<path d="M49.1902 32.0927V25.0666H51.875C52.535 25.0666 53.0238 25.2221 53.3411 25.5331C53.6584 25.8441 53.8171 26.2979 53.8171 26.8946C53.8171 27.1738 53.7727 27.4213 53.6838 27.6371C53.6013 27.8466 53.4871 28.0211 53.3411 28.1608C53.1951 28.294 53.0238 28.3861 52.827 28.4369C52.973 28.4749 53.1158 28.5352 53.2554 28.6177C53.4014 28.6939 53.5347 28.8018 53.6553 28.9414C53.7759 29.0811 53.8711 29.2524 53.9409 29.4555C54.0107 29.6523 54.0456 29.884 54.0456 30.1505C54.0456 30.6329 53.9631 31.0169 53.7981 31.3025C53.6394 31.5818 53.4046 31.7849 53.0936 31.9118C52.7889 32.0324 52.4208 32.0927 51.9892 32.0927H49.1902ZM50.3612 31.0359H51.9511C52.1479 31.0359 52.3192 31.001 52.4652 30.9312C52.6112 30.8614 52.7223 30.7503 52.7984 30.598C52.8809 30.4393 52.9222 30.2235 52.9222 29.9506C52.9222 29.7348 52.8809 29.5539 52.7984 29.4079C52.7159 29.262 52.6017 29.1509 52.4557 29.0747C52.3097 28.9922 52.1415 28.951 51.9511 28.951H50.3612V31.0359ZM50.3612 28.037H51.894C52.1288 28.037 52.3192 27.9513 52.4652 27.7799C52.6112 27.6022 52.6874 27.3706 52.6937 27.085C52.7001 26.7232 52.6207 26.4725 52.4557 26.3329C52.297 26.1932 52.1003 26.1234 51.8654 26.1234H50.3612V28.037Z" fill="white"/>
<path d="M56.9983 32.0927V29.8935L54.8467 25.0666H56.0653L57.6076 28.6939L59.1499 25.0666H60.3399L58.1788 29.8935V32.0927H56.9983Z" fill="white"/>
<path d="M193.677 12.1319C193.677 10.2371 193.671 8.34242 193.68 6.44769C193.68 5.9609 193.906 5.57557 194.32 5.30253C194.566 5.13829 194.856 5.05241 195.152 5.05628C197.389 5.0597 199.626 5.0597 201.864 5.05628C202.204 5.05314 202.543 5.10611 202.867 5.21304C203.13 5.30196 203.404 5.37036 203.648 5.4952C203.971 5.65936 204.288 5.84518 204.549 6.10397C204.769 6.32286 205.001 6.53376 205.195 6.77374C205.347 6.96127 205.455 7.18529 205.573 7.40076C205.665 7.56127 205.745 7.7288 205.811 7.9018C205.868 8.05627 205.873 8.22728 205.922 8.38517C206.075 8.87766 205.998 9.38042 205.991 9.87861C205.988 10.0758 205.902 10.2725 205.85 10.4686C205.82 10.5826 205.785 10.6903 205.744 10.798C205.69 10.9513 205.627 11.1014 205.557 11.2478C205.484 11.3814 205.403 11.5097 205.312 11.6314C205.213 11.7688 205.098 11.8948 205.001 12.0338C204.986 12.0561 204.977 12.0813 204.974 12.1076C204.971 12.1339 204.974 12.1606 204.983 12.1855C205.135 12.3986 205.307 12.5976 205.454 12.8125C205.532 12.9428 205.6 13.0791 205.656 13.22C205.707 13.33 205.759 13.4406 205.802 13.5541C205.846 13.6675 205.878 13.7707 205.908 13.8813C206.014 14.2672 206.012 14.6627 206.007 15.0583C206.014 15.196 206.01 15.334 205.996 15.471C205.957 15.6962 205.896 15.9185 205.841 16.1408C205.814 16.2609 205.78 16.3793 205.739 16.4953C205.689 16.6402 205.626 16.7807 205.553 16.9154C205.456 17.083 205.341 17.2404 205.23 17.3988C204.981 17.7511 204.695 18.0749 204.334 18.3108C204.01 18.5271 203.67 18.7194 203.317 18.886C203.093 18.9903 202.828 19.0063 202.59 19.0855C202.226 19.2063 201.854 19.1596 201.486 19.1607C199.363 19.1664 197.24 19.1607 195.118 19.1676C194.897 19.174 194.679 19.1284 194.48 19.0345C194.281 18.9405 194.107 18.801 193.973 18.6272C193.78 18.3951 193.675 18.1034 193.675 17.8024C193.678 15.9122 193.679 14.022 193.677 12.1319ZM196.504 13.5689V13.7063C196.504 14.5328 196.504 15.3593 196.502 16.1853C196.502 16.3226 196.546 16.3654 196.68 16.3654C198.393 16.362 200.106 16.3688 201.818 16.354C202.046 16.3438 202.269 16.2813 202.469 16.1716C202.643 16.0801 202.796 15.9513 202.914 15.7944C203.033 15.6375 203.116 15.4564 203.156 15.2641C203.206 15.0605 203.209 14.848 203.163 14.6434C203.117 14.4387 203.024 14.2475 202.891 14.0847C202.592 13.7159 202.204 13.5375 201.711 13.541C200.05 13.5524 198.39 13.5449 196.729 13.5461C196.654 13.5498 196.579 13.5574 196.504 13.5689ZM199.284 7.87159H196.738C196.534 7.87159 196.504 7.90066 196.504 8.09959V10.4937C196.504 10.6783 196.518 10.6949 196.707 10.6954C198.395 10.6954 200.083 10.6954 201.771 10.6954C202.082 10.7053 202.386 10.6065 202.63 10.4161C202.905 10.1967 203.1 9.91338 203.16 9.57194C203.198 9.38665 203.196 9.19554 203.156 9.01077C203.116 8.826 203.037 8.65158 202.926 8.4986C202.639 8.10586 202.255 7.89382 201.787 7.88014C200.954 7.85506 200.12 7.87216 199.284 7.87159Z" fill="white"/>
<path d="M252.119 12.1336C252.119 13.2776 252.127 14.4222 252.112 15.5668C252.112 15.7732 252.02 15.9795 251.965 16.1847C251.939 16.2926 251.905 16.3983 251.862 16.5005C251.791 16.6595 251.71 16.8146 251.628 16.9685C251.572 17.0722 251.511 17.1727 251.444 17.2695C251.321 17.4479 251.211 17.6417 251.059 17.7927C250.827 18.0271 250.576 18.2413 250.307 18.4329C250.021 18.6341 249.716 18.8182 249.368 18.9122C249.093 18.9869 248.821 19.0696 248.546 19.1402C248.471 19.156 248.394 19.162 248.317 19.1579C246.366 19.1579 244.415 19.1642 242.464 19.1522C242.22 19.1522 241.976 19.0656 241.736 19.0046C241.555 18.9596 241.378 18.9003 241.207 18.8273C241.014 18.741 240.825 18.644 240.642 18.5366C240.244 18.2996 239.892 17.994 239.602 17.6343C239.362 17.3619 239.168 17.053 239.026 16.7194C238.953 16.5353 238.864 16.3569 238.797 16.1716C238.752 16.0531 238.72 15.93 238.702 15.8045C238.656 15.5401 238.628 15.2729 238.618 15.0048C238.611 13.0576 238.612 11.1104 238.622 9.16328C238.622 8.87827 238.698 8.58756 238.76 8.30427C238.8 8.07654 238.868 7.85441 238.961 7.64248C239.103 7.33884 239.274 7.04979 239.472 6.77948C239.676 6.51608 239.907 6.27392 240.16 6.0567C240.488 5.771 240.863 5.5435 241.269 5.38408C241.571 5.26324 241.873 5.15607 242.2 5.12928C242.454 5.10933 242.7 5.06259 242.949 5.06202C244.657 5.05632 246.364 5.05233 248.072 5.06715C248.379 5.06715 248.689 5.1441 248.988 5.2182C249.261 5.28102 249.526 5.37454 249.777 5.49694C250.059 5.64651 250.327 5.82067 250.578 6.01737C250.778 6.17276 250.962 6.34643 251.128 6.53608C251.302 6.72295 251.457 6.92606 251.591 7.14257C251.703 7.34802 251.796 7.56277 251.871 7.78441C251.966 8.01793 252.045 8.25772 252.107 8.50206C252.146 8.6799 252.133 8.87086 252.134 9.05611C252.136 10.0821 252.136 11.1082 252.134 12.1342L252.119 12.1336ZM241.495 12.1245C241.495 13.0597 241.495 13.9951 241.495 14.9307C241.495 15.1798 241.525 15.4118 241.662 15.6381C241.942 16.1038 242.349 16.3563 242.881 16.3603C244.526 16.3711 246.172 16.3603 247.817 16.3671C248.183 16.375 248.539 16.2506 248.819 16.0171C249.105 15.7806 249.299 15.4751 249.3 15.0903C249.305 13.1106 249.3 11.1304 249.303 9.15074C249.298 8.94913 249.236 8.75307 249.124 8.58528C248.842 8.12927 248.418 7.88359 247.89 7.87846C246.327 7.86364 244.762 7.87846 243.195 7.87048C242.819 7.87048 242.465 7.90697 242.132 8.11217C241.89 8.26037 241.731 8.46558 241.6 8.69986C241.485 8.89708 241.494 9.11654 241.493 9.33257C241.494 10.2628 241.495 11.1935 241.495 12.1245Z" fill="white"/>
<path d="M236.115 5.05618V7.87148H235.922C233.231 7.87148 230.54 7.87148 227.849 7.87148C227.578 7.87148 227.341 7.97352 227.1 8.09949C226.842 8.23059 226.699 8.44663 226.553 8.66552C226.488 8.77894 226.452 8.90653 226.448 9.03716C226.433 9.24465 226.41 9.46354 226.458 9.66076C226.535 9.95873 226.709 10.2229 226.953 10.412C227.239 10.644 227.572 10.697 227.927 10.697C229.343 10.697 230.76 10.6919 232.177 10.697C232.495 10.6955 232.814 10.7195 233.129 10.7689C233.382 10.8116 233.624 10.9222 233.873 10.9969C234.233 11.1108 234.569 11.2904 234.864 11.5264C235.111 11.7148 235.344 11.9213 235.561 12.1443C235.709 12.3066 235.837 12.4852 235.944 12.6767C236.075 12.8967 236.182 13.1327 236.297 13.3607C236.447 13.6566 236.496 13.9769 236.567 14.2967C236.642 14.6341 236.632 14.9647 236.618 15.2959C236.608 15.5336 236.528 15.7685 236.475 16.0033C236.447 16.1381 236.412 16.2712 236.37 16.4023C236.329 16.5069 236.282 16.6089 236.229 16.7079C236.194 16.7797 236.162 16.8521 236.122 16.9205C236.029 17.0795 235.95 17.2522 235.835 17.3902C235.601 17.666 235.352 17.9311 235.091 18.1825C234.937 18.3246 234.768 18.4498 234.587 18.5558C234.386 18.677 234.178 18.7862 233.964 18.883C233.847 18.9302 233.726 18.9672 233.602 18.9936C233.412 19.0443 233.223 19.1002 233.03 19.1367C232.897 19.1581 232.763 19.1671 232.629 19.1635C231.413 19.1665 230.196 19.1677 228.979 19.1669H223.809V16.363H224.022C226.77 16.363 229.518 16.3617 232.267 16.359C232.475 16.359 232.7 16.3402 232.887 16.2604C233.223 16.1162 233.508 15.8893 233.645 15.5296C233.703 15.3723 233.784 15.207 233.783 15.0463C233.783 14.8325 233.72 14.6153 233.662 14.4056C233.601 14.1855 233.453 14.0134 233.279 13.8709C233.059 13.6913 232.816 13.5545 232.518 13.5528C232.132 13.5528 231.746 13.546 231.359 13.5454C230.128 13.5454 228.897 13.5454 227.667 13.5374C227.439 13.5376 227.212 13.5135 226.989 13.4656C226.75 13.409 226.515 13.3314 226.29 13.2336C226.045 13.1323 225.807 13.0148 225.578 12.8819C225.219 12.6772 224.901 12.4082 224.64 12.0885C224.443 11.8495 224.261 11.5986 224.095 11.3372C223.969 11.1308 223.895 10.8943 223.795 10.6714C223.643 10.3294 223.623 9.96059 223.573 9.60091C223.542 9.38487 223.578 9.15858 223.589 8.93741C223.593 8.84792 223.611 8.759 223.619 8.66951C223.648 8.35087 223.75 8.05446 223.862 7.75748C224.024 7.32547 224.264 6.92656 224.57 6.5804C224.784 6.33686 225.022 6.11482 225.28 5.91747C225.537 5.72975 225.81 5.56531 226.097 5.42612C226.286 5.33093 226.503 5.28989 226.706 5.21978C227.195 5.04991 227.701 5.05618 228.209 5.05618C230.781 5.05922 233.353 5.05922 235.926 5.05618H236.115Z" fill="white"/>
<path d="M221.572 12.1243C221.572 13.0597 221.58 13.9957 221.568 14.9311C221.565 15.2516 221.533 15.5713 221.474 15.8864C221.431 16.1116 221.332 16.3293 221.239 16.5425C221.13 16.7905 221.029 17.0504 220.872 17.267C220.661 17.5546 220.422 17.8218 220.161 18.065C219.929 18.2771 219.677 18.4658 219.408 18.6282C219.205 18.745 218.989 18.8387 218.764 18.9075C218.495 18.9999 218.22 19.0745 217.943 19.1401C217.816 19.162 217.687 19.1696 217.559 19.1629C216.08 19.1629 214.601 19.1638 213.122 19.1657C212.774 19.1657 212.426 19.1771 212.078 19.1606C211.804 19.156 211.53 19.1224 211.263 19.0603C210.777 18.9316 210.316 18.7224 209.899 18.4412C209.495 18.1715 209.14 17.8349 208.85 17.446C208.62 17.1319 208.433 16.7883 208.295 16.4245C208.09 15.8961 208.039 15.3535 208.04 14.7949C208.047 13.0044 208.04 11.214 208.043 9.42361C208.035 9.23864 208.039 9.05331 208.057 8.86898C208.092 8.61019 208.156 8.35597 208.21 8.10003C208.273 7.80077 208.411 7.53344 208.554 7.26667C208.726 6.95589 208.938 6.66852 209.184 6.41165C209.487 6.08872 209.837 5.81282 210.222 5.59311C210.433 5.47226 210.669 5.3936 210.896 5.30297C211.395 5.10346 211.917 5.05615 212.452 5.05615C214.121 5.06299 215.791 5.05159 217.461 5.06698C217.772 5.06698 218.09 5.14222 218.392 5.21747C218.668 5.28622 218.937 5.38168 219.194 5.50247C219.404 5.60109 219.584 5.75955 219.787 5.8764C220.104 6.05881 220.337 6.33242 220.577 6.59405C220.694 6.7348 220.801 6.88293 220.898 7.03752C220.978 7.14298 221.051 7.25362 221.116 7.3687C221.192 7.51837 221.258 7.67214 221.316 7.82927C221.373 7.98717 221.423 8.14962 221.476 8.31037C221.479 8.31927 221.481 8.32843 221.482 8.33773C221.513 8.59366 221.568 8.85074 221.571 9.10611C221.581 10.1128 221.575 11.1194 221.575 12.1272L221.572 12.1243ZM210.874 12.1158C210.874 12.9987 210.872 13.8828 210.874 14.7652C210.874 14.9602 210.866 15.1505 210.939 15.3489C211.045 15.6339 211.183 15.8762 211.434 16.0591C211.686 16.2544 211.996 16.361 212.315 16.3624C213.956 16.3601 215.598 16.3601 217.239 16.3624C217.589 16.369 217.929 16.2507 218.199 16.0289C218.367 15.8986 218.502 15.7315 218.595 15.5408C218.687 15.35 218.734 15.1406 218.732 14.9288C218.744 13.058 218.743 11.187 218.729 9.31587C218.725 9.07703 218.664 8.84255 218.551 8.63186C218.276 8.13138 217.822 7.87431 217.248 7.87146C215.655 7.86348 214.062 7.86804 212.469 7.87146C212.3 7.86885 212.131 7.88801 211.967 7.92846C211.766 7.97498 211.578 8.0664 211.417 8.19579C211.074 8.4808 210.874 8.82908 210.874 9.27882V12.1158Z" fill="white"/>
<path d="M266.749 5.05615V5.24369C266.749 9.39529 266.748 13.5465 266.745 17.6974C266.751 17.8965 266.719 18.095 266.653 18.2828C266.537 18.5837 266.32 18.8349 266.038 18.993C265.729 19.1637 265.37 19.2182 265.024 19.1463C264.69 19.0853 264.417 18.8875 264.193 18.6333C263.775 18.1551 263.356 17.6774 262.942 17.1963C262.645 16.8543 262.355 16.5009 262.058 16.1555C261.84 15.9018 261.614 15.655 261.396 15.4008C261.158 15.1243 260.926 14.8416 260.688 14.564C260.42 14.2505 260.148 13.9404 259.88 13.6269C259.658 13.3658 259.44 13.1008 259.217 12.8403C259.099 12.7018 258.969 12.5724 258.85 12.4333C258.43 11.9414 258.014 11.4454 257.593 10.9541C257.419 10.75 257.236 10.5551 257.057 10.3527L257.016 10.3664V19.1526H254.179V18.9959C254.179 14.8351 254.179 10.674 254.179 6.51254C254.179 6.04228 254.344 5.6655 254.704 5.37251C254.847 5.25851 255.002 5.15362 255.197 5.13139C255.318 5.11771 255.435 5.06698 255.556 5.06242C256.039 5.04304 256.415 5.26649 256.728 5.61021C257.101 6.0229 257.462 6.44528 257.823 6.86766C258.068 7.15266 258.299 7.45078 258.545 7.73579C258.811 8.04474 259.087 8.34399 259.355 8.65066C259.569 8.8952 259.775 9.14543 259.985 9.39168C260.287 9.74319 260.589 10.0939 260.893 10.4439C261.233 10.8372 261.573 11.2304 261.912 11.6233C262.259 12.0223 262.608 12.4213 262.953 12.8243C263.222 13.1372 263.486 13.4553 263.755 13.7688C263.804 13.817 263.856 13.8615 263.911 13.9022C263.916 13.7996 263.921 13.7261 263.921 13.6531C263.921 10.8555 263.921 8.05785 263.921 5.26022C263.921 5.05672 263.921 5.05672 264.12 5.05672H266.75L266.749 5.05615Z" fill="white"/>
<path d="M209.397 30.7071C209.334 30.7139 209.274 30.7247 209.215 30.7253C208.848 30.7253 208.48 30.7185 208.113 30.7299C208.07 30.7343 208.026 30.7244 207.988 30.7017C207.95 30.679 207.921 30.6446 207.905 30.6039C207.749 30.2841 207.604 29.9581 207.447 29.6377C207.319 29.3755 207.15 29.1281 207.058 28.8545C206.969 28.5917 206.803 28.5855 206.583 28.5895C206.025 28.5992 205.467 28.5923 204.909 28.5929C204.718 28.5929 204.718 28.5929 204.718 28.7833V30.715H203.441C203.441 30.658 203.434 30.6079 203.434 30.5572C203.434 29.1184 203.434 27.6793 203.434 26.2399C203.434 26.0119 203.511 25.7998 203.578 25.5826C203.702 25.1768 203.978 24.8889 204.3 24.6541C204.515 24.4973 204.764 24.3571 205.049 24.3543C205.927 24.3463 206.805 24.3463 207.683 24.3423C208.133 24.3423 208.499 24.5315 208.828 24.8165C209.087 25.0415 209.283 25.3299 209.396 25.6533C209.448 25.8147 209.478 25.9822 209.486 26.1515C209.499 26.3364 209.499 26.5219 209.486 26.7067C209.466 26.9964 209.388 27.2792 209.257 27.5384C209.091 27.8804 208.827 28.1084 208.533 28.3233L208.522 28.3312C208.259 28.4846 208.267 28.4852 208.416 28.7445C208.53 28.948 208.619 29.1675 208.724 29.3778C208.797 29.5226 208.882 29.6628 208.953 29.8059C209.024 29.9489 209.081 30.0943 209.15 30.2362C209.231 30.3884 209.311 30.5361 209.397 30.7071ZM206.22 27.3275C206.601 27.3275 206.983 27.3332 207.365 27.3246C207.494 27.3155 207.622 27.2933 207.747 27.2585C208.024 27.1946 208.205 26.9165 208.202 26.6526C208.198 26.4372 208.177 26.2224 208.14 26.0101C208.11 25.8226 207.871 25.6271 207.682 25.626C206.872 25.622 206.061 25.626 205.25 25.626C205.203 25.6233 205.155 25.6319 205.112 25.651C204.996 25.7124 204.899 25.8034 204.831 25.9146C204.763 26.0259 204.725 26.1533 204.723 26.2838C204.711 26.5539 204.719 26.8253 204.719 27.0955C204.719 27.2995 204.748 27.3286 204.948 27.3286L206.22 27.3275Z" fill="white"/>
<path d="M238.69 27.3866C238.69 28.0273 238.698 28.5266 238.686 29.0242C238.68 29.275 238.572 29.4996 238.457 29.7248C238.324 29.9704 238.137 30.1831 237.91 30.3472C237.729 30.4824 237.523 30.5806 237.304 30.6362C236.547 30.8266 235.772 30.6847 235.006 30.7229C234.815 30.7326 234.624 30.7229 234.433 30.7229C234.133 30.7229 233.866 30.6208 233.597 30.4949C233.272 30.3349 233.001 30.0831 232.818 29.771C232.719 29.6035 232.65 29.4197 232.616 29.2283C232.465 28.4303 232.576 27.6209 232.545 26.8166C232.539 26.6604 232.54 26.5036 232.541 26.3469C232.545 25.6344 232.828 25.0541 233.414 24.6459C233.665 24.4715 233.952 24.3438 234.273 24.345C235.217 24.3478 236.162 24.3421 237.105 24.3575C237.373 24.3621 237.612 24.4966 237.835 24.6425C238.058 24.7884 238.252 24.9612 238.379 25.1972C238.466 25.342 238.539 25.4946 238.597 25.6532C238.789 26.2682 238.638 26.9043 238.69 27.3866ZM237.41 27.5217V26.283C237.41 26.1571 237.419 26.0322 237.326 25.9256C237.198 25.778 237.086 25.6184 236.855 25.6195C236.031 25.6235 235.206 25.6195 234.382 25.6281C234.277 25.6281 234.163 25.6965 234.072 25.7592C233.867 25.8988 233.843 26.136 233.843 26.3469C233.829 27.1346 233.833 27.9224 233.843 28.7102C233.848 28.8545 233.888 28.9956 233.957 29.1223C234.089 29.3651 234.312 29.4592 234.592 29.4563C235.287 29.4483 235.984 29.4563 236.679 29.45C236.8 29.4473 236.919 29.423 237.03 29.3782C237.147 29.3391 237.248 29.2632 237.317 29.162C237.386 29.0607 237.421 28.9397 237.415 28.8173C237.412 28.3852 237.41 27.9532 237.41 27.5217Z" fill="white"/>
<path d="M251.607 27.5291C251.607 26.9971 251.607 26.4651 251.607 25.9331C251.607 25.7479 251.688 25.5911 251.761 25.4269C251.847 25.2327 251.968 25.0558 252.118 24.9048C252.276 24.7436 252.461 24.6103 252.664 24.5109C252.922 24.3865 253.207 24.3265 253.494 24.3359C254.333 24.3405 255.172 24.3411 256.013 24.3456C256.319 24.3456 256.58 24.4807 256.833 24.6335C257.107 24.8032 257.331 25.0414 257.484 25.3243C257.598 25.5238 257.689 25.7404 257.689 25.9833C257.689 26.999 257.701 28.0148 257.684 29.0306C257.675 29.5624 257.386 29.9722 256.983 30.2966C256.816 30.427 256.634 30.5359 256.44 30.6209C256.297 30.6842 256.144 30.7184 255.988 30.7212C255.087 30.7303 254.186 30.7343 253.285 30.7212C253.044 30.7178 252.817 30.6181 252.598 30.4972C252.369 30.369 252.148 30.2333 252.001 30.0161C251.88 29.8366 251.798 29.6302 251.687 29.4427C251.557 29.2238 251.605 28.9867 251.598 28.7541C251.585 28.3465 251.595 27.9378 251.595 27.5297L251.607 27.5291ZM252.889 27.5138C252.889 27.9888 252.889 28.4638 252.889 28.9388C252.889 28.9901 252.882 29.0556 252.91 29.0916C253.069 29.299 253.253 29.47 253.543 29.4678C254.22 29.4632 254.897 29.4678 255.574 29.4678C255.734 29.4678 255.888 29.4718 256.043 29.3959C256.209 29.3139 256.398 29.1109 256.399 28.9228C256.402 27.9926 256.402 27.0615 256.399 26.1298C256.399 25.8852 256.136 25.6264 255.89 25.6247C255.051 25.6207 254.212 25.6247 253.371 25.6247C253.171 25.6247 252.882 25.9023 252.885 26.107C252.893 26.5738 252.889 27.0441 252.889 27.5149V27.5138Z" fill="white"/>
<path d="M219.347 27.5189C219.347 28.0365 219.347 28.5541 219.347 29.0717C219.347 29.3145 219.233 29.5203 219.122 29.7317C218.968 30.0138 218.744 30.2515 218.47 30.422C218.317 30.5241 218.127 30.5765 217.955 30.6432C217.55 30.7971 217.126 30.7093 216.711 30.7207C216.182 30.735 215.653 30.7327 215.123 30.7207C214.923 30.7162 214.706 30.703 214.529 30.6232C214.167 30.4619 213.837 30.2619 213.593 29.9136C213.34 29.5545 213.246 29.1765 213.243 28.7593C213.24 28.0521 213.24 27.3445 213.243 26.6366C213.243 26.3476 213.253 26.0569 213.282 25.7696C213.294 25.6556 213.366 25.5461 213.42 25.439C213.599 25.0279 213.924 24.6971 214.332 24.5098C214.592 24.3882 214.877 24.3296 215.164 24.3388C216.003 24.3423 216.843 24.3457 217.683 24.3491C217.984 24.3491 218.249 24.4728 218.489 24.6341C218.662 24.7495 218.817 24.8904 218.947 25.0519C219.074 25.2221 219.177 25.4087 219.254 25.6066C219.436 26.0546 219.323 26.5294 219.35 26.9917C219.361 27.1672 219.35 27.3434 219.35 27.5189H219.347ZM218.078 27.515H218.068C218.068 27.0738 218.072 26.632 218.068 26.1908C218.065 26.041 218.003 25.8982 217.896 25.7925C217.79 25.6869 217.646 25.6265 217.495 25.6242C216.699 25.6189 215.902 25.6189 215.105 25.6242C214.781 25.6242 214.567 25.8363 214.552 26.1595C214.539 26.4485 214.537 26.738 214.538 27.0276C214.541 27.6729 214.549 28.3187 214.557 28.9656C214.553 29.0124 214.562 29.0593 214.583 29.1013C214.745 29.3293 214.949 29.4667 215.251 29.4621C215.956 29.4507 216.663 29.4473 217.369 29.4621C217.754 29.4701 218.108 29.1498 218.084 28.7559C218.059 28.3403 218.078 27.9259 218.078 27.515Z" fill="white"/>
<path d="M194.958 30.7165H193.672V30.5455C193.672 29.1062 193.672 27.6675 193.678 26.2288C193.681 25.5852 193.961 25.0762 194.48 24.6949C194.785 24.4588 195.163 24.3331 195.55 24.338C196.365 24.3483 197.181 24.338 197.996 24.3483C198.415 24.3529 198.758 24.5529 199.067 24.8146C199.349 25.0437 199.55 25.3565 199.64 25.7072C199.717 26.0293 199.702 26.373 199.72 26.7076C199.724 26.776 199.685 26.8455 199.683 26.9151C199.67 27.2759 199.511 27.574 199.297 27.8527C199.118 28.0864 198.885 28.2737 198.618 28.3988C198.364 28.5235 198.084 28.59 197.801 28.5938C196.923 28.5915 196.045 28.5915 195.167 28.5938C194.96 28.5938 194.96 28.5938 194.96 28.8047V30.7182L194.958 30.7165ZM196.447 27.3266C196.781 27.3266 197.114 27.33 197.448 27.3266C197.635 27.3238 197.819 27.3431 198.006 27.2622C198.193 27.1813 198.384 26.996 198.391 26.7868C198.398 26.5639 198.383 26.3405 198.396 26.1176C198.408 25.8947 198.098 25.62 197.892 25.6217C197.124 25.6268 196.355 25.6377 195.588 25.6126C195.239 25.6012 194.958 25.9757 194.961 26.2527C194.966 26.5468 194.961 26.8415 194.961 27.1357C194.961 27.3101 194.979 27.3278 195.161 27.3278L196.447 27.3266Z" fill="white"/>
<path d="M247.841 30.7289H247.631C246.806 30.7289 245.98 30.7209 245.155 30.7334C244.867 30.7439 244.579 30.7093 244.301 30.6308C244.051 30.5525 243.813 30.4382 243.595 30.2917C243.38 30.145 243.186 29.9697 243.018 29.7707C242.843 29.56 242.706 29.3217 242.61 29.0656C242.488 28.7302 242.434 28.3742 242.449 28.0179C242.456 27.6234 242.44 27.229 242.455 26.8357C242.458 26.5919 242.492 26.3494 242.555 26.114C242.619 25.9048 242.758 25.7179 242.859 25.5189C243.005 25.2305 243.238 25.015 243.489 24.8292C243.738 24.6452 244.018 24.5067 244.316 24.4199C244.622 24.3293 244.926 24.3418 245.232 24.3384C246.038 24.3293 246.844 24.335 247.65 24.3384C247.837 24.3384 247.84 24.3424 247.84 24.5311C247.84 24.8207 247.84 25.1102 247.84 25.3998C247.84 25.6107 247.83 25.6192 247.625 25.6198C246.719 25.6198 245.813 25.6244 244.907 25.6198C244.563 25.6198 244.305 25.7749 244.078 26.0069C243.944 26.1437 243.872 26.3101 243.8 26.4891C243.729 26.6681 243.739 26.8374 243.736 27.0112C243.73 27.4148 243.733 27.8184 243.736 28.2219C243.736 28.6455 243.947 28.963 244.271 29.212C244.512 29.3904 244.808 29.4813 245.108 29.4697C245.957 29.4611 246.806 29.4663 247.655 29.4697C247.841 29.4697 247.841 29.4697 247.841 29.6589C247.841 30.0049 247.841 30.3555 247.841 30.7289Z" fill="white"/>
<path d="M226.614 30.7166H225.334V30.5274C225.334 28.9553 225.333 27.3835 225.33 25.8122C225.33 25.6184 225.33 25.6173 225.133 25.6173C224.513 25.6173 223.893 25.6133 223.273 25.6201C223.141 25.6201 223.109 25.5739 223.111 25.4565C223.115 25.1339 223.117 24.8107 223.111 24.4875C223.108 24.3695 223.146 24.3324 223.264 24.333C223.966 24.3376 224.667 24.333 225.368 24.333H228.602C228.837 24.333 228.837 24.333 228.837 24.5707C228.837 24.8512 228.837 25.131 228.837 25.4115C228.837 25.5614 228.784 25.6138 228.632 25.6138C228.017 25.6138 227.401 25.6184 226.786 25.611C226.65 25.611 226.61 25.6458 226.61 25.782C226.615 27.3581 226.613 28.9347 226.613 30.5131L226.614 30.7166Z" fill="white"/>
<path d="M262.735 29.4587H266.827V30.7287H266.695C265.164 30.7287 263.632 30.7287 262.101 30.7287C261.832 30.7287 261.629 30.6118 261.528 30.3519C261.487 30.2566 261.463 30.155 261.456 30.0515C261.452 28.1995 261.456 26.3464 261.45 24.495C261.45 24.3707 261.481 24.3303 261.609 24.3337C261.929 24.3421 262.248 24.3421 262.568 24.3337C262.702 24.3303 262.735 24.3753 262.735 24.5047C262.732 26.0814 262.732 27.6584 262.735 29.2358V29.4587Z" fill="white"/>
<path d="M161.787 11.9201C162.644 12.5571 163.136 13.4612 163.577 14.3845C164.09 15.4545 164.528 16.5559 164.967 17.6577L165.064 17.902C165.112 18.0236 165.161 18.1452 165.209 18.2667C165.48 18.9446 165.761 19.6299 166.214 20.2217C166.914 21.1345 167.804 21.0836 168.391 20.0978C168.885 19.2668 169.137 18.3503 169.308 17.414C169.658 15.4931 170.307 13.7072 171.643 12.2213C173.485 10.1727 175.789 9.07529 178.566 8.95011C178.844 8.93772 178.948 9.00403 178.939 9.30147C178.917 10.0543 178.918 10.8085 178.939 11.5614C178.947 11.8383 178.849 11.8904 178.588 11.9195C176.212 12.1841 174.371 13.2697 173.311 15.4392C172.446 17.2083 172.76 18.8888 173.859 20.4658C175.02 22.1259 176.703 22.8441 178.665 23.0411C178.887 23.0634 178.94 23.1298 178.937 23.3355C178.925 24.089 178.918 24.8431 178.94 25.596C178.948 25.8755 178.836 25.9498 178.588 25.9678C177.521 26.0452 176.508 25.8116 175.529 25.4244C173.743 24.7173 172.232 23.649 171.123 22.0745C170.984 21.8762 170.925 21.9558 170.827 22.0869L170.819 22.098C169.441 23.9483 166.746 24.5382 164.714 23.4346C163.766 22.9197 163.161 22.1024 162.713 21.1605C162.308 20.3109 161.959 19.4384 161.632 18.5579C161.673 18.4976 161.694 18.4341 161.704 18.3688C161.693 18.4327 161.672 18.4951 161.632 18.5542C161.298 17.7106 160.962 16.8671 160.625 16.0235C160.485 15.6555 160.308 15.3025 160.096 14.9701C159.594 14.2067 158.805 14.0815 158.087 14.6727C157.454 15.195 157.134 15.912 156.876 16.6636C156.696 17.1889 156.595 17.732 156.495 18.2752C156.449 18.5235 156.403 18.7717 156.35 19.0183C155.877 21.1933 154.626 22.8553 152.845 24.1664C151.403 25.2465 149.666 25.8767 147.858 25.9765H147.827C147.092 26.0316 147.092 26.0316 147.092 25.3147C147.092 25.1327 147.093 24.9506 147.094 24.7685C147.095 24.3001 147.097 23.8316 147.087 23.364C147.082 23.1304 147.143 23.0542 147.397 23.0405C149.862 22.9166 151.657 21.7207 152.749 19.5704C153.645 17.8081 153.343 16.0892 152.21 14.5177C151.047 12.9029 149.396 12.1011 147.427 11.9096C147.163 11.8836 147.07 11.816 147.077 11.544C147.096 10.8116 147.098 10.0779 147.077 9.34608C147.068 9.04865 147.18 8.98358 147.454 8.98358C149.733 8.98358 151.688 9.82136 153.417 11.2336C154.03 11.7339 154.57 12.3166 155.019 12.9649C155.155 13.1613 155.227 13.1291 155.357 12.9692C155.572 12.704 155.796 12.4456 156.037 12.1996C157.658 10.5333 160.354 10.7285 161.787 11.9201Z" fill="url(#paint0_linear)"/>
<path fill-rule="evenodd" clip-rule="evenodd" d="M185 3H141V32H185V3ZM181.924 6.03632H144.076V28.9017H181.924V6.03632Z" fill="url(#paint1_linear)"/>
<path d="M126 1L126 34" stroke="white" stroke-width="0.7" stroke-linecap="round" stroke-linejoin="round"/>
<defs>
<linearGradient id="paint0_linear" x1="141" y1="17.5" x2="185" y2="17.5" gradientUnits="userSpaceOnUse">
<stop stop-color="#5BF3BF"/>
<stop offset="1" stop-color="#00FAA6"/>
</linearGradient>
<linearGradient id="paint1_linear" x1="141" y1="17.5" x2="185" y2="17.5" gradientUnits="userSpaceOnUse">
<stop stop-color="#5BF3BF"/>
<stop offset="1" stop-color="#00FAA6"/>
</linearGradient>
</defs>
</svg>
