<svg width="267" height="36" viewBox="0 0 267 36" fill="none" xmlns="http://www.w3.org/2000/svg">
<path d="M3.70085 18.7973C2.89724 18.7973 2.21346 18.6775 1.64952 18.4378C1.09968 18.1841 0.683776 17.7893 0.401807 17.2536C0.133935 16.7037 0 15.9847 0 15.0965V3.14803H3.12986V14.589C3.12986 14.9273 3.18626 15.2022 3.29904 15.4137C3.42593 15.6252 3.59511 15.7732 3.80659 15.8578C4.01807 15.9283 4.25774 15.9636 4.52561 15.9636H9.47418V18.7973H3.70085Z" fill="white"/>
<path d="M15.5469 18.9031C15.2085 18.9031 14.8208 18.8678 14.3838 18.7973C13.9467 18.741 13.5237 18.6 13.1149 18.3744C12.7201 18.1488 12.3888 17.8105 12.1209 17.3593C11.8672 16.8941 11.7403 16.2596 11.7403 15.456V6.722C11.7403 6.03117 11.846 5.45314 12.0575 4.98789C12.269 4.52264 12.551 4.15608 12.9034 3.8882C13.2559 3.62033 13.6436 3.43 14.0665 3.31722C14.4895 3.20443 14.9054 3.14803 15.3143 3.14803C16.3716 3.14803 17.3021 3.16213 18.1058 3.19033C18.9235 3.21853 19.6566 3.25377 20.3051 3.29607C20.9536 3.32427 21.5458 3.36656 22.0815 3.42295V6.04527H16.2448C15.8077 6.04527 15.4693 6.15101 15.2297 6.36249C14.99 6.57397 14.8701 6.89823 14.8701 7.33528V9.59809L21.0664 9.76727V12.2416L14.8701 12.4107V14.5678C14.8701 14.9344 14.9265 15.2234 15.0393 15.4349C15.1662 15.6322 15.3283 15.7732 15.5257 15.8578C15.7372 15.9283 15.9557 15.9636 16.1813 15.9636H22.0815V18.5859C21.4612 18.6564 20.7704 18.7128 20.009 18.7551C19.2618 18.7973 18.5005 18.8326 17.7251 18.8608C16.9638 18.889 16.2377 18.9031 15.5469 18.9031Z" fill="white"/>
<path d="M24.7817 18.7973V3.14803H31.3797C31.8873 3.14803 32.4019 3.21148 32.9235 3.33836C33.4593 3.45115 33.9457 3.69083 34.3827 4.05739C34.8339 4.40985 35.1934 4.94559 35.4613 5.66461C35.7432 6.38363 35.8842 7.33528 35.8842 8.51955C35.8842 9.70383 35.7432 10.6625 35.4613 11.3956C35.1934 12.1288 34.8409 12.6857 34.4039 13.0663C33.9668 13.447 33.4945 13.7007 32.987 13.8276C32.4794 13.9545 31.986 14.018 31.5066 14.018C31.2529 14.018 30.9568 14.0109 30.6184 13.9968C30.2801 13.9686 29.9347 13.9334 29.5822 13.8911C29.2438 13.8488 28.9266 13.8135 28.6305 13.7853C28.3345 13.743 28.0948 13.7078 27.9115 13.6796V18.7973H24.7817ZM27.9115 11.2053H31.0202C31.3868 11.2053 31.697 11.1207 31.9507 10.9515C32.2186 10.7683 32.416 10.4863 32.5429 10.1056C32.6698 9.71088 32.7332 9.18923 32.7332 8.5407C32.7332 7.90627 32.6627 7.40578 32.5217 7.03921C32.3948 6.65856 32.2045 6.38364 31.9507 6.21445C31.7111 6.04527 31.422 5.96068 31.0837 5.96068H27.9115V11.2053Z" fill="white"/>
<path d="M41.6172 18.7973V5.96068H37.3242V3.14803H49.0612V5.96068H44.7471V18.7973H41.6172Z" fill="white"/>
<path d="M57.1192 18.9242C56.0477 18.9242 55.1101 18.8255 54.3065 18.6282C53.5029 18.4167 52.8262 18.036 52.2763 17.4862C51.7406 16.9222 51.3388 16.1186 51.0709 15.0753C50.803 14.0321 50.6691 12.6716 50.6691 10.9938C50.6691 9.31612 50.803 7.95562 51.0709 6.91233C51.3529 5.85494 51.7617 5.04428 52.2975 4.48034C52.8332 3.9164 53.5029 3.52869 54.3065 3.31722C55.1101 3.10574 56.0477 3 57.1192 3C58.1906 3 59.1282 3.10574 59.9318 3.31722C60.7354 3.52869 61.4051 3.9164 61.9408 4.48034C62.4766 5.04428 62.8784 5.85494 63.1463 6.91233C63.4141 7.95562 63.5481 9.31612 63.5481 10.9938C63.5481 12.6716 63.4141 14.0321 63.1463 15.0753C62.8784 16.1186 62.4766 16.9222 61.9408 17.4862C61.4051 18.036 60.7354 18.4167 59.9318 18.6282C59.1282 18.8255 58.1906 18.9242 57.1192 18.9242ZM57.1192 16.1116C57.7536 16.1116 58.2823 16.0411 58.7052 15.9001C59.1282 15.7591 59.4595 15.5124 59.6992 15.1599C59.953 14.7934 60.1362 14.2788 60.249 13.6162C60.3618 12.9394 60.4182 12.0653 60.4182 10.9938C60.4182 9.86596 60.3618 8.96366 60.249 8.28693C60.1362 7.6102 59.953 7.09561 59.6992 6.74315C59.4595 6.37659 59.1282 6.12986 58.7052 6.00298C58.2823 5.87609 57.7536 5.81265 57.1192 5.81265C56.5129 5.81265 55.9983 5.87609 55.5754 6.00298C55.1524 6.12986 54.807 6.37659 54.5391 6.74315C54.2854 7.09561 54.095 7.6102 53.9682 8.28693C53.8554 8.96366 53.799 9.86596 53.799 10.9938C53.799 12.0653 53.8483 12.9394 53.947 13.6162C54.0598 14.2788 54.2431 14.7934 54.4968 15.1599C54.7506 15.5124 55.089 15.7591 55.5119 15.9001C55.949 16.0411 56.4847 16.1116 57.1192 16.1116Z" fill="white"/>
<path d="M66.3865 18.7973V3.14803H68.9031L75.4589 13.4681V3.14803H78.5887V18.7973H76.0721L69.5375 8.47726V18.7973H66.3865Z" fill="white"/>
<path d="M81.5938 18.7973V3.14803H84.7237V18.7973H81.5938Z" fill="white"/>
<path d="M91.1392 18.7973V5.96068H86.8462V3.14803H98.5832V5.96068H94.2691V18.7973H91.1392Z" fill="white"/>
<path d="M104.296 18.9031C103.958 18.9031 103.57 18.8678 103.133 18.7973C102.696 18.741 102.273 18.6 101.864 18.3744C101.47 18.1488 101.138 17.8105 100.87 17.3593C100.617 16.8941 100.49 16.2596 100.49 15.456V6.722C100.49 6.03117 100.595 5.45314 100.807 4.98789C101.018 4.52264 101.3 4.15608 101.653 3.8882C102.005 3.62033 102.393 3.43 102.816 3.31722C103.239 3.20443 103.655 3.14803 104.064 3.14803C105.121 3.14803 106.052 3.16213 106.855 3.19033C107.673 3.21853 108.406 3.25377 109.054 3.29607C109.703 3.32427 110.295 3.36656 110.831 3.42295V6.04527H104.994C104.557 6.04527 104.219 6.15101 103.979 6.36249C103.739 6.57397 103.62 6.89823 103.62 7.33528V9.59809L109.816 9.76727V12.2416L103.62 12.4107V14.5678C103.62 14.9344 103.676 15.2234 103.789 15.4349C103.916 15.6322 104.078 15.7732 104.275 15.8578C104.487 15.9283 104.705 15.9636 104.931 15.9636H110.831V18.5859C110.211 18.6564 109.52 18.7128 108.758 18.7551C108.011 18.7973 107.25 18.8326 106.474 18.8608C105.713 18.889 104.987 18.9031 104.296 18.9031Z" fill="white"/>
<path d="M3.07 32.08C2.57 32.08 2.13 31.9833 1.75 31.79C1.37 31.59 1.07667 31.3133 0.87 30.96C0.663333 30.6067 0.56 30.1967 0.56 29.73V27.26C0.56 26.7933 0.663333 26.3833 0.87 26.03C1.07667 25.6767 1.37 25.4033 1.75 25.21C2.13 25.0167 2.57 24.92 3.07 24.92C3.56333 24.92 4 25.0133 4.38 25.2C4.76 25.3867 5.05333 25.65 5.26 25.99C5.46667 26.33 5.57 26.7233 5.57 27.17C5.57 27.2033 5.55667 27.2333 5.53 27.26C5.51 27.28 5.48333 27.29 5.45 27.29L4.53 27.34C4.45 27.34 4.41 27.3033 4.41 27.23C4.41 26.8367 4.28667 26.52 4.04 26.28C3.8 26.04 3.47667 25.92 3.07 25.92C2.66333 25.92 2.33667 26.04 2.09 26.28C1.84333 26.52 1.72 26.8367 1.72 27.23V29.78C1.72 30.1667 1.84333 30.48 2.09 30.72C2.33667 30.96 2.66333 31.08 3.07 31.08C3.47667 31.08 3.8 30.9633 4.04 30.73C4.28667 30.49 4.41 30.1733 4.41 29.78C4.41 29.7067 4.45 29.67 4.53 29.67L5.45 29.71C5.48333 29.71 5.51 29.72 5.53 29.74C5.55667 29.76 5.57 29.7833 5.57 29.81C5.57 30.2633 5.46667 30.6633 5.26 31.01C5.05333 31.35 4.76 31.6133 4.38 31.8C4 31.9867 3.56333 32.08 3.07 32.08ZM9.18398 32.1C8.68398 32.1 8.24065 32 7.85398 31.8C7.46732 31.5933 7.16732 31.3033 6.95398 30.93C6.74732 30.5567 6.64398 30.1267 6.64398 29.64V27.36C6.64398 26.88 6.75065 26.4567 6.96398 26.09C7.17732 25.7167 7.47398 25.43 7.85398 25.23C8.24065 25.0233 8.68398 24.92 9.18398 24.92C9.69065 24.92 10.134 25.0233 10.514 25.23C10.9007 25.43 11.2007 25.7167 11.414 26.09C11.6273 26.4567 11.734 26.88 11.734 27.36V29.64C11.734 30.1267 11.6273 30.5567 11.414 30.93C11.2007 31.3033 10.9007 31.5933 10.514 31.8C10.134 32 9.69065 32.1 9.18398 32.1ZM9.18398 31.1C9.60398 31.1 9.94065 30.97 10.194 30.71C10.4473 30.45 10.574 30.1067 10.574 29.68V27.35C10.574 26.9167 10.4473 26.57 10.194 26.31C9.94065 26.05 9.60398 25.92 9.18398 25.92C8.77065 25.92 8.43732 26.05 8.18398 26.31C7.93065 26.57 7.80398 26.9167 7.80398 27.35V29.68C7.80398 30.1067 7.93065 30.45 8.18398 30.71C8.43732 30.97 8.77065 31.1 9.18398 31.1ZM17.0949 25.12C17.0949 25.0867 17.1049 25.06 17.1249 25.04C17.1516 25.0133 17.1816 25 17.2149 25H18.1349C18.1683 25 18.1949 25.0133 18.2149 25.04C18.2416 25.06 18.2549 25.0867 18.2549 25.12V31.88C18.2549 31.9133 18.2416 31.9433 18.2149 31.97C18.1949 31.99 18.1683 32 18.1349 32H17.2449C17.1783 32 17.1316 31.9733 17.1049 31.92L14.2249 27.2C14.2116 27.18 14.1983 27.1733 14.1849 27.18C14.1716 27.18 14.1649 27.1933 14.1649 27.22L14.1849 31.88C14.1849 31.9133 14.1716 31.9433 14.1449 31.97C14.1249 31.99 14.0983 32 14.0649 32H13.1449C13.1116 32 13.0816 31.99 13.0549 31.97C13.0349 31.9433 13.0249 31.9133 13.0249 31.88V25.12C13.0249 25.0867 13.0349 25.06 13.0549 25.04C13.0816 25.0133 13.1116 25 13.1449 25H14.0349C14.1016 25 14.1483 25.0267 14.1749 25.08L17.0449 29.8C17.0583 29.82 17.0716 29.83 17.0849 29.83C17.0983 29.8233 17.1049 29.8067 17.1049 29.78L17.0949 25.12ZM23.6965 25.12C23.6965 25.0867 23.7065 25.06 23.7265 25.04C23.7532 25.0133 23.7832 25 23.8165 25H24.7365C24.7698 25 24.7965 25.0133 24.8165 25.04C24.8432 25.06 24.8565 25.0867 24.8565 25.12V31.88C24.8565 31.9133 24.8432 31.9433 24.8165 31.97C24.7965 31.99 24.7698 32 24.7365 32H23.8465C23.7798 32 23.7332 31.9733 23.7065 31.92L20.8265 27.2C20.8132 27.18 20.7998 27.1733 20.7865 27.18C20.7732 27.18 20.7665 27.1933 20.7665 27.22L20.7865 31.88C20.7865 31.9133 20.7732 31.9433 20.7465 31.97C20.7265 31.99 20.6998 32 20.6665 32H19.7465C19.7132 32 19.6832 31.99 19.6565 31.97C19.6365 31.9433 19.6265 31.9133 19.6265 31.88V25.12C19.6265 25.0867 19.6365 25.06 19.6565 25.04C19.6832 25.0133 19.7132 25 19.7465 25H20.6365C20.7032 25 20.7498 25.0267 20.7765 25.08L23.6465 29.8C23.6598 29.82 23.6732 29.83 23.6865 29.83C23.6998 29.8233 23.7065 29.8067 23.7065 29.78L23.6965 25.12ZM30.968 25.88C30.968 25.9133 30.9547 25.9433 30.928 25.97C30.908 25.99 30.8814 26 30.848 26H27.438C27.4047 26 27.388 26.0167 27.388 26.05V27.92C27.388 27.9533 27.4047 27.97 27.438 27.97H29.728C29.7614 27.97 29.788 27.9833 29.808 28.01C29.8347 28.03 29.848 28.0567 29.848 28.09V28.85C29.848 28.8833 29.8347 28.9133 29.808 28.94C29.788 28.96 29.7614 28.97 29.728 28.97H27.438C27.4047 28.97 27.388 28.9867 27.388 29.02V30.95C27.388 30.9833 27.4047 31 27.438 31H30.848C30.8814 31 30.908 31.0133 30.928 31.04C30.9547 31.06 30.968 31.0867 30.968 31.12V31.88C30.968 31.9133 30.9547 31.9433 30.928 31.97C30.908 31.99 30.8814 32 30.848 32H26.348C26.3147 32 26.2847 31.99 26.258 31.97C26.238 31.9433 26.228 31.9133 26.228 31.88V25.12C26.228 25.0867 26.238 25.06 26.258 25.04C26.2847 25.0133 26.3147 25 26.348 25H30.848C30.8814 25 30.908 25.0133 30.928 25.04C30.9547 25.06 30.968 25.0867 30.968 25.12V25.88ZM34.486 32.08C33.986 32.08 33.546 31.9833 33.166 31.79C32.786 31.59 32.4927 31.3133 32.286 30.96C32.0793 30.6067 31.976 30.1967 31.976 29.73V27.26C31.976 26.7933 32.0793 26.3833 32.286 26.03C32.4927 25.6767 32.786 25.4033 33.166 25.21C33.546 25.0167 33.986 24.92 34.486 24.92C34.9793 24.92 35.416 25.0133 35.796 25.2C36.176 25.3867 36.4693 25.65 36.676 25.99C36.8827 26.33 36.986 26.7233 36.986 27.17C36.986 27.2033 36.9727 27.2333 36.946 27.26C36.926 27.28 36.8993 27.29 36.866 27.29L35.946 27.34C35.866 27.34 35.826 27.3033 35.826 27.23C35.826 26.8367 35.7027 26.52 35.456 26.28C35.216 26.04 34.8927 25.92 34.486 25.92C34.0793 25.92 33.7527 26.04 33.506 26.28C33.2593 26.52 33.136 26.8367 33.136 27.23V29.78C33.136 30.1667 33.2593 30.48 33.506 30.72C33.7527 30.96 34.0793 31.08 34.486 31.08C34.8927 31.08 35.216 30.9633 35.456 30.73C35.7027 30.49 35.826 30.1733 35.826 29.78C35.826 29.7067 35.866 29.67 35.946 29.67L36.866 29.71C36.8993 29.71 36.926 29.72 36.946 29.74C36.9727 29.76 36.986 29.7833 36.986 29.81C36.986 30.2633 36.8827 30.6633 36.676 31.01C36.4693 31.35 36.176 31.6133 35.796 31.8C35.416 31.9867 34.9793 32.08 34.486 32.08ZM42.7519 25C42.7852 25 42.8119 25.0133 42.8319 25.04C42.8585 25.06 42.8719 25.0867 42.8719 25.12V25.89C42.8719 25.9233 42.8585 25.9533 42.8319 25.98C42.8119 26 42.7852 26.01 42.7519 26.01H40.9119C40.8785 26.01 40.8619 26.0267 40.8619 26.06V31.88C40.8619 31.9133 40.8485 31.9433 40.8219 31.97C40.8019 31.99 40.7752 32 40.7419 32H39.8219C39.7885 32 39.7585 31.99 39.7319 31.97C39.7119 31.9433 39.7019 31.9133 39.7019 31.88V26.06C39.7019 26.0267 39.6852 26.01 39.6519 26.01H37.8819C37.8485 26.01 37.8185 26 37.7919 25.98C37.7719 25.9533 37.7619 25.9233 37.7619 25.89V25.12C37.7619 25.0867 37.7719 25.06 37.7919 25.04C37.8185 25.0133 37.8485 25 37.8819 25H42.7519ZM48.6829 25.88C48.6829 25.9133 48.6696 25.9433 48.6429 25.97C48.6229 25.99 48.5962 26 48.5629 26H45.1529C45.1196 26 45.1029 26.0167 45.1029 26.05V27.92C45.1029 27.9533 45.1196 27.97 45.1529 27.97H47.4429C47.4762 27.97 47.5029 27.9833 47.5229 28.01C47.5496 28.03 47.5629 28.0567 47.5629 28.09V28.85C47.5629 28.8833 47.5496 28.9133 47.5229 28.94C47.5029 28.96 47.4762 28.97 47.4429 28.97H45.1529C45.1196 28.97 45.1029 28.9867 45.1029 29.02V30.95C45.1029 30.9833 45.1196 31 45.1529 31H48.5629C48.5962 31 48.6229 31.0133 48.6429 31.04C48.6696 31.06 48.6829 31.0867 48.6829 31.12V31.88C48.6829 31.9133 48.6696 31.9433 48.6429 31.97C48.6229 31.99 48.5962 32 48.5629 32H44.0629C44.0296 32 43.9996 31.99 43.9729 31.97C43.9529 31.9433 43.9429 31.9133 43.9429 31.88V25.12C43.9429 25.0867 43.9529 25.06 43.9729 25.04C43.9996 25.0133 44.0296 25 44.0629 25H48.5629C48.5962 25 48.6229 25.0133 48.6429 25.04C48.6696 25.06 48.6829 25.0867 48.6829 25.12V25.88ZM49.9809 32C49.9475 32 49.9175 31.99 49.8909 31.97C49.8709 31.9433 49.8609 31.9133 49.8609 31.88V25.12C49.8609 25.0867 49.8709 25.06 49.8909 25.04C49.9175 25.0133 49.9475 25 49.9809 25H52.4209C52.8942 25 53.3109 25.0833 53.6709 25.25C54.0309 25.4167 54.3075 25.6567 54.5009 25.97C54.7009 26.2767 54.8009 26.6367 54.8009 27.05V29.95C54.8009 30.3633 54.7009 30.7267 54.5009 31.04C54.3075 31.3467 54.0309 31.5833 53.6709 31.75C53.3109 31.9167 52.8942 32 52.4209 32H49.9809ZM51.0209 30.95C51.0209 30.9833 51.0375 31 51.0709 31H52.4709C52.8242 31 53.1042 30.89 53.3109 30.67C53.5242 30.4433 53.6342 30.1433 53.6409 29.77V27.24C53.6409 26.86 53.5342 26.56 53.3209 26.34C53.1075 26.1133 52.8209 26 52.4609 26H51.0709C51.0375 26 51.0209 26.0167 51.0209 26.05V30.95ZM61.9545 28.35C61.9145 28.37 61.9145 28.39 61.9545 28.41C62.6345 28.73 62.9745 29.28 62.9745 30.06C62.9745 30.6933 62.7611 31.1767 62.3345 31.51C61.9145 31.8367 61.3645 32 60.6845 32H58.1645C58.1311 32 58.1011 31.99 58.0745 31.97C58.0545 31.9433 58.0445 31.9133 58.0445 31.88V25.12C58.0445 25.0867 58.0545 25.06 58.0745 25.04C58.1011 25.0133 58.1311 25 58.1645 25H60.6045C61.3311 25 61.8911 25.1567 62.2845 25.47C62.6778 25.7833 62.8745 26.2567 62.8745 26.89C62.8745 27.59 62.5678 28.0767 61.9545 28.35ZM59.2545 26C59.2211 26 59.2045 26.0167 59.2045 26.05V27.9C59.2045 27.9333 59.2211 27.95 59.2545 27.95H60.6045C60.9578 27.95 61.2345 27.8667 61.4345 27.7C61.6411 27.5267 61.7445 27.29 61.7445 26.99C61.7445 26.6833 61.6411 26.4433 61.4345 26.27C61.2345 26.09 60.9578 26 60.6045 26H59.2545ZM60.6845 30.99C61.0311 30.99 61.3045 30.8967 61.5045 30.71C61.7111 30.5233 61.8145 30.27 61.8145 29.95C61.8145 29.6233 61.7111 29.37 61.5045 29.19C61.2978 29.0033 61.0178 28.91 60.6645 28.91H59.2545C59.2211 28.91 59.2045 28.9267 59.2045 28.96V30.94C59.2045 30.9733 59.2211 30.99 59.2545 30.99H60.6845ZM65.7429 31.99C65.7096 31.99 65.6796 31.98 65.6529 31.96C65.6329 31.9333 65.6229 31.9033 65.6229 31.87V29.19C65.6229 29.1633 65.6196 29.1433 65.6129 29.13L63.5529 25.14C63.5396 25.1133 63.5329 25.0933 63.5329 25.08C63.5329 25.0267 63.5696 25 63.6429 25H64.6329C64.6996 25 64.7462 25.03 64.7729 25.09L66.1729 27.88C66.1929 27.9067 66.2129 27.9067 66.2329 27.88L67.6429 25.09C67.6762 25.03 67.7229 25 67.7829 25H68.7829C68.8296 25 68.8596 25.0133 68.8729 25.04C68.8929 25.0667 68.8929 25.1 68.8729 25.14L66.8029 29.13C66.7896 29.1567 66.7829 29.1767 66.7829 29.19V31.87C66.7829 31.9033 66.7696 31.9333 66.7429 31.96C66.7229 31.98 66.6962 31.99 66.6629 31.99H65.7429Z" fill="white"/>
<path d="M193.677 12.1319C193.677 10.2371 193.671 8.34242 193.68 6.44769C193.68 5.9609 193.906 5.57557 194.32 5.30253C194.566 5.13829 194.856 5.05241 195.152 5.05628C197.389 5.0597 199.626 5.0597 201.864 5.05628C202.204 5.05314 202.543 5.10611 202.867 5.21304C203.13 5.30196 203.404 5.37036 203.648 5.4952C203.971 5.65936 204.288 5.84518 204.549 6.10397C204.769 6.32286 205.001 6.53376 205.195 6.77374C205.347 6.96127 205.455 7.18529 205.573 7.40076C205.665 7.56127 205.745 7.7288 205.811 7.9018C205.868 8.05627 205.873 8.22728 205.922 8.38517C206.075 8.87766 205.998 9.38042 205.991 9.87861C205.988 10.0758 205.902 10.2725 205.85 10.4686C205.82 10.5826 205.785 10.6903 205.744 10.798C205.69 10.9513 205.627 11.1014 205.557 11.2478C205.484 11.3814 205.403 11.5097 205.312 11.6314C205.213 11.7688 205.098 11.8948 205.001 12.0338C204.986 12.0561 204.977 12.0813 204.974 12.1076C204.971 12.1339 204.974 12.1606 204.983 12.1855C205.135 12.3986 205.307 12.5976 205.454 12.8125C205.532 12.9428 205.6 13.0791 205.656 13.22C205.707 13.33 205.759 13.4406 205.802 13.5541C205.846 13.6675 205.878 13.7707 205.908 13.8813C206.014 14.2672 206.012 14.6627 206.007 15.0583C206.014 15.196 206.01 15.334 205.996 15.471C205.957 15.6962 205.896 15.9185 205.841 16.1408C205.814 16.2609 205.78 16.3793 205.739 16.4953C205.689 16.6402 205.626 16.7807 205.553 16.9154C205.456 17.083 205.341 17.2404 205.23 17.3988C204.981 17.7511 204.695 18.0749 204.334 18.3108C204.01 18.5271 203.67 18.7194 203.317 18.886C203.093 18.9903 202.828 19.0063 202.59 19.0855C202.226 19.2063 201.854 19.1596 201.486 19.1607C199.363 19.1664 197.24 19.1607 195.118 19.1676C194.897 19.174 194.679 19.1284 194.48 19.0345C194.281 18.9405 194.107 18.801 193.973 18.6272C193.78 18.3951 193.675 18.1034 193.675 17.8024C193.678 15.9122 193.679 14.022 193.677 12.1319ZM196.504 13.5689V13.7063C196.504 14.5328 196.504 15.3593 196.502 16.1853C196.502 16.3226 196.546 16.3654 196.68 16.3654C198.393 16.362 200.106 16.3688 201.818 16.354C202.046 16.3438 202.269 16.2813 202.469 16.1716C202.643 16.0801 202.796 15.9513 202.914 15.7944C203.033 15.6375 203.116 15.4564 203.156 15.2641C203.206 15.0605 203.209 14.848 203.163 14.6434C203.117 14.4387 203.024 14.2475 202.891 14.0847C202.592 13.7159 202.204 13.5375 201.711 13.541C200.05 13.5524 198.39 13.5449 196.729 13.5461C196.654 13.5498 196.579 13.5574 196.504 13.5689ZM199.284 7.87159H196.738C196.534 7.87159 196.504 7.90066 196.504 8.09959V10.4937C196.504 10.6783 196.518 10.6949 196.707 10.6954C198.395 10.6954 200.083 10.6954 201.771 10.6954C202.082 10.7053 202.386 10.6065 202.63 10.4161C202.905 10.1967 203.1 9.91338 203.16 9.57194C203.198 9.38665 203.196 9.19554 203.156 9.01077C203.116 8.826 203.037 8.65158 202.926 8.4986C202.639 8.10586 202.255 7.89382 201.787 7.88014C200.954 7.85506 200.12 7.87216 199.284 7.87159Z" fill="white"/>
<path d="M252.119 12.1336C252.119 13.2776 252.127 14.4222 252.112 15.5668C252.112 15.7732 252.02 15.9795 251.965 16.1847C251.939 16.2926 251.905 16.3983 251.862 16.5005C251.791 16.6595 251.71 16.8146 251.628 16.9685C251.572 17.0722 251.511 17.1727 251.444 17.2695C251.321 17.4479 251.211 17.6417 251.059 17.7927C250.827 18.0271 250.576 18.2413 250.307 18.4329C250.021 18.6341 249.716 18.8182 249.368 18.9122C249.093 18.9869 248.821 19.0696 248.546 19.1402C248.471 19.156 248.394 19.162 248.317 19.1579C246.366 19.1579 244.415 19.1642 242.464 19.1522C242.22 19.1522 241.976 19.0656 241.736 19.0046C241.555 18.9596 241.378 18.9003 241.207 18.8273C241.014 18.741 240.825 18.644 240.642 18.5366C240.244 18.2996 239.892 17.994 239.602 17.6343C239.362 17.3619 239.168 17.053 239.026 16.7194C238.953 16.5353 238.864 16.3569 238.797 16.1716C238.752 16.0531 238.72 15.93 238.702 15.8045C238.656 15.5401 238.628 15.2729 238.618 15.0048C238.611 13.0576 238.612 11.1104 238.622 9.16328C238.622 8.87827 238.698 8.58756 238.76 8.30427C238.8 8.07654 238.868 7.85441 238.961 7.64248C239.103 7.33884 239.274 7.04979 239.472 6.77948C239.676 6.51608 239.907 6.27392 240.16 6.0567C240.488 5.771 240.863 5.5435 241.269 5.38408C241.571 5.26324 241.873 5.15607 242.2 5.12928C242.454 5.10933 242.7 5.06259 242.949 5.06202C244.657 5.05632 246.364 5.05233 248.072 5.06715C248.379 5.06715 248.689 5.1441 248.988 5.2182C249.261 5.28102 249.526 5.37454 249.777 5.49694C250.059 5.64651 250.327 5.82067 250.578 6.01737C250.778 6.17276 250.962 6.34643 251.128 6.53608C251.302 6.72295 251.457 6.92606 251.591 7.14257C251.703 7.34802 251.796 7.56277 251.871 7.78441C251.966 8.01793 252.045 8.25772 252.107 8.50206C252.146 8.6799 252.133 8.87086 252.134 9.05611C252.136 10.0821 252.136 11.1082 252.134 12.1342L252.119 12.1336ZM241.495 12.1245C241.495 13.0597 241.495 13.9951 241.495 14.9307C241.495 15.1798 241.525 15.4118 241.662 15.6381C241.942 16.1038 242.349 16.3563 242.881 16.3603C244.526 16.3711 246.172 16.3603 247.817 16.3671C248.183 16.375 248.539 16.2506 248.819 16.0171C249.105 15.7806 249.299 15.4751 249.3 15.0903C249.305 13.1106 249.3 11.1304 249.303 9.15074C249.298 8.94913 249.236 8.75307 249.124 8.58528C248.842 8.12927 248.418 7.88359 247.89 7.87846C246.327 7.86364 244.762 7.87846 243.195 7.87048C242.819 7.87048 242.465 7.90697 242.132 8.11217C241.89 8.26037 241.731 8.46558 241.6 8.69986C241.485 8.89708 241.494 9.11654 241.493 9.33257C241.494 10.2628 241.495 11.1935 241.495 12.1245Z" fill="white"/>
<path d="M236.115 5.05618V7.87148H235.922C233.231 7.87148 230.54 7.87148 227.849 7.87148C227.578 7.87148 227.341 7.97352 227.1 8.09949C226.842 8.23059 226.699 8.44663 226.553 8.66552C226.488 8.77894 226.452 8.90653 226.448 9.03716C226.433 9.24465 226.41 9.46354 226.458 9.66076C226.535 9.95873 226.709 10.2229 226.953 10.412C227.239 10.644 227.572 10.697 227.927 10.697C229.343 10.697 230.76 10.6919 232.177 10.697C232.495 10.6955 232.814 10.7195 233.129 10.7689C233.382 10.8116 233.624 10.9222 233.873 10.9969C234.233 11.1108 234.569 11.2904 234.864 11.5264C235.111 11.7148 235.344 11.9213 235.561 12.1443C235.709 12.3066 235.837 12.4852 235.944 12.6767C236.075 12.8967 236.182 13.1327 236.297 13.3607C236.447 13.6566 236.496 13.9769 236.567 14.2967C236.642 14.6341 236.632 14.9647 236.618 15.2959C236.608 15.5336 236.528 15.7685 236.475 16.0033C236.447 16.1381 236.412 16.2712 236.37 16.4023C236.329 16.5069 236.282 16.6089 236.229 16.7079C236.194 16.7797 236.162 16.8521 236.122 16.9205C236.029 17.0795 235.95 17.2522 235.835 17.3902C235.601 17.666 235.352 17.9311 235.091 18.1825C234.937 18.3246 234.768 18.4498 234.587 18.5558C234.386 18.677 234.178 18.7862 233.964 18.883C233.847 18.9302 233.726 18.9672 233.602 18.9936C233.412 19.0443 233.223 19.1002 233.03 19.1367C232.897 19.1581 232.763 19.1671 232.629 19.1635C231.413 19.1665 230.196 19.1677 228.979 19.1669H223.809V16.363H224.022C226.77 16.363 229.518 16.3617 232.267 16.359C232.475 16.359 232.7 16.3402 232.887 16.2604C233.223 16.1162 233.508 15.8893 233.645 15.5296C233.703 15.3723 233.784 15.207 233.783 15.0463C233.783 14.8325 233.72 14.6153 233.662 14.4056C233.601 14.1855 233.453 14.0134 233.279 13.8709C233.059 13.6913 232.816 13.5545 232.518 13.5528C232.132 13.5528 231.746 13.546 231.359 13.5454C230.128 13.5454 228.897 13.5454 227.667 13.5374C227.439 13.5376 227.212 13.5135 226.989 13.4656C226.75 13.409 226.515 13.3314 226.29 13.2336C226.045 13.1323 225.807 13.0148 225.578 12.8819C225.219 12.6772 224.901 12.4082 224.64 12.0885C224.443 11.8495 224.261 11.5986 224.095 11.3372C223.969 11.1308 223.895 10.8943 223.795 10.6714C223.643 10.3294 223.623 9.96059 223.573 9.60091C223.542 9.38487 223.578 9.15858 223.589 8.93741C223.593 8.84792 223.611 8.759 223.619 8.66951C223.648 8.35087 223.75 8.05446 223.862 7.75748C224.024 7.32547 224.264 6.92656 224.57 6.5804C224.784 6.33686 225.022 6.11482 225.28 5.91747C225.537 5.72975 225.81 5.56531 226.097 5.42612C226.286 5.33093 226.503 5.28989 226.706 5.21978C227.195 5.04991 227.701 5.05618 228.209 5.05618C230.781 5.05922 233.353 5.05922 235.926 5.05618H236.115Z" fill="white"/>
<path d="M221.572 12.1243C221.572 13.0597 221.58 13.9957 221.568 14.9311C221.565 15.2516 221.533 15.5713 221.474 15.8864C221.431 16.1116 221.332 16.3293 221.239 16.5425C221.13 16.7905 221.029 17.0504 220.872 17.267C220.661 17.5546 220.422 17.8218 220.161 18.065C219.929 18.2771 219.677 18.4658 219.408 18.6282C219.205 18.745 218.989 18.8387 218.764 18.9075C218.495 18.9999 218.22 19.0745 217.943 19.1401C217.816 19.162 217.687 19.1696 217.559 19.1629C216.08 19.1629 214.601 19.1638 213.122 19.1657C212.774 19.1657 212.426 19.1771 212.078 19.1606C211.804 19.156 211.53 19.1224 211.263 19.0603C210.777 18.9316 210.316 18.7224 209.899 18.4412C209.495 18.1715 209.14 17.8349 208.85 17.446C208.62 17.1319 208.433 16.7883 208.295 16.4245C208.09 15.8961 208.039 15.3535 208.04 14.7949C208.047 13.0044 208.04 11.214 208.043 9.42361C208.035 9.23864 208.039 9.05331 208.057 8.86898C208.092 8.61019 208.156 8.35597 208.21 8.10003C208.273 7.80077 208.411 7.53344 208.554 7.26667C208.726 6.95589 208.938 6.66852 209.184 6.41165C209.487 6.08872 209.837 5.81282 210.222 5.59311C210.433 5.47226 210.669 5.3936 210.896 5.30297C211.395 5.10346 211.917 5.05615 212.452 5.05615C214.121 5.06299 215.791 5.05159 217.461 5.06698C217.772 5.06698 218.09 5.14222 218.392 5.21747C218.668 5.28622 218.937 5.38168 219.194 5.50247C219.404 5.60109 219.584 5.75955 219.787 5.8764C220.104 6.05881 220.337 6.33242 220.577 6.59405C220.694 6.7348 220.801 6.88293 220.898 7.03752C220.978 7.14298 221.051 7.25362 221.116 7.3687C221.192 7.51837 221.258 7.67214 221.316 7.82927C221.373 7.98717 221.423 8.14962 221.476 8.31037C221.479 8.31927 221.481 8.32843 221.482 8.33773C221.513 8.59366 221.568 8.85074 221.571 9.10611C221.581 10.1128 221.575 11.1194 221.575 12.1272L221.572 12.1243ZM210.874 12.1158C210.874 12.9987 210.872 13.8828 210.874 14.7652C210.874 14.9602 210.866 15.1505 210.939 15.3489C211.045 15.6339 211.183 15.8762 211.434 16.0591C211.686 16.2544 211.996 16.361 212.315 16.3624C213.956 16.3601 215.598 16.3601 217.239 16.3624C217.589 16.369 217.929 16.2507 218.199 16.0289C218.367 15.8986 218.502 15.7315 218.595 15.5408C218.687 15.35 218.734 15.1406 218.732 14.9288C218.744 13.058 218.743 11.187 218.729 9.31587C218.725 9.07703 218.664 8.84255 218.551 8.63186C218.276 8.13138 217.822 7.87431 217.248 7.87146C215.655 7.86348 214.062 7.86804 212.469 7.87146C212.3 7.86885 212.131 7.88801 211.967 7.92846C211.766 7.97498 211.578 8.0664 211.417 8.19579C211.074 8.4808 210.874 8.82908 210.874 9.27882V12.1158Z" fill="white"/>
<path d="M266.749 5.05615V5.24369C266.749 9.39529 266.748 13.5465 266.745 17.6974C266.751 17.8965 266.719 18.095 266.653 18.2828C266.537 18.5837 266.32 18.8349 266.038 18.993C265.729 19.1637 265.37 19.2182 265.024 19.1463C264.69 19.0853 264.417 18.8875 264.193 18.6333C263.775 18.1551 263.356 17.6774 262.942 17.1963C262.645 16.8543 262.355 16.5009 262.058 16.1555C261.84 15.9018 261.614 15.655 261.396 15.4008C261.158 15.1243 260.926 14.8416 260.688 14.564C260.42 14.2505 260.148 13.9404 259.88 13.6269C259.658 13.3658 259.44 13.1008 259.217 12.8403C259.099 12.7018 258.969 12.5724 258.85 12.4333C258.43 11.9414 258.014 11.4454 257.593 10.9541C257.419 10.75 257.236 10.5551 257.057 10.3527L257.016 10.3664V19.1526H254.179V18.9959C254.179 14.8351 254.179 10.674 254.179 6.51254C254.179 6.04228 254.344 5.6655 254.704 5.37251C254.847 5.25851 255.002 5.15362 255.197 5.13139C255.318 5.11771 255.435 5.06698 255.556 5.06242C256.039 5.04304 256.415 5.26649 256.728 5.61021C257.101 6.0229 257.462 6.44528 257.823 6.86766C258.068 7.15266 258.299 7.45078 258.545 7.73579C258.811 8.04474 259.087 8.34399 259.355 8.65066C259.569 8.8952 259.775 9.14543 259.985 9.39168C260.287 9.74319 260.589 10.0939 260.893 10.4439C261.233 10.8372 261.573 11.2304 261.912 11.6233C262.259 12.0223 262.608 12.4213 262.953 12.8243C263.222 13.1372 263.486 13.4553 263.755 13.7688C263.804 13.817 263.856 13.8615 263.911 13.9022C263.916 13.7996 263.921 13.7261 263.921 13.6531C263.921 10.8555 263.921 8.05785 263.921 5.26022C263.921 5.05672 263.921 5.05672 264.12 5.05672H266.75L266.749 5.05615Z" fill="white"/>
<path d="M209.397 30.7071C209.334 30.7139 209.274 30.7247 209.215 30.7253C208.848 30.7253 208.48 30.7185 208.113 30.7299C208.07 30.7343 208.026 30.7244 207.988 30.7017C207.95 30.679 207.921 30.6446 207.905 30.6039C207.749 30.2841 207.604 29.9581 207.447 29.6377C207.319 29.3755 207.15 29.1281 207.058 28.8545C206.969 28.5917 206.803 28.5855 206.583 28.5895C206.025 28.5992 205.467 28.5923 204.909 28.5929C204.718 28.5929 204.718 28.5929 204.718 28.7833V30.715H203.441C203.441 30.658 203.434 30.6079 203.434 30.5572C203.434 29.1184 203.434 27.6793 203.434 26.2399C203.434 26.0119 203.511 25.7998 203.578 25.5826C203.702 25.1768 203.978 24.8889 204.3 24.6541C204.515 24.4973 204.764 24.3571 205.049 24.3543C205.927 24.3463 206.805 24.3463 207.683 24.3423C208.133 24.3423 208.499 24.5315 208.828 24.8165C209.087 25.0415 209.283 25.3299 209.396 25.6533C209.448 25.8147 209.478 25.9822 209.486 26.1515C209.499 26.3364 209.499 26.5219 209.486 26.7067C209.466 26.9964 209.388 27.2792 209.257 27.5384C209.091 27.8804 208.827 28.1084 208.533 28.3233L208.522 28.3312C208.259 28.4846 208.267 28.4852 208.416 28.7445C208.53 28.948 208.619 29.1675 208.724 29.3778C208.797 29.5226 208.882 29.6628 208.953 29.8059C209.024 29.9489 209.081 30.0943 209.15 30.2362C209.231 30.3884 209.311 30.5361 209.397 30.7071ZM206.22 27.3275C206.601 27.3275 206.983 27.3332 207.365 27.3246C207.494 27.3155 207.622 27.2933 207.747 27.2585C208.024 27.1946 208.205 26.9165 208.202 26.6526C208.198 26.4372 208.177 26.2224 208.14 26.0101C208.11 25.8226 207.871 25.6271 207.682 25.626C206.872 25.622 206.061 25.626 205.25 25.626C205.203 25.6233 205.155 25.6319 205.112 25.651C204.996 25.7124 204.899 25.8034 204.831 25.9146C204.763 26.0259 204.725 26.1533 204.723 26.2838C204.711 26.5539 204.719 26.8253 204.719 27.0955C204.719 27.2995 204.748 27.3286 204.948 27.3286L206.22 27.3275Z" fill="white"/>
<path d="M238.69 27.3866C238.69 28.0273 238.698 28.5266 238.686 29.0242C238.68 29.275 238.572 29.4996 238.457 29.7248C238.324 29.9704 238.137 30.1831 237.91 30.3472C237.729 30.4824 237.523 30.5806 237.304 30.6362C236.547 30.8266 235.772 30.6847 235.006 30.7229C234.815 30.7326 234.624 30.7229 234.433 30.7229C234.133 30.7229 233.866 30.6208 233.597 30.4949C233.272 30.3349 233.001 30.0831 232.818 29.771C232.719 29.6035 232.65 29.4197 232.616 29.2283C232.465 28.4303 232.576 27.6209 232.545 26.8166C232.539 26.6604 232.54 26.5036 232.541 26.3469C232.545 25.6344 232.828 25.0541 233.414 24.6459C233.665 24.4715 233.952 24.3438 234.273 24.345C235.217 24.3478 236.162 24.3421 237.105 24.3575C237.373 24.3621 237.612 24.4966 237.835 24.6425C238.058 24.7884 238.252 24.9612 238.379 25.1972C238.466 25.342 238.539 25.4946 238.597 25.6532C238.789 26.2682 238.638 26.9043 238.69 27.3866ZM237.41 27.5217V26.283C237.41 26.1571 237.419 26.0322 237.326 25.9256C237.198 25.778 237.086 25.6184 236.855 25.6195C236.031 25.6235 235.206 25.6195 234.382 25.6281C234.277 25.6281 234.163 25.6965 234.072 25.7592C233.867 25.8988 233.843 26.136 233.843 26.3469C233.829 27.1346 233.833 27.9224 233.843 28.7102C233.848 28.8545 233.888 28.9956 233.957 29.1223C234.089 29.3651 234.312 29.4592 234.592 29.4563C235.287 29.4483 235.984 29.4563 236.679 29.45C236.8 29.4473 236.919 29.423 237.03 29.3782C237.147 29.3391 237.248 29.2632 237.317 29.162C237.386 29.0607 237.421 28.9397 237.415 28.8173C237.412 28.3852 237.41 27.9532 237.41 27.5217Z" fill="white"/>
<path d="M251.607 27.5291C251.607 26.9971 251.607 26.4651 251.607 25.9331C251.607 25.7479 251.688 25.5911 251.761 25.4269C251.847 25.2327 251.968 25.0558 252.118 24.9048C252.276 24.7436 252.461 24.6103 252.664 24.5109C252.922 24.3865 253.207 24.3265 253.494 24.3359C254.333 24.3405 255.172 24.3411 256.013 24.3456C256.319 24.3456 256.58 24.4807 256.833 24.6335C257.107 24.8032 257.331 25.0414 257.484 25.3243C257.598 25.5238 257.689 25.7404 257.689 25.9833C257.689 26.999 257.701 28.0148 257.684 29.0306C257.675 29.5624 257.386 29.9722 256.983 30.2966C256.816 30.427 256.634 30.5359 256.44 30.6209C256.297 30.6842 256.144 30.7184 255.988 30.7212C255.087 30.7303 254.186 30.7343 253.285 30.7212C253.044 30.7178 252.817 30.6181 252.598 30.4972C252.369 30.369 252.148 30.2333 252.001 30.0161C251.88 29.8366 251.798 29.6302 251.687 29.4427C251.557 29.2238 251.605 28.9867 251.598 28.7541C251.585 28.3465 251.595 27.9378 251.595 27.5297L251.607 27.5291ZM252.889 27.5138C252.889 27.9888 252.889 28.4638 252.889 28.9388C252.889 28.9901 252.882 29.0556 252.91 29.0916C253.069 29.299 253.253 29.47 253.543 29.4678C254.22 29.4632 254.897 29.4678 255.574 29.4678C255.734 29.4678 255.888 29.4718 256.043 29.3959C256.209 29.3139 256.398 29.1109 256.399 28.9228C256.402 27.9926 256.402 27.0615 256.399 26.1298C256.399 25.8852 256.136 25.6264 255.89 25.6247C255.051 25.6207 254.212 25.6247 253.371 25.6247C253.171 25.6247 252.882 25.9023 252.885 26.107C252.893 26.5738 252.889 27.0441 252.889 27.5149V27.5138Z" fill="white"/>
<path d="M219.347 27.5189C219.347 28.0365 219.347 28.5541 219.347 29.0717C219.347 29.3145 219.233 29.5203 219.122 29.7317C218.968 30.0138 218.744 30.2515 218.47 30.422C218.317 30.5241 218.127 30.5765 217.955 30.6432C217.55 30.7971 217.126 30.7093 216.711 30.7207C216.182 30.735 215.653 30.7327 215.123 30.7207C214.923 30.7162 214.706 30.703 214.529 30.6232C214.167 30.4619 213.837 30.2619 213.593 29.9136C213.34 29.5545 213.246 29.1765 213.243 28.7593C213.24 28.0521 213.24 27.3445 213.243 26.6366C213.243 26.3476 213.253 26.0569 213.282 25.7696C213.294 25.6556 213.366 25.5461 213.42 25.439C213.599 25.0279 213.924 24.6971 214.332 24.5098C214.592 24.3882 214.877 24.3296 215.164 24.3388C216.003 24.3423 216.843 24.3457 217.683 24.3491C217.984 24.3491 218.249 24.4728 218.489 24.6341C218.662 24.7495 218.817 24.8904 218.947 25.0519C219.074 25.2221 219.177 25.4087 219.254 25.6066C219.436 26.0546 219.323 26.5294 219.35 26.9917C219.361 27.1672 219.35 27.3434 219.35 27.5189H219.347ZM218.078 27.515H218.068C218.068 27.0738 218.072 26.632 218.068 26.1908C218.065 26.041 218.003 25.8982 217.896 25.7925C217.79 25.6869 217.646 25.6265 217.495 25.6242C216.699 25.6189 215.902 25.6189 215.105 25.6242C214.781 25.6242 214.567 25.8363 214.552 26.1595C214.539 26.4485 214.537 26.738 214.538 27.0276C214.541 27.6729 214.549 28.3187 214.557 28.9656C214.553 29.0124 214.562 29.0593 214.583 29.1013C214.745 29.3293 214.949 29.4667 215.251 29.4621C215.956 29.4507 216.663 29.4473 217.369 29.4621C217.754 29.4701 218.108 29.1498 218.084 28.7559C218.059 28.3403 218.078 27.9259 218.078 27.515Z" fill="white"/>
<path d="M194.958 30.7165H193.672V30.5455C193.672 29.1062 193.672 27.6675 193.678 26.2288C193.681 25.5852 193.961 25.0762 194.48 24.6949C194.785 24.4588 195.163 24.3331 195.55 24.338C196.365 24.3483 197.181 24.338 197.996 24.3483C198.415 24.3529 198.758 24.5529 199.067 24.8146C199.349 25.0437 199.55 25.3565 199.64 25.7072C199.717 26.0293 199.702 26.373 199.72 26.7076C199.724 26.776 199.685 26.8455 199.683 26.9151C199.67 27.2759 199.511 27.574 199.297 27.8527C199.118 28.0864 198.885 28.2737 198.618 28.3988C198.364 28.5235 198.084 28.59 197.801 28.5938C196.923 28.5915 196.045 28.5915 195.167 28.5938C194.96 28.5938 194.96 28.5938 194.96 28.8047V30.7182L194.958 30.7165ZM196.447 27.3266C196.781 27.3266 197.114 27.33 197.448 27.3266C197.635 27.3238 197.819 27.3431 198.006 27.2622C198.193 27.1813 198.384 26.996 198.391 26.7868C198.398 26.5639 198.383 26.3405 198.396 26.1176C198.408 25.8947 198.098 25.62 197.892 25.6217C197.124 25.6268 196.355 25.6377 195.588 25.6126C195.239 25.6012 194.958 25.9757 194.961 26.2527C194.966 26.5468 194.961 26.8415 194.961 27.1357C194.961 27.3101 194.979 27.3278 195.161 27.3278L196.447 27.3266Z" fill="white"/>
<path d="M247.841 30.7289H247.631C246.806 30.7289 245.98 30.7209 245.155 30.7334C244.867 30.7439 244.579 30.7093 244.301 30.6308C244.051 30.5525 243.813 30.4382 243.595 30.2917C243.38 30.145 243.186 29.9697 243.018 29.7707C242.843 29.56 242.706 29.3217 242.61 29.0656C242.488 28.7302 242.434 28.3742 242.449 28.0179C242.456 27.6234 242.44 27.229 242.455 26.8357C242.458 26.5919 242.492 26.3494 242.555 26.114C242.619 25.9048 242.758 25.7179 242.859 25.5189C243.005 25.2305 243.238 25.015 243.489 24.8292C243.738 24.6452 244.018 24.5067 244.316 24.4199C244.622 24.3293 244.926 24.3418 245.232 24.3384C246.038 24.3293 246.844 24.335 247.65 24.3384C247.837 24.3384 247.84 24.3424 247.84 24.5311C247.84 24.8207 247.84 25.1102 247.84 25.3998C247.84 25.6107 247.83 25.6192 247.625 25.6198C246.719 25.6198 245.813 25.6244 244.907 25.6198C244.563 25.6198 244.305 25.7749 244.078 26.0069C243.944 26.1437 243.872 26.3101 243.8 26.4891C243.729 26.6681 243.739 26.8374 243.736 27.0112C243.73 27.4148 243.733 27.8184 243.736 28.2219C243.736 28.6455 243.947 28.963 244.271 29.212C244.512 29.3904 244.808 29.4813 245.108 29.4697C245.957 29.4611 246.806 29.4663 247.655 29.4697C247.841 29.4697 247.841 29.4697 247.841 29.6589C247.841 30.0049 247.841 30.3555 247.841 30.7289Z" fill="white"/>
<path d="M226.614 30.7166H225.334V30.5274C225.334 28.9553 225.333 27.3835 225.33 25.8122C225.33 25.6184 225.33 25.6173 225.133 25.6173C224.513 25.6173 223.893 25.6133 223.273 25.6201C223.141 25.6201 223.109 25.5739 223.111 25.4565C223.115 25.1339 223.117 24.8107 223.111 24.4875C223.108 24.3695 223.146 24.3324 223.264 24.333C223.966 24.3376 224.667 24.333 225.368 24.333H228.602C228.837 24.333 228.837 24.333 228.837 24.5707C228.837 24.8512 228.837 25.131 228.837 25.4115C228.837 25.5614 228.784 25.6138 228.632 25.6138C228.017 25.6138 227.401 25.6184 226.786 25.611C226.65 25.611 226.61 25.6458 226.61 25.782C226.615 27.3581 226.613 28.9347 226.613 30.5131L226.614 30.7166Z" fill="white"/>
<path d="M262.735 29.4587H266.827V30.7287H266.695C265.164 30.7287 263.632 30.7287 262.101 30.7287C261.832 30.7287 261.629 30.6118 261.528 30.3519C261.487 30.2566 261.463 30.155 261.456 30.0515C261.452 28.1995 261.456 26.3464 261.45 24.495C261.45 24.3707 261.481 24.3303 261.609 24.3337C261.929 24.3421 262.248 24.3421 262.568 24.3337C262.702 24.3303 262.735 24.3753 262.735 24.5047C262.732 26.0814 262.732 27.6584 262.735 29.2358V29.4587Z" fill="white"/>
<path d="M161.787 11.9201C162.644 12.5571 163.136 13.4612 163.577 14.3845C164.09 15.4545 164.528 16.5559 164.967 17.6577L165.064 17.902C165.112 18.0236 165.161 18.1452 165.209 18.2667C165.48 18.9446 165.761 19.6299 166.214 20.2217C166.914 21.1345 167.804 21.0836 168.391 20.0978C168.885 19.2668 169.137 18.3503 169.308 17.414C169.658 15.4931 170.307 13.7072 171.643 12.2213C173.485 10.1727 175.789 9.07529 178.566 8.95011C178.844 8.93772 178.948 9.00403 178.939 9.30147C178.917 10.0543 178.918 10.8085 178.939 11.5614C178.947 11.8383 178.849 11.8904 178.588 11.9195C176.212 12.1841 174.371 13.2697 173.311 15.4392C172.446 17.2083 172.76 18.8888 173.859 20.4658C175.02 22.1259 176.703 22.8441 178.665 23.0411C178.887 23.0634 178.94 23.1298 178.937 23.3355C178.925 24.089 178.918 24.8431 178.94 25.596C178.948 25.8755 178.836 25.9498 178.588 25.9678C177.521 26.0452 176.508 25.8116 175.529 25.4244C173.743 24.7173 172.232 23.649 171.123 22.0745C170.984 21.8762 170.925 21.9558 170.827 22.0869L170.819 22.098C169.441 23.9483 166.746 24.5382 164.714 23.4346C163.766 22.9197 163.161 22.1024 162.713 21.1605C162.308 20.3109 161.959 19.4384 161.632 18.5579C161.673 18.4976 161.694 18.4341 161.704 18.3688C161.693 18.4327 161.672 18.4951 161.632 18.5542C161.298 17.7106 160.962 16.8671 160.625 16.0235C160.485 15.6555 160.308 15.3025 160.096 14.9701C159.594 14.2067 158.805 14.0815 158.087 14.6727C157.454 15.195 157.134 15.912 156.876 16.6636C156.696 17.1889 156.595 17.732 156.495 18.2752C156.449 18.5235 156.403 18.7717 156.35 19.0183C155.877 21.1933 154.626 22.8553 152.845 24.1664C151.403 25.2465 149.666 25.8767 147.858 25.9765H147.827C147.092 26.0316 147.092 26.0316 147.092 25.3147C147.092 25.1327 147.093 24.9506 147.094 24.7685C147.095 24.3001 147.097 23.8316 147.087 23.364C147.082 23.1304 147.143 23.0542 147.397 23.0405C149.862 22.9166 151.657 21.7207 152.749 19.5704C153.645 17.8081 153.343 16.0892 152.21 14.5177C151.047 12.9029 149.396 12.1011 147.427 11.9096C147.163 11.8836 147.07 11.816 147.077 11.544C147.096 10.8116 147.098 10.0779 147.077 9.34608C147.068 9.04865 147.18 8.98358 147.454 8.98358C149.733 8.98358 151.688 9.82136 153.417 11.2336C154.03 11.7339 154.57 12.3166 155.019 12.9649C155.155 13.1613 155.227 13.1291 155.357 12.9692C155.572 12.704 155.796 12.4456 156.037 12.1996C157.658 10.5333 160.354 10.7285 161.787 11.9201Z" fill="url(#paint0_linear)"/>
<path fill-rule="evenodd" clip-rule="evenodd" d="M185 3H141V32H185V3ZM181.924 6.03632H144.076V28.9017H181.924V6.03632Z" fill="url(#paint1_linear)"/>
<path d="M126 1L126 34" stroke="white" stroke-width="0.7" stroke-linecap="round" stroke-linejoin="round"/>
<defs>
<linearGradient id="paint0_linear" x1="141" y1="17.5" x2="185" y2="17.5" gradientUnits="userSpaceOnUse">
<stop stop-color="#5BF3BF"/>
<stop offset="1" stop-color="#00FAA6"/>
</linearGradient>
<linearGradient id="paint1_linear" x1="141" y1="17.5" x2="185" y2="17.5" gradientUnits="userSpaceOnUse">
<stop stop-color="#5BF3BF"/>
<stop offset="1" stop-color="#00FAA6"/>
</linearGradient>
</defs>
</svg>
