<?xml version="1.0" encoding="utf-8"?>
<!-- Generator: Adobe Illustrator 25.4.1, SVG Export Plug-In . SVG Version: 6.00 Build 0)  -->
<svg version="1.1" id="Layer_1" xmlns="http://www.w3.org/2000/svg" xmlns:xlink="http://www.w3.org/1999/xlink" x="0px" y="0px"
	 viewBox="0 0 457.1 96" style="enable-background:new 0 0 457.1 96;" xml:space="preserve">
<style type="text/css">
	.st0{fill-rule:evenodd;clip-rule:evenodd;fill:#DD2CB8;}
	.st1{fill-rule:evenodd;clip-rule:evenodd;fill:#00FF85;}
	.st2{fill:#293849;}
</style>
<g id="MetaPortal---One-page-site-WIP">
	<g id="Group-2" transform="translate(0.000000, 0.000000)">
		<path id="Fill-3" class="st0" d="M173.5,32.5c0.3,0.5,0.4,0.7,0.6,1c5.9,8.1,11.8,16.1,17.7,24.2c0.5,0.7,1,0.7,1.7,0.5
			c7.3-2.4,9.9-8.9,8.6-15.4c-1.3-6.5-6.6-9.9-12.3-10.2c-5-0.3-10-0.2-15-0.2C174.5,32.4,174.1,32.5,173.5,32.5 M219,94.7
			c-4.4,0-8.5,0-12.6,0c-0.5,0-1.1-0.5-1.5-1c-7.5-10.4-15-20.7-22.4-31.1c-5.2-7.3-10.5-14.5-15.7-21.8c-0.2-0.3-0.5-0.7-1-1.3
			c-0.1,0.9-0.1,1.5-0.1,2.1c0,17,0,33.9,0,50.9c0,0.4,0.1,0.9,0,1.3c-0.2,0.4-0.6,0.9-0.9,0.9c-3.1,0.1-6.2,0-9.5,0
			c0-0.5-0.1-0.9-0.1-1.4c0-23.3,0-46.7,0-70c0-1.2,0.3-1.6,1.5-1.6c11.1,0.1,22.1-0.1,33.2,0.2c10.9,0.3,20.6,7.3,22.8,19.1
			c1.9,10.6-2.5,21.3-12.5,26.1c-0.2,0.1-0.4,0.2-0.9,0.5C205.7,76.6,212.3,85.5,219,94.7"/>
		<path id="Fill-9" class="st0" d="M304.6,53.9h14.1c-2.4-4.5-4.7-8.9-7.1-13.5C309.2,45.1,307,49.4,304.6,53.9L304.6,53.9z
			 M334.1,83.9c-0.2-0.5-0.4-0.9-0.5-1.3c-2.9-5.6-5.9-11.2-8.8-16.9c-0.4-0.7-0.8-1-1.7-1c-7.7,0-15.3,0-23,0
			c-0.9,0-1.4,0.3-1.8,1.1c-2.9,5.6-5.8,11.2-8.8,16.9c-0.2,0.4-0.3,0.7-0.5,1.2C289,83.9,334.1,83.9,334.1,83.9z M351.5,94.6h-79.7
			c13.3-25.2,26.5-50.3,39.8-75.6C325,44.3,338.2,69.4,351.5,94.6L351.5,94.6z"/>
		<path id="Fill-11" class="st0" d="M73.5,58.1C73.6,73,85.3,84.4,99,84.8c15.1,0.5,26.9-11.7,27.3-25.9
			c0.4-14.8-11.3-27.4-26.4-27.5C85.5,31.3,73.6,43.3,73.5,58.1 M99.9,20.8c20.2-0.2,37,16.6,37,37.4c0,20.6-16.8,37.4-37.1,37.3
			c-20.4-0.1-36.9-17.1-36.9-37.4C62.9,37.7,79.6,20.6,99.9,20.8"/>
		<path id="Fill-13" class="st0" d="M10.6,94.6H0.1V59c0.5,0,1,0,1.5,0c8.1,0,16.2,0,24.2,0c3.7,0,7-1.2,9.8-3.7
			c6.1-5.5,5.6-18.6-4.9-21.9c-2.2-0.7-4.6-1-6.9-1c-7.2-0.1-14.5,0-21.7,0c-2.6,0-2.1,0.2-2.1-2.2s0-4.7,0-7.1
			c0-0.9,0.2-1.3,1.2-1.3c8.8,0.1,17.6-0.3,26.4,0.2c10.7,0.6,20.3,7.6,22.2,19.8c2,13-5.4,24.8-18.9,27.4c-1.9,0.4-4,0.5-5.9,0.5
			c-4.3,0.1-8.6,0.1-12.9,0c-1.1,0-1.4,0.4-1.4,1.5c0,7.3,0,14.5,0,21.8C10.6,93.5,10.6,94,10.6,94.6"/>
		<path id="Fill-17" class="st0" d="M244.1,94.7v-2c0-19.5,0-38.9,0-58.4c0-2,0-2-2-2c-5.7,0-11.3,0-17,0c-1.1,0-1.5-0.3-1.4-1.4
			c0.1-2.5,0.1-5.1,0-7.6c0-1.2,0.3-1.6,1.6-1.6c10,0,20,0,30,0c6,0,12.1,0,18.1,0c1.3,0,1.6,0.4,1.6,1.6c-0.1,2.6-0.1,5.2,0,7.7
			c0,1.1-0.4,1.3-1.3,1.3c-5.7,0-11.4,0-17.1,0c-1.9,0-1.9,0-1.9,1.9c0,19.4,0,38.8,0,58.3c0,0.4,0.1,0.9,0,1.3
			c-0.1,0.3-0.5,0.8-0.8,0.8C250.7,94.7,247.5,94.7,244.1,94.7"/>
		<path id="Fill-19" class="st0" d="M409.6,84v10.6h-45.9c0-0.5,0-1,0-1.4c0-23.3,0-46.6,0-69.8c0-1.2,0.3-1.6,1.6-1.6
			c2.5,0.1,5,0.1,7.5,0c1.3,0,1.5,0.4,1.5,1.6c0,19.5,0,39.1,0,58.6c0,2,0,2,1.9,2c10.6,0,21.3,0,31.9,0C408.5,84,409,84,409.6,84"
			/>
	</g>
</g>
<path class="st1" d="M450.5,27.3h-49.2c-3.7,0-6.6-3-6.6-6.6V6.6c0-3.7,3-6.6,6.6-6.6h49.2c3.7,0,6.6,3,6.6,6.6v14.1
	C457.1,24.3,454.2,27.3,450.5,27.3z"/>
<g>
	<path class="st2" d="M411.7,13.5c1,0.5,1.5,1.4,1.5,2.6c0,1-0.4,1.8-1.1,2.3s-1.6,0.8-2.8,0.8h-4.1c-0.1,0-0.1,0-0.1-0.1L405,19
		V8.2c0-0.1,0-0.1,0.1-0.1l0.1-0.1h4c2.5,0,3.8,1,3.8,3.1C413.1,12.2,412.6,12.9,411.7,13.5C411.7,13.4,411.7,13.5,411.7,13.5z
		 M407.3,10.1v2.5c0,0.1,0,0.1,0.1,0.1h1.9c0.5,0,0.9-0.1,1.2-0.4c0.3-0.2,0.4-0.6,0.4-1s-0.1-0.7-0.4-1c-0.3-0.2-0.7-0.4-1.2-0.4
		L407.3,10.1C407.4,10,407.3,10,407.3,10.1z M410.6,16.9c0.3-0.3,0.4-0.6,0.4-1s-0.1-0.8-0.4-1c-0.3-0.3-0.7-0.4-1.2-0.4h-2
		c-0.1,0-0.1,0-0.1,0.1v2.7c0,0.1,0,0.1,0.1,0.1h2C409.9,17.3,410.3,17.2,410.6,16.9z"/>
	<path class="st2" d="M424.3,9.9l-0.1,0.1H419c-0.1,0-0.1,0-0.1,0.1v2.5c0,0.1,0,0.1,0.1,0.1h3.4c0.1,0,0.1,0,0.1,0.1
		s0.1,0.1,0.1,0.1v1.6c0,0.1,0,0.1-0.1,0.1l-0.1,0.1H419c-0.1,0-0.1,0-0.1,0.1v2.6c0,0.1,0,0.1,0.1,0.1h5.2c0.1,0,0.1,0,0.1,0.1
		l0.1,0.1v1.6c0,0.1,0,0.1-0.1,0.1l-0.1,0.1h-7.4c-0.1,0-0.1,0-0.1-0.1l-0.1-0.1V8.2c0-0.1,0-0.1,0.1-0.1l0.1-0.1h7.4
		c0.1,0,0.1,0,0.1,0.1l0.1,0.1v1.6C424.4,9.8,424.4,9.9,424.3,9.9z"/>
	<path class="st2" d="M435.4,8.1l0.1,0.1v1.6c0,0.1,0,0.1-0.1,0.1l-0.1,0.1h-2.9c-0.1,0-0.1,0-0.1,0.1v9c0,0.1,0,0.1-0.1,0.1
		l-0.1,0.1h-1.9c-0.1,0-0.1,0-0.1-0.1l-0.1-0.1v-9c0-0.1,0-0.1-0.1-0.1h-2.8c-0.1,0-0.1,0-0.1-0.1l-0.1-0.1V8.2c0-0.1,0-0.1,0.1-0.1
		l0.1-0.1h8.1C435.3,8,435.4,8.1,435.4,8.1z"/>
	<path class="st2" d="M444.4,19.1l-0.5-1.6c0,0,0-0.1-0.1-0.1h-3.9c0,0-0.1,0-0.1,0.1l-0.5,1.6c0,0.1-0.1,0.2-0.2,0.2h-2
		c-0.1,0-0.1,0-0.1-0.1c0,0,0-0.1,0-0.2l3.5-10.8c0-0.1,0.1-0.2,0.2-0.2h2.5c0.1,0,0.2,0.1,0.2,0.2l3.5,10.8c0,0,0,0,0,0.1
		s-0.1,0.1-0.2,0.1h-2C444.5,19.2,444.4,19.2,444.4,19.1z M440.5,15.7h2.8c0.1,0,0.1,0,0.1-0.1l-1.4-4.8v-0.1c0,0,0,0,0,0.1
		L440.5,15.7C440.4,15.7,440.4,15.7,440.5,15.7z"/>
</g>
</svg>
